<svg width="15" height="20" fill="none" xmlns="http://www.w3.org/2000/svg"><path fill-rule="evenodd" clip-rule="evenodd" d="M13.964 15.891a.486.486 0 01-.48.492H1.515a.485.485 0 01-.479-.492v-5.158c0-3.652 2.9-6.624 6.464-6.624 3.565 0 6.464 2.972 6.464 6.624v5.158zM7.5 18.938c-.726 0-1.317-.605-1.317-1.35 0-.048.003-.096.007-.144h2.62c.005.048.007.096.007.145 0 .744-.591 1.35-1.317 1.35zM9.125 3.23c.233-.334.37-.742.37-1.185C9.495.915 8.602 0 7.5 0S5.505.915 5.505 2.044c0 .443.138.85.37 1.185C2.518 3.992 0 7.065 0 10.733v5.158c0 .857.68 1.553 1.515 1.553H5.15a2.656 2.656 0 00-.004.145C5.147 18.919 6.202 20 7.5 20c1.298 0 2.353-1.081 2.353-2.412 0-.048-.002-.096-.004-.144h3.635c.836 0 1.516-.696 1.516-1.553v-5.158c0-3.668-2.517-6.741-5.875-7.504z" fill="#626262"/></svg>