<?xml version="1.0" encoding="UTF-8"?>
<svg xmlns="http://www.w3.org/2000/svg" xmlns:xlink="http://www.w3.org/1999/xlink" width="32pt" height="32pt" viewBox="0 0 32 32" version="1.1">
<g id="surface1">
<path style=" stroke:none;fill-rule:nonzero;fill:rgb(0%,0%,0%);fill-opacity:1;" d="M 14.699219 1.554688 C 11.238281 1.957031 8.230469 3.371094 5.957031 5.667969 C 3.933594 7.714844 2.820312 10.175781 2.679688 12.917969 L 2.636719 13.785156 L 2.136719 14.183594 C 1.285156 14.871094 0.605469 15.84375 0.398438 16.660156 C 0.117188 17.753906 0.613281 18.527344 1.78125 18.824219 C 2.117188 18.910156 2.117188 18.910156 2.210938 19.328125 C 2.316406 19.816406 2.5625 20.335938 2.851562 20.667969 L 3.042969 20.898438 L 2.730469 21.238281 C 1.992188 22.046875 1.871094 23.144531 2.425781 24.023438 C 2.582031 24.269531 2.648438 24.492188 2.6875 24.886719 C 2.902344 27.019531 4.257812 28.945312 6.238281 29.902344 C 7.570312 30.539062 6.800781 30.496094 16.292969 30.496094 C 25.78125 30.496094 25.015625 30.539062 26.34375 29.902344 C 28.320312 28.945312 29.699219 26.996094 29.902344 24.863281 C 29.929688 24.492188 29.996094 24.269531 30.128906 24.070312 C 30.640625 23.3125 30.632812 22.335938 30.109375 21.542969 L 29.910156 21.238281 L 30.152344 20.222656 L 30.40625 19.199219 L 30.820312 18.933594 C 31.746094 18.332031 31.917969 17.496094 31.367188 16.324219 C 31.160156 15.886719 30.382812 14.871094 30.117188 14.703125 C 29.960938 14.597656 29.953125 14.53125 29.910156 13.277344 C 29.878906 12.410156 29.820312 11.746094 29.722656 11.300781 C 28.679688 6.445312 24.402344 2.660156 18.886719 1.703125 C 17.835938 1.523438 15.671875 1.445312 14.699219 1.554688 Z M 17.785156 2.742188 C 23.527344 3.324219 27.898438 7.03125 28.625 11.945312 C 28.691406 12.375 28.746094 12.996094 28.746094 13.332031 L 28.746094 13.929688 L 3.84375 13.929688 L 3.84375 13.332031 C 3.84375 11.507812 4.464844 9.5 5.511719 7.9375 C 7.933594 4.296875 12.796875 2.238281 17.785156 2.742188 Z M 29.21875 15.480469 C 30.011719 16.09375 30.523438 16.828125 30.523438 17.355469 C 30.523438 17.710938 30.21875 18.082031 29.9375 18.082031 C 29.828125 18.082031 29.671875 18.132812 29.589844 18.191406 C 29.390625 18.339844 28.796875 18.332031 28.121094 18.15625 C 27.261719 17.941406 25.71875 17.125 25.136719 16.59375 C 24.765625 16.25 24.601562 16.234375 24.015625 16.480469 C 22.675781 17.042969 20.296875 17.015625 19.109375 16.421875 C 18.472656 16.101562 18.152344 16.175781 17.925781 16.703125 C 17.730469 17.164062 17.382812 17.519531 16.96875 17.695312 C 16.472656 17.910156 15.625 18.03125 14.90625 17.984375 C 14.144531 17.941406 13.484375 17.652344 13.003906 17.164062 C 12.511719 16.660156 12.367188 16.621094 11.808594 16.886719 C 10.957031 17.28125 10.445312 17.378906 9.140625 17.378906 C 8.132812 17.378906 7.867188 17.347656 7.363281 17.207031 C 7.035156 17.109375 6.628906 16.953125 6.457031 16.851562 C 6.289062 16.753906 6.074219 16.671875 5.984375 16.671875 C 5.894531 16.671875 5.421875 16.875 4.925781 17.117188 C 3.910156 17.613281 3.28125 17.800781 2.582031 17.808594 C 1.582031 17.808594 1.234375 17.320312 1.621094 16.457031 C 1.703125 16.28125 2.011719 15.902344 2.308594 15.605469 L 2.84375 15.082031 L 15.820312 15.117188 L 28.796875 15.15625 Z M 19.679688 17.84375 L 20.511719 18.050781 L 18.933594 20.304688 C 18.058594 21.550781 17.308594 22.558594 17.257812 22.542969 C 17.078125 22.5 10.898438 18.488281 10.941406 18.445312 C 10.972656 18.421875 11.269531 18.324219 11.601562 18.238281 L 12.210938 18.066406 L 12.492188 18.289062 C 13.316406 18.933594 14.316406 19.230469 15.476562 19.171875 C 16.855469 19.097656 17.789062 18.742188 18.414062 18.050781 C 18.613281 17.835938 18.792969 17.652344 18.8125 17.644531 C 18.835938 17.644531 19.222656 17.734375 19.679688 17.84375 Z M 24.789062 17.851562 C 25.253906 18.191406 26.601562 18.882812 27.1875 19.082031 C 27.484375 19.1875 28.035156 19.304688 28.402344 19.347656 C 28.773438 19.402344 29.085938 19.445312 29.101562 19.453125 C 29.113281 19.460938 29.070312 19.691406 29.003906 19.949219 L 28.878906 20.429688 L 27.871094 20.511719 C 26.410156 20.640625 20.40625 20.988281 20.15625 20.957031 C 19.941406 20.933594 19.949219 20.925781 20.941406 19.503906 C 21.824219 18.246094 21.964844 18.082031 22.140625 18.082031 C 22.453125 18.082031 23.691406 17.859375 23.996094 17.75 C 24.378906 17.601562 24.460938 17.613281 24.789062 17.851562 Z M 8.140625 18.535156 L 8.921875 18.628906 L 10.660156 19.742188 C 12.328125 20.816406 12.386719 20.859375 12.121094 20.882812 C 11.972656 20.898438 10.226562 20.816406 8.238281 20.710938 C 4.363281 20.503906 4.242188 20.492188 3.84375 20.074219 C 3.660156 19.875 3.4375 19.421875 3.371094 19.082031 L 3.316406 18.859375 L 3.800781 18.761719 C 4.273438 18.675781 5.15625 18.355469 5.675781 18.089844 C 5.933594 17.960938 5.941406 17.960938 6.652344 18.199219 C 7.074219 18.347656 7.683594 18.480469 8.140625 18.535156 Z M 9.617188 21.972656 L 14.539062 22.238281 L 15.910156 23.128906 L 17.289062 24.011719 L 10.625 23.996094 L 3.953125 23.972656 L 3.71875 23.804688 C 3.257812 23.476562 3.109375 22.558594 3.449219 22.097656 C 3.671875 21.792969 4.058594 21.625 4.398438 21.667969 C 4.5625 21.691406 6.910156 21.832031 9.617188 21.972656 Z M 28.90625 21.867188 C 29.550781 22.328125 29.441406 23.535156 28.730469 23.863281 C 28.425781 24.003906 28.203125 24.011719 23.039062 24.003906 C 20.082031 24.003906 17.710938 23.980469 17.761719 23.957031 C 17.8125 23.9375 18.125 23.542969 18.449219 23.078125 C 19.019531 22.269531 19.058594 22.230469 19.316406 22.226562 C 19.464844 22.226562 21.378906 22.113281 23.558594 21.980469 C 28.550781 21.667969 28.617188 21.667969 28.90625 21.867188 Z M 28.671875 25.234375 C 28.671875 25.425781 28.441406 26.136719 28.242188 26.550781 C 27.757812 27.574219 26.945312 28.375 25.890625 28.871094 C 24.839844 29.359375 25.074219 29.347656 16.292969 29.347656 C 7.511719 29.347656 7.75 29.359375 6.695312 28.871094 C 5.628906 28.367188 4.835938 27.589844 4.347656 26.550781 C 4.148438 26.136719 3.917969 25.425781 3.917969 25.234375 C 3.917969 25.179688 8.089844 25.160156 16.292969 25.160156 C 24.5 25.160156 28.671875 25.179688 28.671875 25.234375 Z M 28.671875 25.234375 "/>
<path style=" stroke:none;fill-rule:nonzero;fill:rgb(0%,0%,0%);fill-opacity:1;" d="M 14.109375 4.628906 C 13.738281 4.992188 13.996094 5.632812 14.515625 5.632812 C 14.820312 5.632812 15.109375 5.34375 15.109375 5.039062 C 15.109375 4.734375 14.820312 4.445312 14.515625 4.445312 C 14.375 4.445312 14.21875 4.511719 14.109375 4.628906 Z M 14.109375 4.628906 "/>
<path style=" stroke:none;fill-rule:nonzero;fill:rgb(0%,0%,0%);fill-opacity:1;" d="M 16.480469 4.628906 C 16.359375 4.742188 16.292969 4.898438 16.292969 5.039062 C 16.292969 5.179688 16.359375 5.335938 16.480469 5.445312 C 16.589844 5.566406 16.746094 5.632812 16.886719 5.632812 C 17.027344 5.632812 17.183594 5.566406 17.292969 5.445312 C 17.414062 5.335938 17.480469 5.179688 17.480469 5.039062 C 17.480469 4.898438 17.414062 4.742188 17.292969 4.628906 C 17.183594 4.511719 17.027344 4.445312 16.886719 4.445312 C 16.746094 4.445312 16.589844 4.511719 16.480469 4.628906 Z M 16.480469 4.628906 "/>
<path style=" stroke:none;fill-rule:nonzero;fill:rgb(0%,0%,0%);fill-opacity:1;" d="M 11.734375 5.222656 C 11.367188 5.585938 11.625 6.222656 12.144531 6.222656 C 12.449219 6.222656 12.738281 5.933594 12.738281 5.632812 C 12.738281 5.328125 12.449219 5.039062 12.144531 5.039062 C 12.003906 5.039062 11.847656 5.105469 11.734375 5.222656 Z M 11.734375 5.222656 "/>
<path style=" stroke:none;fill-rule:nonzero;fill:rgb(0%,0%,0%);fill-opacity:1;" d="M 18.851562 5.222656 C 18.730469 5.335938 18.664062 5.492188 18.664062 5.632812 C 18.664062 5.773438 18.730469 5.925781 18.851562 6.039062 C 18.960938 6.15625 19.117188 6.222656 19.257812 6.222656 C 19.398438 6.222656 19.554688 6.15625 19.667969 6.039062 C 19.785156 5.925781 19.851562 5.773438 19.851562 5.632812 C 19.851562 5.492188 19.785156 5.335938 19.667969 5.222656 C 19.554688 5.105469 19.398438 5.039062 19.257812 5.039062 C 19.117188 5.039062 18.960938 5.105469 18.851562 5.222656 Z M 18.851562 5.222656 "/>
<path style=" stroke:none;fill-rule:nonzero;fill:rgb(0%,0%,0%);fill-opacity:1;" d="M 9.363281 5.816406 C 8.992188 6.179688 9.253906 6.816406 9.773438 6.816406 C 10.074219 6.816406 10.363281 6.527344 10.363281 6.222656 C 10.363281 5.921875 10.074219 5.632812 9.773438 5.632812 C 9.632812 5.632812 9.476562 5.699219 9.363281 5.816406 Z M 9.363281 5.816406 "/>
<path style=" stroke:none;fill-rule:nonzero;fill:rgb(0%,0%,0%);fill-opacity:1;" d="M 21.222656 5.816406 C 21.105469 5.925781 21.039062 6.082031 21.039062 6.222656 C 21.039062 6.363281 21.105469 6.519531 21.222656 6.632812 C 21.332031 6.75 21.488281 6.816406 21.628906 6.816406 C 21.769531 6.816406 21.925781 6.75 22.039062 6.632812 C 22.15625 6.519531 22.222656 6.363281 22.222656 6.222656 C 22.222656 6.082031 22.15625 5.925781 22.039062 5.816406 C 21.925781 5.699219 21.769531 5.632812 21.628906 5.632812 C 21.488281 5.632812 21.332031 5.699219 21.222656 5.816406 Z M 21.222656 5.816406 "/>
<path style=" stroke:none;fill-rule:nonzero;fill:rgb(0%,0%,0%);fill-opacity:1;" d="M 23.59375 6.410156 C 23.476562 6.519531 23.410156 6.675781 23.410156 6.816406 C 23.410156 6.957031 23.476562 7.113281 23.59375 7.222656 C 23.703125 7.34375 23.859375 7.410156 24 7.410156 C 24.140625 7.410156 24.296875 7.34375 24.410156 7.222656 C 24.527344 7.113281 24.59375 6.957031 24.59375 6.816406 C 24.59375 6.675781 24.527344 6.519531 24.410156 6.410156 C 24.296875 6.289062 24.140625 6.222656 24 6.222656 C 23.859375 6.222656 23.707031 6.289062 23.59375 6.410156 Z M 23.59375 6.410156 "/>
<path style=" stroke:none;fill-rule:nonzero;fill:rgb(0%,0%,0%);fill-opacity:1;" d="M 13.515625 7 C 13.144531 7.363281 13.402344 8.003906 13.921875 8.003906 C 14.226562 8.003906 14.515625 7.714844 14.515625 7.410156 C 14.515625 7.105469 14.226562 6.816406 13.921875 6.816406 C 13.78125 6.816406 13.625 6.882812 13.515625 7 Z M 13.515625 7 "/>
<path style=" stroke:none;fill-rule:nonzero;fill:rgb(0%,0%,0%);fill-opacity:1;" d="M 16.480469 7 C 16.359375 7.113281 16.292969 7.269531 16.292969 7.410156 C 16.292969 7.550781 16.359375 7.707031 16.480469 7.816406 C 16.589844 7.9375 16.746094 8.003906 16.886719 8.003906 C 17.027344 8.003906 17.183594 7.9375 17.292969 7.816406 C 17.414062 7.707031 17.480469 7.550781 17.480469 7.410156 C 17.480469 7.269531 17.414062 7.113281 17.292969 7 C 17.183594 6.882812 17.027344 6.816406 16.886719 6.816406 C 16.746094 6.816406 16.589844 6.882812 16.480469 7 Z M 16.480469 7 "/>
<path style=" stroke:none;fill-rule:nonzero;fill:rgb(0%,0%,0%);fill-opacity:1;" d="M 6.992188 7.59375 C 6.621094 7.957031 6.882812 8.59375 7.402344 8.59375 C 7.703125 8.59375 7.992188 8.304688 7.992188 8.003906 C 7.992188 7.699219 7.703125 7.410156 7.402344 7.410156 C 7.261719 7.410156 7.105469 7.476562 6.992188 7.59375 Z M 6.992188 7.59375 "/>
<path style=" stroke:none;fill-rule:nonzero;fill:rgb(0%,0%,0%);fill-opacity:1;" d="M 11.144531 7.59375 C 10.773438 7.957031 11.03125 8.59375 11.550781 8.59375 C 11.855469 8.59375 12.144531 8.304688 12.144531 8.003906 C 12.144531 7.699219 11.855469 7.410156 11.550781 7.410156 C 11.410156 7.410156 11.253906 7.476562 11.144531 7.59375 Z M 11.144531 7.59375 "/>
<path style=" stroke:none;fill-rule:nonzero;fill:rgb(0%,0%,0%);fill-opacity:1;" d="M 18.851562 7.59375 C 18.730469 7.707031 18.664062 7.863281 18.664062 8.003906 C 18.664062 8.144531 18.730469 8.300781 18.851562 8.410156 C 18.960938 8.527344 19.117188 8.59375 19.257812 8.59375 C 19.398438 8.59375 19.554688 8.527344 19.667969 8.410156 C 19.785156 8.300781 19.851562 8.144531 19.851562 8.003906 C 19.851562 7.863281 19.785156 7.707031 19.667969 7.59375 C 19.554688 7.476562 19.398438 7.410156 19.257812 7.410156 C 19.117188 7.410156 18.960938 7.476562 18.851562 7.59375 Z M 18.851562 7.59375 "/>
<path style=" stroke:none;fill-rule:nonzero;fill:rgb(0%,0%,0%);fill-opacity:1;" d="M 21.222656 8.1875 C 21.105469 8.300781 21.039062 8.453125 21.039062 8.59375 C 21.039062 8.734375 21.105469 8.890625 21.222656 9.003906 C 21.332031 9.121094 21.488281 9.1875 21.628906 9.1875 C 21.769531 9.1875 21.925781 9.121094 22.039062 9.003906 C 22.15625 8.890625 22.222656 8.734375 22.222656 8.59375 C 22.222656 8.453125 22.15625 8.300781 22.039062 8.1875 C 21.925781 8.070312 21.769531 8.003906 21.628906 8.003906 C 21.488281 8.003906 21.332031 8.070312 21.222656 8.1875 Z M 21.222656 8.1875 "/>
<path style=" stroke:none;fill-rule:nonzero;fill:rgb(0%,0%,0%);fill-opacity:1;" d="M 9.363281 8.78125 C 8.992188 9.144531 9.253906 9.78125 9.773438 9.78125 C 10.074219 9.78125 10.363281 9.492188 10.363281 9.1875 C 10.363281 8.882812 10.074219 8.59375 9.773438 8.59375 C 9.632812 8.59375 9.476562 8.660156 9.363281 8.78125 Z M 9.363281 8.78125 "/>
<path style=" stroke:none;fill-rule:nonzero;fill:rgb(0%,0%,0%);fill-opacity:1;" d="M 25.964844 8.78125 C 25.847656 8.890625 25.78125 9.046875 25.78125 9.1875 C 25.78125 9.328125 25.847656 9.484375 25.964844 9.597656 C 26.078125 9.714844 26.230469 9.78125 26.375 9.78125 C 26.515625 9.78125 26.667969 9.714844 26.78125 9.597656 C 26.898438 9.484375 26.964844 9.328125 26.964844 9.1875 C 26.964844 9.046875 26.898438 8.890625 26.78125 8.78125 C 26.667969 8.660156 26.515625 8.59375 26.375 8.59375 C 26.230469 8.59375 26.078125 8.660156 25.964844 8.78125 Z M 25.964844 8.78125 "/>
<path style=" stroke:none;fill-rule:nonzero;fill:rgb(0%,0%,0%);fill-opacity:1;" d="M 12.921875 9.375 C 12.550781 9.738281 12.8125 10.375 13.328125 10.375 C 13.632812 10.375 13.921875 10.085938 13.921875 9.78125 C 13.921875 9.476562 13.632812 9.1875 13.328125 9.1875 C 13.1875 9.1875 13.03125 9.253906 12.921875 9.375 Z M 12.921875 9.375 "/>
<path style=" stroke:none;fill-rule:nonzero;fill:rgb(0%,0%,0%);fill-opacity:1;" d="M 15.292969 9.375 C 14.921875 9.738281 15.183594 10.375 15.699219 10.375 C 15.84375 10.375 15.996094 10.308594 16.109375 10.1875 C 16.226562 10.078125 16.292969 9.921875 16.292969 9.78125 C 16.292969 9.640625 16.226562 9.484375 16.109375 9.375 C 15.996094 9.253906 15.84375 9.1875 15.699219 9.1875 C 15.558594 9.1875 15.40625 9.253906 15.292969 9.375 Z M 15.292969 9.375 "/>
<path style=" stroke:none;fill-rule:nonzero;fill:rgb(0%,0%,0%);fill-opacity:1;" d="M 17.664062 9.375 C 17.546875 9.484375 17.480469 9.640625 17.480469 9.78125 C 17.480469 9.921875 17.546875 10.078125 17.664062 10.1875 C 17.777344 10.308594 17.933594 10.375 18.074219 10.375 C 18.214844 10.375 18.367188 10.308594 18.480469 10.1875 C 18.597656 10.078125 18.664062 9.921875 18.664062 9.78125 C 18.664062 9.640625 18.597656 9.484375 18.480469 9.375 C 18.371094 9.253906 18.214844 9.1875 18.074219 9.1875 C 17.933594 9.1875 17.777344 9.253906 17.664062 9.375 Z M 17.664062 9.375 "/>
<path style=" stroke:none;fill-rule:nonzero;fill:rgb(0%,0%,0%);fill-opacity:1;" d="M 23.59375 9.375 C 23.476562 9.484375 23.410156 9.640625 23.410156 9.78125 C 23.410156 9.921875 23.476562 10.078125 23.59375 10.1875 C 23.703125 10.308594 23.859375 10.375 24 10.375 C 24.140625 10.375 24.296875 10.308594 24.410156 10.1875 C 24.527344 10.078125 24.59375 9.921875 24.59375 9.78125 C 24.59375 9.640625 24.527344 9.484375 24.410156 9.375 C 24.296875 9.253906 24.140625 9.1875 24 9.1875 C 23.859375 9.1875 23.707031 9.253906 23.59375 9.375 Z M 23.59375 9.375 "/>
<path style=" stroke:none;fill-rule:nonzero;fill:rgb(0%,0%,0%);fill-opacity:1;" d="M 6.398438 9.964844 C 6.03125 10.328125 6.289062 10.96875 6.808594 10.96875 C 7.113281 10.96875 7.402344 10.679688 7.402344 10.375 C 7.402344 10.070312 7.113281 9.78125 6.808594 9.78125 C 6.667969 9.78125 6.511719 9.847656 6.398438 9.964844 Z M 6.398438 9.964844 "/>
<path style=" stroke:none;fill-rule:nonzero;fill:rgb(0%,0%,0%);fill-opacity:1;" d="M 11.144531 10.558594 C 10.773438 10.921875 11.03125 11.558594 11.550781 11.558594 C 11.855469 11.558594 12.144531 11.269531 12.144531 10.96875 C 12.144531 10.664062 11.855469 10.375 11.550781 10.375 C 11.410156 10.375 11.253906 10.441406 11.144531 10.558594 Z M 11.144531 10.558594 "/>
<path style=" stroke:none;fill-rule:nonzero;fill:rgb(0%,0%,0%);fill-opacity:1;" d="M 20.628906 10.558594 C 20.511719 10.671875 20.445312 10.828125 20.445312 10.96875 C 20.445312 11.109375 20.511719 11.261719 20.628906 11.375 C 20.742188 11.492188 20.894531 11.558594 21.039062 11.558594 C 21.179688 11.558594 21.332031 11.492188 21.445312 11.375 C 21.5625 11.265625 21.628906 11.109375 21.628906 10.96875 C 21.628906 10.828125 21.5625 10.671875 21.445312 10.558594 C 21.332031 10.441406 21.179688 10.375 21.039062 10.375 C 20.894531 10.375 20.742188 10.441406 20.628906 10.558594 Z M 20.628906 10.558594 "/>
</g>
</svg>
