<svg xmlns="http://www.w3.org/2000/svg" width="32pt" height="32pt" viewBox="0 0 32 32"><path d="M14.7 1.555c-3.462.402-6.47 1.816-8.743 4.113-2.023 2.047-3.137 4.508-3.277 7.25l-.043.867-.5.399c-.852.687-1.532 1.66-1.739 2.476-.28 1.094.215 1.867 1.383 2.164.336.086.336.086.43.504.105.488.352 1.008.64 1.34l.192.23-.313.34c-.738.809-.859 1.907-.304 2.785.156.247.222.47.261.864.215 2.133 1.57 4.058 3.551 5.015 1.332.637.563.594 10.055.594 9.488 0 8.723.043 10.05-.594 1.977-.957 3.356-2.906 3.56-5.039.027-.37.093-.593.226-.793.512-.758.504-1.734-.02-2.527l-.199-.305.242-1.015.254-1.024.414-.265c.926-.602 1.098-1.438.547-2.61-.207-.437-.984-1.453-1.25-1.62-.156-.106-.164-.173-.207-1.427-.031-.867-.09-1.53-.187-1.976-1.043-4.856-5.32-8.64-10.836-9.598-1.051-.18-3.215-.258-4.188-.148zm3.085 1.187c5.742.582 10.113 4.29 10.84 9.203.066.43.121 1.051.121 1.387v.598H3.844v-.598c0-1.824.62-3.832 1.668-5.395 2.422-3.64 7.285-5.699 12.273-5.195zM29.22 15.48c.793.614 1.304 1.348 1.304 1.875 0 .356-.304.727-.585.727-.11 0-.266.05-.348.11-.2.148-.793.14-1.469-.036-.86-.215-2.402-1.031-2.984-1.562-.371-.344-.535-.36-1.121-.114-1.34.563-3.72.536-4.907-.058-.636-.32-.957-.246-1.183.281-.196.461-.543.817-.957.992-.496.215-1.344.336-2.063.29-.761-.044-1.422-.333-1.902-.82-.492-.505-.637-.544-1.195-.278-.852.394-1.364.492-2.668.492-1.008 0-1.274-.031-1.778-.172-.328-.098-.734-.254-.906-.355-.168-.098-.383-.18-.473-.18-.09 0-.562.203-1.058.445-1.016.496-1.645.684-2.344.692-1 0-1.348-.489-.96-1.352.081-.176.39-.555.687-.852l.535-.523 12.976.035 12.977.04zm-9.54 2.364l.833.207-1.578 2.254c-.875 1.246-1.625 2.254-1.676 2.238-.18-.043-6.36-4.055-6.317-4.098.032-.023.329-.12.66-.207l.61-.172.281.223c.824.645 1.824.941 2.985.883 1.378-.074 2.312-.43 2.937-1.121.2-.215.379-.399.398-.406.024 0 .41.09.868.199zm5.11.008c.465.34 1.813 1.03 2.398 1.23.297.105.848.223 1.215.266.371.054.684.097.7.105.011.008-.032.238-.098.496l-.125.48-1.008.083c-1.46.129-7.465.476-7.715.445-.215-.023-.207-.031.785-1.453.883-1.258 1.024-1.422 1.2-1.422.312 0 1.55-.223 1.855-.332.383-.148.465-.137.793.102zm-16.648.683l.78.094 1.74 1.113c1.667 1.074 1.726 1.117 1.46 1.14-.148.016-1.894-.066-3.883-.171-3.875-.207-3.996-.219-4.394-.637-.184-.199-.406-.652-.473-.992l-.055-.223.485-.097c.472-.086 1.355-.407 1.875-.672.258-.13.265-.13.976.11a7.841 7.841 0 001.489.335zm1.476 3.438l4.922.265 1.371.89 1.38.884-6.665-.016-6.672-.023-.234-.168c-.461-.328-.61-1.246-.27-1.707.223-.305.61-.473.95-.43.163.023 2.511.164 5.218.305zm19.29-.106c.644.461.534 1.668-.177 1.996-.304.14-.527.149-5.69.14-2.958 0-5.33-.023-5.278-.046.05-.02.363-.414.687-.879.57-.808.61-.848.867-.851.149 0 2.063-.114 4.243-.247 4.992-.312 5.058-.312 5.347-.113zm-.235 3.367c0 .192-.23.903-.43 1.317-.484 1.023-1.297 1.824-2.351 2.32-1.051.488-.817.477-9.598.477s-8.543.011-9.598-.477c-1.066-.504-1.86-1.281-2.347-2.32-.2-.414-.43-1.125-.43-1.317 0-.054 4.172-.074 12.375-.074 8.207 0 12.379.02 12.379.074zm0 0"/><path d="M14.11 4.629c-.372.363-.114 1.004.406 1.004.304 0 .593-.29.593-.594a.626.626 0 00-.593-.594.576.576 0 00-.407.184zm0 0M16.48 4.629a.58.58 0 00-.187.41c0 .14.066.297.187.406.11.121.266.188.407.188.14 0 .297-.067.406-.188a.565.565 0 00.187-.406.58.58 0 00-.187-.41.576.576 0 00-.406-.184.576.576 0 00-.407.184zm0 0M11.734 5.223c-.367.363-.109 1 .41 1 .305 0 .594-.29.594-.59a.626.626 0 00-.593-.594.591.591 0 00-.41.184zm0 0M18.852 5.223a.58.58 0 00-.188.41c0 .14.066.293.188.406.109.117.265.184.406.184.14 0 .297-.067.41-.184a.583.583 0 00.184-.406.591.591 0 00-.184-.41.591.591 0 00-.41-.184.576.576 0 00-.406.184zm0 0M9.363 5.816c-.37.364-.11 1 .41 1 .301 0 .59-.289.59-.593 0-.301-.289-.59-.59-.59a.591.591 0 00-.41.183zm0 0M21.223 5.816a.576.576 0 00-.184.407c0 .14.066.297.184.41.109.117.265.183.406.183.14 0 .297-.066.41-.183a.591.591 0 00.184-.41.576.576 0 00-.184-.407.591.591 0 00-.41-.183.576.576 0 00-.406.183zm0 0M23.594 6.41a.576.576 0 00-.184.406c0 .141.067.297.184.407.11.12.265.187.406.187a.58.58 0 00.41-.187.576.576 0 00.184-.407.576.576 0 00-.184-.406.58.58 0 00-.41-.187.571.571 0 00-.406.187zm0 0M13.516 7c-.371.363-.114 1.004.406 1.004.305 0 .594-.29.594-.594a.626.626 0 00-.594-.594.576.576 0 00-.406.184zm0 0M16.48 7a.58.58 0 00-.187.41c0 .14.066.297.187.406.11.122.266.188.407.188.14 0 .297-.066.406-.188a.565.565 0 00.187-.406.58.58 0 00-.187-.41.576.576 0 00-.406-.184.576.576 0 00-.407.184zm0 0M6.992 7.594c-.37.363-.11 1 .41 1 .301 0 .59-.29.59-.59 0-.305-.289-.594-.59-.594a.591.591 0 00-.41.184zm0 0M11.145 7.594a.584.584 0 00.406 1c.304 0 .594-.29.594-.59a.626.626 0 00-.594-.594.576.576 0 00-.406.184zm0 0M18.852 7.594a.58.58 0 00-.188.41c0 .14.066.297.188.406.109.117.265.184.406.184.14 0 .297-.067.41-.184a.576.576 0 00.184-.406.591.591 0 00-.184-.41.591.591 0 00-.41-.184.576.576 0 00-.406.184zm0 0M21.223 8.188a.583.583 0 00-.184.406c0 .14.066.297.184.41.109.117.265.184.406.184.14 0 .297-.067.41-.184a.591.591 0 00.184-.41.583.583 0 00-.184-.406.591.591 0 00-.41-.184.576.576 0 00-.406.184zm0 0M9.363 8.781c-.37.364-.11 1 .41 1 .301 0 .59-.289.59-.594 0-.304-.289-.593-.59-.593a.58.58 0 00-.41.187zm0 0M25.965 8.781a.576.576 0 00-.184.406c0 .141.067.297.184.41a.584.584 0 00.41.184c.14 0 .293-.066.406-.183a.591.591 0 00.184-.41.576.576 0 00-.184-.407.571.571 0 00-.406-.187.573.573 0 00-.41.187zm0 0M12.922 9.375c-.371.363-.11 1 .406 1 .305 0 .594-.29.594-.594a.626.626 0 00-.594-.594.565.565 0 00-.406.188zm0 0M15.293 9.375c-.371.363-.11 1 .406 1a.573.573 0 00.41-.188.576.576 0 00.184-.406.576.576 0 00-.184-.406.573.573 0 00-.41-.188.571.571 0 00-.406.188zm0 0M17.664 9.375a.576.576 0 00-.184.406c0 .14.067.297.184.406a.58.58 0 00.41.188c.14 0 .293-.066.406-.188a.576.576 0 00.184-.406.576.576 0 00-.184-.406.565.565 0 00-.406-.188.58.58 0 00-.41.188zm0 0M23.594 9.375a.576.576 0 00-.184.406c0 .14.067.297.184.406.11.122.265.188.406.188a.58.58 0 00.41-.188.576.576 0 00.184-.406.576.576 0 00-.184-.406.58.58 0 00-.41-.188.571.571 0 00-.406.188zm0 0M6.398 9.965c-.367.363-.109 1.004.41 1.004.305 0 .594-.29.594-.594a.626.626 0 00-.593-.594.591.591 0 00-.41.184zm0 0M11.145 10.559a.584.584 0 00.406 1c.304 0 .594-.29.594-.59a.626.626 0 00-.594-.594.576.576 0 00-.406.184zm0 0M20.629 10.559a.591.591 0 00-.184.41c0 .14.067.293.184.406a.584.584 0 00.41.184c.14 0 .293-.067.406-.184a.576.576 0 00.184-.406.591.591 0 00-.184-.41.583.583 0 00-.406-.184.584.584 0 00-.41.184zm0 0"/></svg>