<?xml version="1.0" encoding="UTF-8"?>
<svg xmlns="http://www.w3.org/2000/svg" xmlns:xlink="http://www.w3.org/1999/xlink" width="32pt" height="32pt" viewBox="0 0 32 32" version="1.1">
<g id="surface1">
<path style=" stroke:none;fill-rule:nonzero;fill:rgb(0%,0%,0%);fill-opacity:1;" d="M 14.589844 3.386719 C 12.539062 3.558594 11.511719 3.71875 10.164062 4.0625 C 7.671875 4.699219 5.625 5.753906 4.152344 7.15625 C 2.394531 8.828125 1.503906 10.804688 1.300781 13.414062 C 1.230469 14.347656 1.28125 14.585938 1.5625 14.652344 C 1.6875 14.6875 1.703125 14.726562 1.699219 15.054688 L 1.699219 15.417969 L 1.484375 15.453125 C 1.164062 15.503906 0.839844 15.65625 0.664062 15.839844 C 0.351562 16.164062 0.320312 16.34375 0.320312 17.847656 C 0.320312 19.074219 0.339844 19.277344 0.4375 19.496094 C 0.597656 19.847656 0.949219 20.121094 1.359375 20.207031 L 1.699219 20.273438 L 1.699219 20.628906 C 1.703125 20.949219 1.6875 20.984375 1.5625 21.023438 C 1.488281 21.039062 1.378906 21.136719 1.324219 21.242188 C 1.246094 21.410156 1.238281 21.507812 1.292969 21.941406 C 1.386719 22.613281 1.507812 23.011719 1.796875 23.5625 C 2.433594 24.796875 3.816406 25.941406 5.636719 26.75 C 10.78125 29.046875 19.203125 29.265625 25.035156 27.257812 C 28.484375 26.070312 30.503906 24.128906 30.683594 21.835938 C 30.71875 21.335938 30.644531 21.101562 30.414062 21.027344 C 30.320312 20.996094 30.300781 20.925781 30.300781 20.636719 L 30.300781 20.273438 L 30.640625 20.207031 C 31.050781 20.121094 31.40625 19.847656 31.5625 19.496094 C 31.660156 19.277344 31.679688 19.074219 31.679688 17.835938 C 31.679688 16.601562 31.660156 16.398438 31.5625 16.175781 C 31.433594 15.890625 31.0625 15.558594 30.8125 15.511719 C 30.71875 15.492188 30.566406 15.46875 30.46875 15.449219 C 30.308594 15.417969 30.300781 15.398438 30.300781 15.050781 C 30.300781 14.847656 30.320312 14.683594 30.351562 14.683594 C 30.375 14.683594 30.46875 14.617188 30.546875 14.53125 C 30.683594 14.402344 30.699219 14.328125 30.699219 13.9375 C 30.699219 13.390625 30.609375 12.550781 30.480469 11.925781 C 29.511719 7.246094 25.402344 4.300781 18.726562 3.503906 C 17.976562 3.414062 15.203125 3.332031 14.589844 3.386719 Z M 18.40625 4.429688 C 21.5 4.734375 24.097656 5.582031 26.074219 6.929688 C 26.769531 7.394531 27.886719 8.503906 28.3125 9.132812 C 29.125 10.351562 29.597656 11.753906 29.746094 13.378906 L 29.78125 13.765625 L 2.199219 13.765625 L 2.242188 13.257812 C 2.457031 10.683594 3.683594 8.519531 5.777344 7.007812 C 6.425781 6.542969 8.039062 5.722656 8.859375 5.433594 C 11.6875 4.453125 15.097656 4.09375 18.40625 4.429688 Z M 29.234375 14.746094 C 29.371094 14.816406 29.402344 15.222656 29.277344 15.34375 C 29.175781 15.449219 2.824219 15.449219 2.722656 15.34375 C 2.605469 15.226562 2.628906 14.824219 2.757812 14.75 C 2.90625 14.660156 29.070312 14.660156 29.234375 14.746094 Z M 30.664062 16.496094 C 30.808594 16.636719 30.808594 19.039062 30.664062 19.179688 C 30.578125 19.265625 29.164062 19.277344 16 19.277344 C 2.835938 19.277344 1.421875 19.265625 1.335938 19.179688 C 1.191406 19.039062 1.191406 16.636719 1.335938 16.496094 C 1.421875 16.410156 2.835938 16.398438 16 16.398438 C 29.164062 16.398438 30.578125 16.410156 30.664062 16.496094 Z M 29.277344 20.332031 C 29.402344 20.453125 29.371094 20.855469 29.234375 20.929688 C 29.070312 21.015625 2.929688 21.015625 2.765625 20.929688 C 2.628906 20.855469 2.597656 20.453125 2.722656 20.332031 C 2.824219 20.226562 29.175781 20.226562 29.277344 20.332031 Z M 5.375 22.363281 L 6.414062 22.824219 L 6.445312 23.976562 C 6.480469 25.199219 6.511719 25.339844 6.824219 25.628906 C 7.316406 26.089844 8.179688 26.039062 8.605469 25.53125 C 8.820312 25.273438 8.894531 24.984375 8.894531 24.402344 C 8.894531 24.148438 8.914062 23.933594 8.945312 23.933594 C 8.96875 23.933594 9.585938 24.195312 10.324219 24.515625 C 11.058594 24.832031 11.699219 25.09375 11.761719 25.09375 C 11.925781 25.09375 12.128906 24.925781 12.265625 24.679688 L 12.378906 24.453125 L 12.386719 24.636719 C 12.394531 24.898438 12.582031 25.292969 12.804688 25.476562 C 13.132812 25.75 13.808594 25.8125 14.195312 25.605469 C 14.378906 25.5 14.636719 25.207031 14.707031 25.015625 C 14.746094 24.917969 14.777344 24.496094 14.777344 24.078125 C 14.777344 23.105469 14.84375 22.953125 15.273438 22.953125 C 15.683594 22.953125 15.683594 22.957031 15.707031 24.917969 L 15.726562 26.667969 L 15.898438 26.921875 C 16.125 27.265625 16.449219 27.421875 16.917969 27.421875 C 17.328125 27.421875 17.472656 27.367188 17.734375 27.121094 C 18.082031 26.804688 18.082031 26.8125 18.082031 24.550781 C 18.082031 22.09375 18.09375 22.03125 18.566406 22.03125 C 18.878906 22.03125 19.003906 22.171875 19.003906 22.546875 L 19.003906 22.859375 L 20.925781 23.976562 C 21.984375 24.59375 22.898438 25.09375 22.953125 25.09375 C 23.085938 25.09375 23.253906 25.003906 23.640625 24.714844 C 23.816406 24.585938 23.976562 24.484375 23.992188 24.484375 C 24.011719 24.484375 24.023438 24.5625 24.023438 24.660156 C 24.023438 24.917969 24.128906 25.15625 24.320312 25.359375 C 24.574219 25.632812 24.800781 25.71875 25.226562 25.726562 C 25.671875 25.726562 25.90625 25.609375 26.191406 25.261719 L 26.382812 25.023438 L 26.402344 23.863281 L 26.417969 22.699219 L 26.953125 22.308594 L 27.484375 21.910156 L 29.738281 21.910156 L 29.695312 22.160156 C 29.671875 22.296875 29.59375 22.570312 29.511719 22.769531 C 28.476562 25.316406 24.269531 27.148438 18.390625 27.605469 C 17.316406 27.691406 14.585938 27.691406 13.542969 27.605469 C 8.222656 27.171875 4.300781 25.660156 2.835938 23.464844 C 2.566406 23.066406 2.367188 22.578125 2.253906 22.074219 L 2.21875 21.910156 L 4.332031 21.910156 Z M 12.570312 21.941406 C 12.570312 22.015625 11.554688 23.992188 11.515625 23.992188 C 11.46875 23.992188 6.792969 21.972656 6.757812 21.933594 C 6.746094 21.921875 8.042969 21.910156 9.648438 21.910156 C 11.257812 21.910156 12.570312 21.921875 12.570312 21.941406 Z M 17.359375 24.1875 C 17.335938 26.738281 17.347656 26.6875 16.925781 26.6875 C 16.445312 26.6875 16.429688 26.621094 16.429688 24.703125 C 16.429688 23.703125 16.402344 23.011719 16.363281 22.910156 C 16.277344 22.675781 16.011719 22.398438 15.773438 22.300781 C 15.664062 22.253906 15.417969 22.214844 15.226562 22.214844 C 14.800781 22.214844 14.425781 22.414062 14.210938 22.75 C 14.082031 22.957031 14.070312 23.066406 14.050781 23.871094 C 14.027344 24.898438 13.996094 24.972656 13.574219 24.972656 C 13.164062 24.972656 13.121094 24.867188 13.121094 23.828125 L 13.121094 22.953125 L 13.34375 22.503906 C 13.464844 22.265625 13.59375 22.027344 13.625 21.984375 C 13.671875 21.929688 14.132812 21.910156 15.535156 21.910156 L 17.378906 21.910156 Z M 25.832031 21.964844 C 25.75 22.03125 23.09375 23.960938 23 24.015625 C 22.921875 24.058594 19.734375 22.246094 19.734375 22.15625 C 19.734375 22.125 19.71875 22.0625 19.699219 22.007812 C 19.664062 21.921875 19.960938 21.910156 22.773438 21.910156 C 24.511719 21.910156 25.859375 21.933594 25.832031 21.964844 Z M 7.699219 23.375 L 8.097656 23.558594 L 8.097656 24.292969 C 8.097656 24.984375 8.09375 25.035156 7.964844 25.121094 C 7.785156 25.242188 7.554688 25.242188 7.375 25.121094 C 7.246094 25.035156 7.242188 24.992188 7.242188 24.109375 C 7.242188 23.605469 7.253906 23.195312 7.273438 23.195312 C 7.289062 23.195312 7.488281 23.277344 7.699219 23.375 Z M 25.585938 24.824219 C 25.511719 24.941406 25.4375 24.972656 25.21875 24.972656 C 24.855469 24.972656 24.757812 24.832031 24.757812 24.300781 L 24.757812 23.902344 L 25.207031 23.578125 L 25.648438 23.257812 L 25.664062 23.96875 C 25.675781 24.53125 25.660156 24.710938 25.585938 24.824219 Z M 25.585938 24.824219 "/>
<path style=" stroke:none;fill-rule:nonzero;fill:rgb(0%,0%,0%);fill-opacity:1;" d="M 11.910156 5.757812 C 11.726562 5.953125 11.730469 6.253906 11.925781 6.445312 C 12.238281 6.761719 12.753906 6.511719 12.753906 6.039062 C 12.753906 5.972656 12.6875 5.851562 12.601562 5.769531 C 12.40625 5.570312 12.09375 5.5625 11.910156 5.757812 Z M 11.910156 5.757812 "/>
<path style=" stroke:none;fill-rule:nonzero;fill:rgb(0%,0%,0%);fill-opacity:1;" d="M 15.664062 5.769531 C 15.355469 6.070312 15.570312 6.597656 16 6.597656 C 16.117188 6.597656 16.246094 6.542969 16.335938 6.445312 C 16.433594 6.351562 16.492188 6.222656 16.492188 6.109375 C 16.492188 5.992188 16.433594 5.863281 16.335938 5.769531 C 16.246094 5.671875 16.117188 5.617188 16 5.617188 C 15.882812 5.617188 15.753906 5.671875 15.664062 5.769531 Z M 15.664062 5.769531 "/>
<path style=" stroke:none;fill-rule:nonzero;fill:rgb(0%,0%,0%);fill-opacity:1;" d="M 19.460938 5.769531 C 19.152344 6.070312 19.378906 6.597656 19.808594 6.597656 C 20.042969 6.597656 20.289062 6.351562 20.289062 6.121094 C 20.289062 5.667969 19.773438 5.453125 19.460938 5.769531 Z M 19.460938 5.769531 "/>
<path style=" stroke:none;fill-rule:nonzero;fill:rgb(0%,0%,0%);fill-opacity:1;" d="M 10.027344 6.855469 C 9.605469 7.222656 10.039062 7.867188 10.578125 7.664062 C 10.691406 7.621094 10.855469 7.328125 10.855469 7.179688 C 10.855469 7.019531 10.519531 6.71875 10.339844 6.71875 C 10.253906 6.71875 10.113281 6.78125 10.027344 6.855469 Z M 10.027344 6.855469 "/>
<path style=" stroke:none;fill-rule:nonzero;fill:rgb(0%,0%,0%);fill-opacity:1;" d="M 13.765625 6.875 C 13.445312 7.1875 13.65625 7.699219 14.09375 7.699219 C 14.320312 7.699219 14.589844 7.46875 14.589844 7.277344 C 14.589844 6.804688 14.078125 6.554688 13.765625 6.875 Z M 13.765625 6.875 "/>
<path style=" stroke:none;fill-rule:nonzero;fill:rgb(0%,0%,0%);fill-opacity:1;" d="M 17.5 6.875 C 17.402344 6.964844 17.347656 7.09375 17.347656 7.210938 C 17.347656 7.328125 17.402344 7.457031 17.5 7.546875 C 17.59375 7.644531 17.722656 7.699219 17.835938 7.699219 C 17.953125 7.699219 18.082031 7.644531 18.175781 7.546875 C 18.273438 7.457031 18.328125 7.328125 18.328125 7.210938 C 18.328125 7.09375 18.273438 6.964844 18.175781 6.875 C 18.082031 6.777344 17.953125 6.71875 17.835938 6.71875 C 17.722656 6.71875 17.59375 6.777344 17.5 6.875 Z M 17.5 6.875 "/>
<path style=" stroke:none;fill-rule:nonzero;fill:rgb(0%,0%,0%);fill-opacity:1;" d="M 21.351562 6.792969 C 21.066406 6.929688 21.011719 7.320312 21.238281 7.546875 C 21.550781 7.867188 22.0625 7.65625 22.0625 7.214844 C 22.0625 6.847656 21.695312 6.628906 21.351562 6.792969 Z M 21.351562 6.792969 "/>
<path style=" stroke:none;fill-rule:nonzero;fill:rgb(0%,0%,0%);fill-opacity:1;" d="M 8.3125 7.761719 C 8.09375 7.847656 8.007812 8.011719 8.03125 8.324219 C 8.050781 8.644531 8.558594 8.789062 8.839844 8.5625 C 9.046875 8.398438 9.035156 8.039062 8.808594 7.847656 C 8.636719 7.695312 8.519531 7.675781 8.3125 7.761719 Z M 8.3125 7.761719 "/>
<path style=" stroke:none;fill-rule:nonzero;fill:rgb(0%,0%,0%);fill-opacity:1;" d="M 12.039062 7.761719 C 11.871094 7.828125 11.773438 8.007812 11.773438 8.238281 C 11.773438 8.648438 12.367188 8.847656 12.625 8.519531 C 12.804688 8.292969 12.785156 8.09375 12.578125 7.878906 C 12.390625 7.695312 12.269531 7.667969 12.039062 7.761719 Z M 12.039062 7.761719 "/>
<path style=" stroke:none;fill-rule:nonzero;fill:rgb(0%,0%,0%);fill-opacity:1;" d="M 15.785156 7.773438 C 15.484375 7.945312 15.425781 8.25 15.640625 8.519531 C 15.90625 8.863281 16.496094 8.644531 16.492188 8.195312 C 16.484375 8.011719 16.390625 7.871094 16.203125 7.773438 C 16.035156 7.683594 15.945312 7.683594 15.785156 7.773438 Z M 15.785156 7.773438 "/>
<path style=" stroke:none;fill-rule:nonzero;fill:rgb(0%,0%,0%);fill-opacity:1;" d="M 19.484375 7.878906 C 19.277344 8.09375 19.257812 8.292969 19.4375 8.519531 C 19.695312 8.847656 20.289062 8.648438 20.289062 8.238281 C 20.289062 7.996094 20.226562 7.890625 20.035156 7.792969 C 19.792969 7.664062 19.6875 7.675781 19.484375 7.878906 Z M 19.484375 7.878906 "/>
<path style=" stroke:none;fill-rule:nonzero;fill:rgb(0%,0%,0%);fill-opacity:1;" d="M 23.257812 7.773438 C 22.785156 8.03125 22.945312 8.679688 23.484375 8.679688 C 23.9375 8.679688 24.121094 8.152344 23.773438 7.859375 C 23.570312 7.6875 23.449219 7.667969 23.257812 7.773438 Z M 23.257812 7.773438 "/>
<path style=" stroke:none;fill-rule:nonzero;fill:rgb(0%,0%,0%);fill-opacity:1;" d="M 10.132812 8.773438 C 9.9375 8.859375 9.875 8.96875 9.875 9.230469 C 9.875 9.496094 10.066406 9.683594 10.328125 9.683594 C 10.621094 9.683594 10.816406 9.496094 10.816406 9.207031 C 10.816406 8.828125 10.492188 8.625 10.132812 8.773438 Z M 10.132812 8.773438 "/>
<path style=" stroke:none;fill-rule:nonzero;fill:rgb(0%,0%,0%);fill-opacity:1;" d="M 13.878906 8.765625 C 13.679688 8.859375 13.609375 8.96875 13.609375 9.199219 C 13.609375 9.425781 13.671875 9.539062 13.863281 9.636719 C 14.082031 9.746094 14.308594 9.695312 14.46875 9.496094 C 14.628906 9.285156 14.621094 9.089844 14.457031 8.902344 C 14.273438 8.703125 14.113281 8.667969 13.878906 8.765625 Z M 13.878906 8.765625 "/>
<path style=" stroke:none;fill-rule:nonzero;fill:rgb(0%,0%,0%);fill-opacity:1;" d="M 17.679688 8.742188 C 17.496094 8.816406 17.347656 9.042969 17.347656 9.238281 C 17.347656 9.425781 17.648438 9.722656 17.835938 9.722656 C 17.898438 9.722656 18.035156 9.648438 18.136719 9.5625 C 18.371094 9.371094 18.390625 9.121094 18.191406 8.902344 C 18.027344 8.722656 17.855469 8.667969 17.679688 8.742188 Z M 17.679688 8.742188 "/>
<path style=" stroke:none;fill-rule:nonzero;fill:rgb(0%,0%,0%);fill-opacity:1;" d="M 21.414062 8.742188 C 21.242188 8.808594 21.082031 9.035156 21.082031 9.207031 C 21.082031 9.386719 21.292969 9.636719 21.480469 9.683594 C 21.660156 9.726562 21.964844 9.59375 22.027344 9.445312 C 22.132812 9.171875 21.972656 8.742188 21.761719 8.742188 C 21.734375 8.742188 21.671875 8.730469 21.621094 8.71875 C 21.578125 8.699219 21.480469 8.710938 21.414062 8.742188 Z M 21.414062 8.742188 "/>
</g>
</svg>
