<svg xmlns="http://www.w3.org/2000/svg" width="32" height="32" viewBox="0 0 32 32"><path d="M14.59 3.387c-2.05.172-3.078.332-4.426.675-2.492.637-4.539 1.692-6.012 3.094-1.757 1.672-2.648 3.649-2.851 6.258-.07.934-.02 1.172.262 1.238.125.036.14.075.136.403v.363l-.215.035c-.32.05-.644.203-.82.387-.312.324-.344.504-.344 2.008 0 1.226.02 1.43.117 1.648.16.352.512.625.922.711l.34.066v.356c.004.32-.012.355-.137.394-.074.016-.183.114-.238.22-.078.167-.086.265-.031.698.094.672.215 1.07.504 1.622.637 1.234 2.02 2.378 3.84 3.187 5.144 2.297 13.566 2.516 19.398.508 3.45-1.188 5.469-3.13 5.649-5.422.035-.5-.04-.734-.27-.809-.094-.03-.113-.101-.113-.39v-.364l.34-.066c.41-.086.765-.36.922-.71.097-.22.117-.423.117-1.661 0-1.234-.02-1.438-.117-1.66-.13-.285-.5-.617-.75-.664-.094-.02-.247-.043-.344-.063-.16-.031-.168-.05-.168-.398 0-.203.02-.367.05-.367.024 0 .118-.067.196-.153.137-.129.152-.203.152-.594 0-.546-.09-1.386-.219-2.011-.968-4.68-5.078-7.625-11.753-8.422-.75-.09-3.524-.172-4.137-.117zm3.816 1.043c3.094.304 5.692 1.152 7.668 2.5.696.465 1.813 1.574 2.238 2.203.813 1.219 1.286 2.62 1.434 4.246l.035.387H2.2l.043-.508c.215-2.574 1.442-4.738 3.535-6.25.649-.465 2.262-1.285 3.082-1.574 2.829-.98 6.239-1.34 9.547-1.004zm10.828 10.316c.137.07.168.477.043.598-.101.105-26.453.105-26.554 0-.118-.117-.094-.52.035-.594.148-.09 26.312-.09 26.476-.004zm1.43 1.75c.145.14.145 2.543 0 2.684-.086.086-1.5.097-14.664.097s-14.578-.011-14.664-.097c-.145-.14-.145-2.543 0-2.684.086-.086 1.5-.098 14.664-.098s14.578.012 14.664.098zm-1.387 3.836c.125.121.094.523-.043.598-.164.086-26.304.086-26.468 0-.137-.075-.168-.477-.043-.598.101-.105 26.453-.105 26.554 0zM5.375 22.363l1.04.461.03 1.153c.035 1.222.067 1.363.38 1.652.491.46 1.355.41 1.78-.098.215-.258.29-.547.29-1.129 0-.254.02-.468.05-.468.024 0 .64.261 1.38.582.734.316 1.374.578 1.437.578.164 0 .367-.168.504-.414l.113-.227.008.184c.008.261.195.656.418.84.328.273 1.004.335 1.39.128.184-.105.442-.398.512-.59.04-.097.07-.519.07-.937 0-.973.067-1.125.496-1.125.41 0 .41.004.434 1.965l.02 1.75.171.254c.227.344.551.5 1.02.5.41 0 .555-.055.816-.3.348-.317.348-.31.348-2.571 0-2.457.012-2.52.484-2.52.313 0 .438.14.438.516v.312l1.922 1.118c1.058.617 1.972 1.117 2.027 1.117.133 0 .3-.09.688-.38.175-.128.336-.23.351-.23.02 0 .031.078.031.176 0 .258.106.496.297.7.254.273.48.359.907.367.445 0 .68-.118.964-.465l.192-.239.02-1.16.015-1.164.535-.39.531-.399h2.254l-.043.25c-.023.137-.101.41-.183.61-1.035 2.546-5.242 4.378-11.121 4.835-1.075.086-3.805.086-4.848 0-5.32-.433-9.242-1.945-10.707-4.14a4.131 4.131 0 01-.582-1.39l-.035-.165h2.113zm7.195-.422c0 .075-1.015 2.051-1.054 2.051-.047 0-4.723-2.02-4.758-2.058-.012-.012 1.285-.024 2.89-.024 1.61 0 2.922.012 2.922.031zm4.79 2.247c-.024 2.55-.012 2.5-.434 2.5-.48 0-.496-.067-.496-1.985 0-1-.028-1.691-.067-1.793a1.21 1.21 0 00-.59-.61 1.724 1.724 0 00-.546-.085c-.426 0-.801.2-1.016.535-.129.207-.14.316-.16 1.121-.024 1.027-.055 1.102-.477 1.102-.41 0-.453-.106-.453-1.145v-.875l.223-.45c.12-.237.25-.476.281-.519.047-.054.508-.074 1.91-.074h1.844zm8.472-2.223c-.082.066-2.738 1.996-2.832 2.05-.078.044-3.266-1.769-3.266-1.859a.563.563 0 00-.035-.148c-.035-.086.262-.098 3.074-.098 1.739 0 3.086.024 3.059.055zm-18.133 1.41l.399.184v.734c0 .691-.004.742-.133.828a.524.524 0 01-.59 0c-.129-.086-.133-.129-.133-1.012 0-.504.012-.914.031-.914.016 0 .215.082.426.18zm17.887 1.45c-.074.116-.148.148-.367.148-.364 0-.461-.141-.461-.672v-.399l.449-.324.441-.32.016.71c.012.563-.004.743-.078.856zm0 0"/><path d="M11.91 5.758a.487.487 0 00.016.687c.312.317.828.067.828-.406 0-.066-.066-.187-.152-.27a.478.478 0 00-.692-.011zm0 0M15.664 5.77a.483.483 0 00.336.828.47.47 0 00.336-.153.49.49 0 00.156-.336.491.491 0 00-.156-.34.47.47 0 00-.336-.152.47.47 0 00-.336.153zm0 0M19.46 5.77c-.308.3-.081.828.349.828.234 0 .48-.246.48-.477a.48.48 0 00-.828-.351zm0 0M10.027 6.855c-.422.368.012 1.012.551.81.113-.044.277-.337.277-.485 0-.16-.335-.461-.515-.461a.58.58 0 00-.313.136zm0 0M13.766 6.875a.474.474 0 00.328.824c.226 0 .496-.23.496-.422 0-.472-.512-.722-.824-.402zm0 0M17.5 6.875a.47.47 0 00-.152.336.47.47 0 00.152.336.485.485 0 00.336.152.486.486 0 00.34-.152.47.47 0 00.152-.336.47.47 0 00-.152-.336.491.491 0 00-.34-.156.49.49 0 00-.336.156zm0 0M21.352 6.793c-.286.137-.34.527-.114.754.313.32.825.11.825-.332 0-.367-.368-.586-.711-.422zm0 0M8.313 7.762c-.22.086-.305.25-.282.562.02.32.528.465.809.239.207-.165.195-.524-.031-.715-.172-.153-.29-.172-.496-.086zm0 0M12.04 7.762c-.169.066-.267.246-.267.476 0 .41.594.61.852.282.18-.227.16-.426-.047-.641-.187-.184-.308-.211-.539-.117zm0 0M15.785 7.773c-.3.172-.36.477-.144.747.265.343.855.125.851-.325-.008-.183-.101-.324-.289-.422-.168-.09-.258-.09-.418 0zm0 0M19.484 7.879c-.207.215-.226.414-.047.64.258.329.852.13.852-.28 0-.243-.062-.348-.254-.446-.242-.129-.348-.117-.55.086zm0 0M23.258 7.773c-.473.258-.313.907.226.907.453 0 .637-.528.29-.82-.204-.173-.325-.192-.516-.087zm0 0M10.133 8.773c-.195.086-.258.196-.258.457 0 .266.191.454.453.454.293 0 .488-.188.488-.477 0-.379-.324-.582-.683-.434zm0 0M13.879 8.766c-.2.093-.27.203-.27.433 0 .227.063.34.254.438.219.11.446.058.606-.14.16-.212.152-.407-.012-.595-.184-.199-.344-.234-.578-.136zm0 0M17.68 8.742a.581.581 0 00-.332.496c0 .188.3.485.488.485.062 0 .2-.075.3-.16.235-.192.255-.442.055-.66-.164-.18-.336-.235-.511-.16zm0 0M21.414 8.742c-.172.067-.332.293-.332.465 0 .18.211.43.398.477.18.043.485-.09.547-.239.106-.273-.054-.703-.265-.703a.865.865 0 01-.14-.023c-.044-.02-.142-.008-.208.023zm0 0"/></svg>