<svg width="20" height="16" fill="none" xmlns="http://www.w3.org/2000/svg"><path fill-rule="evenodd" clip-rule="evenodd" d="M10 12.015c-1.508 0-2.736-1.201-2.736-2.676 0-1.476 1.228-2.677 2.736-2.677 1.508 0 2.736 1.201 2.736 2.677 0 1.475-1.228 2.676-2.736 2.676zm0-6.46c-2.133 0-3.868 1.698-3.868 3.784S7.867 13.122 10 13.122s3.868-1.697 3.868-3.783S12.133 5.555 10 5.555zm8.868 7.842c0 .826-.687 1.496-1.531 1.496H2.663c-.844 0-1.53-.67-1.53-1.496V5.423c0-.825.686-1.496 1.53-1.496H4.75c.675 0 1.284-.417 1.516-1.04l.547-1.47a.482.482 0 01.453-.31h5.468c.202 0 .385.125.454.311l.546 1.47a1.619 1.619 0 001.516 1.039h2.087c.844 0 1.53.671 1.53 1.496v7.974zM17.337 2.82H15.25a.485.485 0 01-.453-.31l-.545-1.47A1.617 1.617 0 0012.734 0H7.266c-.677 0-1.288.418-1.517 1.04l-.546 1.468a.485.485 0 01-.453.312H2.663C1.194 2.82 0 3.988 0 5.423v7.974C0 14.833 1.194 16 2.663 16h14.674C18.806 16 20 14.833 20 13.397V5.423c0-1.435-1.194-2.603-2.663-2.603z" fill="#757575"/></svg>