<svg xmlns="http://www.w3.org/2000/svg" viewBox="0 0 400.765 400.765"><path d="M249.043 98.146c-22.642-10.749-48.141-13.573-72.28-8.464-5.186 24.522-1.994 49.87 8.492 72.061 13.341-25.144 33.334-50.125 63.788-63.597z" fill="#58c6c6"/><path d="M129.516 112.081a114.058 114.058 0 00-9.197 8.243c-12.864 12.864-22.251 28.276-27.689 45.101 24.046 21.643 56.277 31.901 88.101 28.477-24.056-20.1-44.654-51.581-51.215-81.821z" fill="#f98fd1"/><path d="M94.324 301.914a10.046 10.046 0 01-1.508-1.928 136.087 136.087 0 01-12.73-12.73 10.012 10.012 0 01-1.956-1.532c-6.056.961-13.847 2.732-23.873 5.801-10.879 3.33-21.299 7.26-28.798 10.267 1.277 2.611 2.058 4.978 2.763 7.118 1.294 3.922 2.148 6.514 6.3 10.665 4.152 4.152 6.744 5.007 10.667 6.301 4.913 1.621 11.029 3.638 18.543 11.151 7.515 7.515 9.532 13.631 11.153 18.545 1.294 3.923 2.149 6.516 6.302 10.668.27.27.533.525.791.768 2.39-6.306 5.004-13.668 7.326-21.256 11.318-36.981 5.085-43.773 5.02-43.838z" fill="#fdffd0"/><path d="M116.286 276.202c26.595-8.662 48.871-26.881 62.777-50.577-38.521 8.066-68.488-1.858-91.896-24.449.04 5.786.508 11.504 1.395 17.117.074.325.12.612.141.864 3.519 21.211 12.986 40.893 27.583 57.045z" fill="#f24646"/><path d="M195.734 236.719c-14.516 24.252-36.521 43.526-62.831 54.613 19.403 14.461 42.839 22.276 67.478 22.276.621 0 1.239-.014 1.858-.024 7.19-29.759 4.851-55.012-6.505-76.865z" fill="#58c6c6"/><path d="M219.765 206.897c-.145.016-.291.027-.436.044 21.016 27.73 30.416 62.843 26.069 97.4 12.917-5.597 24.79-13.641 35.043-23.895a112.963 112.963 0 0018.616-24.527c-17.42-25.747-50.568-44.426-79.292-49.022z" fill="#f98fd1"/><path d="M229.08 186.267c.998-.022 1.996-.046 2.993-.046 28.959 0 57.44 9.447 80.746 27.083 3.019-26.494-3.277-53.853-18.884-76.719-28.622 9.616-50.734 27.312-64.855 49.682z" fill="#f24646"/><path d="M355.368 98.217c-1.277-2.612-2.059-4.979-2.765-7.119-1.294-3.923-2.148-6.516-6.302-10.668-4.152-4.153-6.744-5.008-10.668-6.302-4.914-1.621-11.03-3.639-18.545-11.153-7.514-7.514-9.531-13.63-11.152-18.544-1.294-3.922-2.148-6.514-6.3-10.665-.268-.268-.53-.522-.786-.764-2.39 6.306-5.004 13.668-7.326 21.256-11.319 36.981-5.086 43.773-5.021 43.837a10.03 10.03 0 011.514 1.938 134.344 134.344 0 016.688 6.265 136.288 136.288 0 016.038 6.458 10.065 10.065 0 011.954 1.531c6.056-.961 13.847-2.733 23.873-5.802 10.878-3.33 21.299-7.261 28.798-10.268z" fill="#fdffd0"/><path d="M397.837 96.257c-4.153-4.152-5.008-6.745-6.302-10.668-1.622-4.914-3.64-11.03-11.153-18.545-7.515-7.514-13.631-9.532-18.545-11.153-3.924-1.294-6.516-2.149-10.668-6.302-4.152-4.152-5.007-6.743-6.301-10.667-1.621-4.913-3.639-11.029-11.151-18.543-7.514-7.513-13.63-9.53-18.544-11.151-3.922-1.294-6.514-2.148-10.664-6.299a10 10 0 00-16.19 2.967c-.369.82-9.116 20.335-15.864 42.333-4.334 14.128-6.843 25.916-7.528 35.589-30.124-16.662-65.382-20.78-98.043-12.35a9.98 9.98 0 00-1.907.507c-21.551 5.904-41.9 17.306-58.798 34.205-25.163 25.162-39.02 58.617-39.02 94.203.001 22.951 5.767 45.019 16.611 64.545-9.664.691-21.437 3.199-35.538 7.525-21.998 6.748-41.514 15.495-42.333 15.864a10 10 0 00-2.967 16.19c4.151 4.151 5.006 6.743 6.299 10.665 1.621 4.914 3.638 11.03 11.151 18.543 7.514 7.514 13.63 9.531 18.544 11.152 3.923 1.294 6.514 2.149 10.665 6.3 4.153 4.152 5.008 6.745 6.302 10.668 1.621 4.915 3.639 11.03 11.153 18.544 7.515 7.515 13.631 9.532 18.545 11.153 3.923 1.294 6.516 2.149 10.668 6.302a9.994 9.994 0 008.874 2.765 10 10 0 007.317-5.732c.369-.82 9.116-20.335 15.864-42.333 4.326-14.102 6.834-25.874 7.525-35.538 19.527 10.846 41.592 16.61 64.545 16.61 35.585 0 69.04-13.857 94.202-39.019 25.163-25.164 39.022-58.62 39.022-94.206.001-22.954-5.763-45.02-16.608-64.547 9.664-.691 21.436-3.199 35.538-7.525 21.998-6.748 41.514-15.495 42.334-15.864a10.001 10.001 0 005.732-7.317c.59-3.23-.444-6.547-2.767-8.871zM312.82 213.304c-23.307-17.636-51.787-27.083-80.746-27.083-.997 0-1.995.024-2.993.046-4.515.102-9.038.421-13.549.987 12.857-29.564 37.982-52.601 68.951-62.686a113.005 113.005 0 019.454 12.017c15.606 22.866 21.902 50.225 18.883 76.719zM87.166 201.176c-.002-.264-.009-.528-.009-.793 0-4.362.245-8.687.729-12.957 27.747 21.018 62.84 30.424 97.346 26.092a112.755 112.755 0 01-6.169 12.107c-13.906 23.696-36.182 41.914-62.777 50.577-14.596-16.152-24.064-35.834-27.584-57.044a114.732 114.732 0 01-1.536-17.982zm98.089-39.432c-10.486-22.191-13.678-47.539-8.492-72.061 24.14-5.109 49.639-2.286 72.28 8.464a112.159 112.159 0 0118.808 11.297c-32.078 13.521-57.768 39.208-71.268 71.257a113.13 113.13 0 01-11.328-18.957zm-3.821 32.088c-.234.027-.469.045-.703.071-31.824 3.424-64.055-6.834-88.101-28.477 5.438-16.825 14.825-32.237 27.689-45.101a114.018 114.018 0 019.197-8.243 112.338 112.338 0 0125.84-15.588c-4.327 34.536 5.075 69.624 26.078 97.338zM109.24 346.508c-3.329 10.878-7.26 21.299-10.267 28.797-2.612-1.277-4.979-2.058-7.119-2.764-3.668-1.21-6.173-2.038-9.877-5.534a36.782 36.782 0 01-.791-.768c-4.153-4.152-5.008-6.745-6.302-10.668-1.621-4.914-3.639-11.03-11.153-18.545-7.514-7.513-13.629-9.53-18.543-11.151-3.923-1.294-6.515-2.149-10.667-6.301-4.151-4.151-5.006-6.743-6.3-10.665-.705-2.14-1.486-4.506-2.763-7.118 7.499-3.006 17.919-6.937 28.798-10.267 10.026-3.069 17.818-4.84 23.873-5.801 16.281-2.584 19.917.734 19.964.78a10.012 10.012 0 001.929 1.508 136.178 136.178 0 0012.73 12.73c.413.688.916 1.336 1.508 1.928.066.066 6.299 6.858-5.02 43.839zm114.744-35.349a114.107 114.107 0 01-21.745 2.425c-.619.01-1.237.024-1.858.024-24.639 0-48.075-7.815-67.478-22.276 26.31-11.087 48.315-30.361 62.831-54.613a132.944 132.944 0 008.445-16.646c19.184 25.925 26.568 59.212 19.805 91.086zm75.073-55.239a112.963 112.963 0 01-18.616 24.527c-10.253 10.254-22.126 18.298-35.043 23.895 4.347-34.557-5.054-69.67-26.069-97.4.145-.016.291-.028.436-.044 31.884-3.507 64.202 6.729 88.311 28.399a112.564 112.564 0 01-9.019 20.623zm47.45-146.679c-35.813 10.962-43.314 5.462-43.81 5.045a10.065 10.065 0 00-1.954-1.531 136.288 136.288 0 00-12.726-12.723 10.06 10.06 0 00-1.514-1.938c-.065-.064-6.298-6.856 5.021-43.837 2.322-7.588 4.936-14.95 7.326-21.256a417.06 417.06 0 012.941-7.542c2.61 1.276 4.978 2.057 7.117 2.763 3.923 1.294 6.514 2.148 10.665 6.3 4.151 4.151 5.006 6.743 6.3 10.665 1.621 4.914 3.639 11.03 11.152 18.544 7.515 7.514 13.631 9.532 18.545 11.153 3.924 1.294 6.516 2.149 10.668 6.302 4.153 4.152 5.008 6.745 6.302 10.668.706 2.14 1.487 4.507 2.765 7.119-7.499 3.008-17.92 6.938-28.798 10.268z"/></svg>