<svg xmlns="http://www.w3.org/2000/svg" viewBox="0 0 512.165 512.165"><path d="M371.283 95.738c6.827-15.36 25.6-23.893 41.813-18.773 18.773 6.827 28.16 28.16 20.48 45.227l-3.413 7.68c-7.68 16.213 0 36.693 17.067 44.373s36.693.853 44.373-16.213l3.413-7.68c23.893-52.907-2.56-116.053-60.587-136.533-49.493-17.067-104.107 7.68-125.44 54.613L130.643 455.845c-7.68 16.213 0 36.693 17.067 44.373s36.693.853 44.373-16.213l179.2-388.267z" fill="#ffdd09"/><path d="M434.429 14.672c-15.36-5.12-30.72-6.827-46.08-5.12 6.827.853 13.653 2.56 20.48 5.12 57.173 20.48 84.48 83.627 60.587 136.533l-3.413 7.68c-3.413 7.68-10.24 13.653-17.067 16.213 17.067 6.827 35.84 0 42.667-16.213l3.413-7.68c23.893-52.907-3.413-116.907-60.587-136.533" fill="#fd9808"/><g fill="#ffdd09"><path d="M140.883 95.738l77.653 168.96 37.547-81.067-52.907-115.2c-21.333-46.933-75.947-71.68-125.44-53.76-57.173 20.48-84.48 83.627-60.587 136.533l3.413 7.68c7.68 16.213 27.307 23.893 44.373 16.213s24.747-27.307 17.067-44.373l-3.413-7.68c-7.68-17.92 1.707-39.253 20.48-46.08 17.067-5.972 34.987 2.561 41.814 18.774M293.629 264.698l-37.547 81.067 63.147 138.24c7.68 16.213 27.307 23.893 44.373 16.213 17.067-7.68 24.747-27.307 17.067-44.373l-87.04-191.147z"/></g><path d="M77.736 14.672c15.36-5.12 30.72-6.827 46.08-5.12-6.827.853-13.653 2.56-20.48 5.12-57.173 19.627-84.48 83.627-60.587 136.533l3.413 7.68c3.413 7.68 10.24 13.653 17.067 16.213-16.213 6.827-35.84 0-42.667-16.213l-3.413-7.68C-6.744 98.298 20.563 34.298 77.736 14.672" fill="#fff"/><path d="M429.309 138.405c-.853 0-2.56 0-3.413-.853-4.267-1.707-5.973-6.827-4.267-11.093 3.413-6.827 9.387-11.947 17.92-15.36 17.067-5.973 41.813-3.413 66.56 7.68 4.267 1.707 5.973 6.827 4.267 11.093-1.707 4.267-6.827 5.973-11.093 4.267-19.627-9.387-40.96-11.947-52.907-7.68-4.267 1.707-6.827 3.413-7.68 5.973-2.56 4.266-5.973 5.973-9.387 5.973zM422.483 90.618c-.853 0-2.56 0-3.413-.853-4.267-1.707-5.973-6.827-4.267-11.093 5.973-13.653 17.067-23.893 30.72-29.013 15.36-5.973 32.427-5.12 47.787 2.56 4.267 1.707 5.973 6.827 4.267 11.093-1.707 4.267-6.827 5.973-11.093 4.267-11.093-5.12-23.893-5.973-34.133-1.707-9.387 3.413-17.067 10.24-21.333 20.48-1.709 2.56-5.122 4.266-8.535 4.266zM397.736 83.792c-.853 0-2.56 0-3.413-.853-23.893-11.093-31.573-42.667-17.067-74.24 1.707-4.267 6.827-5.973 11.093-4.267 4.267 2.56 6.827 7.68 4.267 11.947-10.24 21.333-6.827 45.227 8.533 52.053 4.267 1.707 5.973 6.827 4.267 11.093-1.707 2.56-4.267 4.267-7.68 4.267zM353.363 141.818c-.853 0-2.56 0-3.413-.853-36.693-17.067-52.907-59.733-36.693-95.573 2.56-4.267 6.827-5.973 11.093-4.267 4.267 1.707 5.973 6.827 4.267 11.093-12.8 27.307 0 59.733 28.16 72.533 4.267 1.707 5.973 6.827 4.267 11.093-1.708 4.268-4.268 5.974-7.681 5.974zM310.696 235.685c-.853 0-2.56 0-3.413-.853-37.547-17.067-55.467-62.293-39.253-98.133 1.707-4.267 6.827-5.973 11.093-4.267s5.973 6.827 4.267 11.093c-12.8 27.307 1.707 62.293 30.72 75.947 4.267 1.707 5.973 6.827 4.267 11.093-1.708 2.56-4.268 5.12-7.681 5.12zM273.149 318.458c-.853 0-2.56 0-3.413-.853-38.4-17.92-56.32-60.587-40.107-95.573 1.707-4.267 6.827-5.973 11.093-4.267 4.267 1.707 5.973 6.827 4.267 11.093-11.947 26.453 1.707 59.733 31.573 73.387 4.267 1.707 5.973 6.827 4.267 11.093-1.706 2.56-5.12 5.12-7.68 5.12zM233.043 404.645c-.853 0-2.56 0-3.413-.853-39.253-17.92-57.173-58.027-41.813-92.16 1.707-4.267 6.827-5.973 11.093-4.267 4.267 1.707 5.973 6.827 4.267 11.093-13.653 29.013 7.68 57.173 33.28 69.973 4.267 1.707 5.973 6.827 4.267 11.093-.855 3.414-4.268 5.121-7.681 5.121zM193.789 490.832c-.853 0-2.56 0-3.413-.853-38.4-17.92-56.32-60.587-40.107-96.427 1.707-4.267 6.827-5.973 11.093-4.267s5.973 6.827 4.267 11.093c-11.947 26.453 2.56 60.587 31.573 74.24 4.267 1.707 5.973 6.827 4.267 11.093-1.706 3.414-4.266 5.121-7.68 5.121z"/><path d="M162.216 512.165c-5.973 0-11.947-1.707-17.92-4.267-21.333-9.387-30.72-34.987-21.333-55.467L301.309 65.018c23.893-51.2 83.627-76.8 136.533-58.027 29.013 10.24 53.76 32.427 65.707 61.44 11.947 28.16 11.093 58.88-.853 86.187l-3.413 7.68c-4.267 10.24-12.8 17.92-23.04 21.333-10.24 4.267-22.187 3.413-32.427-1.707-21.333-9.387-30.72-34.987-21.333-55.467l3.413-7.68c2.56-5.973 2.56-12.8 0-19.627-2.56-6.827-8.533-11.947-15.36-14.507-11.947-4.267-25.6 1.707-31.573 13.653L200.616 488.272c-4.267 10.24-12.8 17.92-23.04 21.333-5.12 1.707-10.24 2.56-15.36 2.56zM401.149 17.232c-35.84 0-69.973 20.48-85.333 54.613l-176.64 388.267c-5.973 11.947 0 27.307 12.8 33.28 5.973 2.56 13.653 3.413 19.627.853 5.973-2.56 11.093-6.827 13.653-12.8L362.749 91.472c9.387-19.627 32.427-29.867 52.907-23.04 11.093 4.267 20.48 12.8 25.6 23.893 4.267 11.093 4.267 23.04 0 33.28l-3.413 7.68c-5.973 11.947 0 27.307 12.8 33.28 5.973 2.56 13.653 3.413 19.627.853 5.973-2.56 11.093-6.827 13.653-12.8l3.413-7.68c10.24-23.04 10.24-48.64.853-72.533-10.24-24.747-30.72-43.52-56.32-52.053-10.24-3.414-20.48-5.12-30.72-5.12zM79.443 137.552c-3.413 0-5.973-1.707-7.68-5.12-.853-2.56-4.267-5.12-7.68-5.973-11.947-4.267-31.573-1.707-51.2 7.68-4.267 1.707-9.387 0-10.24-4.267-.853-4.267 0-9.387 4.267-11.093 23.04-11.093 47.787-14.507 64-7.68 8.533 3.413 13.653 8.533 17.067 15.36 1.707 4.267 0 9.387-4.267 11.093h-4.267zM89.683 90.618c-3.413 0-6.827-1.707-7.68-5.12-4.267-9.387-11.947-16.213-21.333-19.627-11.093-4.267-23.04-3.413-34.987 1.707-4.267 1.707-9.387 0-11.093-4.267s0-9.387 4.267-11.093c15.36-7.68 32.427-8.533 47.787-2.56 13.653 5.12 24.747 15.36 30.72 29.013 1.707 4.267 0 9.387-4.267 11.093-.854.854-2.561.854-3.414.854zM114.429 83.792c-3.413 0-5.973-1.707-7.68-5.12-1.707-4.267 0-9.387 4.267-11.093 14.507-6.827 18.773-31.573 8.533-53.76-1.707-4.267 0-9.387 4.267-11.093 4.267-1.707 9.387 0 11.093 4.267 14.507 31.573 7.68 65.707-17.067 76.8l-3.413-.001zM158.803 141.818c-3.413 0-5.973-1.707-7.68-5.12-1.707-4.267 0-9.387 4.267-11.093 28.16-12.8 40.96-46.08 28.16-73.387-1.707-4.267 0-9.387 4.267-11.093 4.267-1.707 9.387 0 11.093 4.267 16.213 35.84 0 79.36-36.693 96.427l-3.414-.001zM193.789 219.472c-3.413 0-5.973-1.707-7.68-5.12-1.707-4.267 0-9.387 4.267-11.093 28.16-12.8 41.813-50.347 29.013-78.507-1.707-4.267 0-9.387 4.267-11.093 4.267-1.707 9.387 0 11.093 4.267 17.067 36.693-.853 83.627-37.547 100.693-.853.853-1.706.853-3.413.853z"/><path d="M279.123 404.645c-3.413 0-5.973-1.707-7.68-5.12-1.707-4.267 0-9.387 4.267-11.093 26.453-11.947 46.933-40.107 33.28-69.973-1.707-4.267 0-9.387 4.267-11.093s9.387 0 11.093 4.267c15.36 34.133-2.56 74.24-41.813 92.16-.854-.001-2.561.852-3.414.852zM318.376 490.832c-3.413 0-5.973-1.707-7.68-5.12-1.707-4.267 0-9.387 4.267-11.093 29.013-13.653 43.52-46.933 31.573-73.387-1.707-4.267 0-9.387 4.267-11.093 4.267-1.707 9.387 0 11.093 4.267 16.213 35.84-1.707 78.507-40.107 96.427-.853-.855-2.56-.001-3.413-.001zM218.536 273.232c-3.413 0-5.973-1.707-7.68-5.12l-77.653-168.96c-5.12-11.947-19.627-17.92-31.573-13.653-6.827 2.56-12.8 7.68-15.36 14.507-2.56 6.827-2.56 13.653 0 19.627l3.413 7.68c9.387 20.48 0 46.08-21.333 55.467-10.24 5.12-22.187 5.12-32.427 1.707-10.24-5.12-17.92-12.8-23.04-22.187l-3.413-7.68c-11.947-27.307-12.8-58.88-.853-86.187 11.947-29.013 35.84-51.2 65.707-62.293 53.76-18.773 113.493 6.827 136.533 58.88l52.907 114.347c.853 2.56.853 5.12 0 6.827l-37.547 81.067c-.854 4.264-4.268 5.971-7.681 5.971zm-69.12-181.76l69.973 151.893 28.16-60.587-51.2-110.933c-19.627-43.52-70.827-64.853-115.2-49.493-25.6 9.387-46.08 28.16-56.32 52.053-10.24 23.04-9.387 49.493.853 72.533l3.413 7.68c2.56 5.973 7.68 10.24 13.653 12.8 5.973 2.56 13.653 1.707 19.627-.853 12.8-5.973 18.773-20.48 12.8-33.28l-3.413-7.68c-5.12-10.24-5.12-23.04 0-33.28 5.12-11.093 13.653-19.627 25.6-23.893 19.627-6.827 42.667 3.413 52.054 23.04z"/><path d="M349.949 512.165c-5.12 0-10.24-.853-14.507-2.56-10.24-3.413-18.773-11.093-23.04-21.333l-64-138.24c-.853-2.56-.853-5.12 0-6.827l37.547-81.067c1.707-3.413 4.267-5.12 7.68-5.12 3.413 0 5.973 1.707 7.68 5.12l87.893 190.293c9.387 20.48 0 46.08-21.333 55.467-5.973 2.56-11.946 4.267-17.92 4.267zm-84.48-166.4l61.44 134.827c2.56 5.973 7.68 10.24 13.653 12.8 6.827 2.56 13.653 1.707 19.627-.853 12.8-5.973 18.773-20.48 12.8-33.28l-80.213-174.933-27.307 61.439z"/></svg>