<?xml version="1.0" encoding="iso-8859-1"?>
<!-- Generator: Adobe Illustrator 19.0.0, SVG Export Plug-In . SVG Version: 6.00 Build 0)  -->
<svg version="1.1" id="Layer_1" xmlns="http://www.w3.org/2000/svg" xmlns:xlink="http://www.w3.org/1999/xlink" x="0px" y="0px"
	 viewBox="0 0 512.165 512.165" style="enable-background:new 0 0 512.165 512.165;" xml:space="preserve">
<g transform="translate(1 1)">
	<path style="fill:#FFDD09;" d="M370.283,94.738c6.827-15.36,25.6-23.893,41.813-18.773c18.773,6.827,28.16,28.16,20.48,45.227
		l-3.413,7.68c-7.68,16.213,0,36.693,17.067,44.373c17.067,7.68,36.693,0.853,44.373-16.213l3.413-7.68
		c23.893-52.907-2.56-116.053-60.587-136.533c-49.493-17.067-104.107,7.68-125.44,54.613L129.643,454.845
		c-7.68,16.213,0,36.693,17.067,44.373s36.693,0.853,44.373-16.213L370.283,94.738z"/>
	<path style="fill:#FD9808;" d="M433.429,13.672c-15.36-5.12-30.72-6.827-46.08-5.12c6.827,0.853,13.653,2.56,20.48,5.12
		c57.173,20.48,84.48,83.627,60.587,136.533l-3.413,7.68c-3.413,7.68-10.24,13.653-17.067,16.213
		c17.067,6.827,35.84,0,42.667-16.213l3.413-7.68C517.909,97.298,490.603,33.298,433.429,13.672"/>
	<g>
		<path style="fill:#FFDD09;" d="M139.883,94.738l77.653,168.96l37.547-81.067l-52.907-115.2
			c-21.333-46.933-75.947-71.68-125.44-53.76c-57.173,20.48-84.48,83.627-60.587,136.533l3.413,7.68
			c7.68,16.213,27.307,23.893,44.373,16.213s24.747-27.307,17.067-44.373l-3.413-7.68c-7.68-17.92,1.707-39.253,20.48-46.08
			C115.136,69.992,133.056,78.525,139.883,94.738"/>
		<path style="fill:#FFDD09;" d="M292.629,263.698l-37.547,81.067l63.147,138.24c7.68,16.213,27.307,23.893,44.373,16.213
			c17.067-7.68,24.747-27.307,17.067-44.373L292.629,263.698z"/>
	</g>
	<path style="fill:#FFFFFF;" d="M76.736,13.672c15.36-5.12,30.72-6.827,46.08-5.12c-6.827,0.853-13.653,2.56-20.48,5.12
		c-57.173,19.627-84.48,83.627-60.587,136.533l3.413,7.68c3.413,7.68,10.24,13.653,17.067,16.213
		c-16.213,6.827-35.84,0-42.667-16.213l-3.413-7.68C-7.744,97.298,19.563,33.298,76.736,13.672"/>
	<path d="M428.309,137.405c-0.853,0-2.56,0-3.413-0.853c-4.267-1.707-5.973-6.827-4.267-11.093
		c3.413-6.827,9.387-11.947,17.92-15.36c17.067-5.973,41.813-3.413,66.56,7.68c4.267,1.707,5.973,6.827,4.267,11.093
		c-1.707,4.267-6.827,5.973-11.093,4.267c-19.627-9.387-40.96-11.947-52.907-7.68c-4.267,1.707-6.827,3.413-7.68,5.973
		C435.136,135.698,431.723,137.405,428.309,137.405z"/>
	<path d="M421.483,89.618c-0.853,0-2.56,0-3.413-0.853c-4.267-1.707-5.973-6.827-4.267-11.093
		c5.973-13.653,17.067-23.893,30.72-29.013c15.36-5.973,32.427-5.12,47.787,2.56c4.267,1.707,5.973,6.827,4.267,11.093
		c-1.707,4.267-6.827,5.973-11.093,4.267c-11.093-5.12-23.893-5.973-34.133-1.707c-9.387,3.413-17.067,10.24-21.333,20.48
		C428.309,87.912,424.896,89.618,421.483,89.618z"/>
	<path d="M396.736,82.792c-0.853,0-2.56,0-3.413-0.853c-23.893-11.093-31.573-42.667-17.067-74.24
		c1.707-4.267,6.827-5.973,11.093-4.267c4.267,2.56,6.827,7.68,4.267,11.947c-10.24,21.333-6.827,45.227,8.533,52.053
		c4.267,1.707,5.973,6.827,4.267,11.093C402.709,81.085,400.149,82.792,396.736,82.792z"/>
	<path d="M352.363,140.818c-0.853,0-2.56,0-3.413-0.853c-36.693-17.067-52.907-59.733-36.693-95.573
		c2.56-4.267,6.827-5.973,11.093-4.267c4.267,1.707,5.973,6.827,4.267,11.093c-12.8,27.307,0,59.733,28.16,72.533
		c4.267,1.707,5.973,6.827,4.267,11.093C358.336,139.112,355.776,140.818,352.363,140.818z"/>
	<path d="M309.696,234.685c-0.853,0-2.56,0-3.413-0.853c-37.547-17.067-55.467-62.293-39.253-98.133
		c1.707-4.267,6.827-5.973,11.093-4.267s5.973,6.827,4.267,11.093c-12.8,27.307,1.707,62.293,30.72,75.947
		c4.267,1.707,5.973,6.827,4.267,11.093C315.669,232.125,313.109,234.685,309.696,234.685z"/>
	<path d="M272.149,317.458c-0.853,0-2.56,0-3.413-0.853c-38.4-17.92-56.32-60.587-40.107-95.573
		c1.707-4.267,6.827-5.973,11.093-4.267c4.267,1.707,5.973,6.827,4.267,11.093c-11.947,26.453,1.707,59.733,31.573,73.387
		c4.267,1.707,5.973,6.827,4.267,11.093C278.123,314.898,274.709,317.458,272.149,317.458z"/>
	<path d="M232.043,403.645c-0.853,0-2.56,0-3.413-0.853c-39.253-17.92-57.173-58.027-41.813-92.16
		c1.707-4.267,6.827-5.973,11.093-4.267c4.267,1.707,5.973,6.827,4.267,11.093c-13.653,29.013,7.68,57.173,33.28,69.973
		c4.267,1.707,5.973,6.827,4.267,11.093C238.869,401.938,235.456,403.645,232.043,403.645z"/>
	<path d="M192.789,489.832c-0.853,0-2.56,0-3.413-0.853c-38.4-17.92-56.32-60.587-40.107-96.427
		c1.707-4.267,6.827-5.973,11.093-4.267s5.973,6.827,4.267,11.093c-11.947,26.453,2.56,60.587,31.573,74.24
		c4.267,1.707,5.973,6.827,4.267,11.093C198.763,488.125,196.203,489.832,192.789,489.832z"/>
	<path d="M161.216,511.165c-5.973,0-11.947-1.707-17.92-4.267c-21.333-9.387-30.72-34.987-21.333-55.467L300.309,64.018
		c23.893-51.2,83.627-76.8,136.533-58.027c29.013,10.24,53.76,32.427,65.707,61.44c11.947,28.16,11.093,58.88-0.853,86.187
		l-3.413,7.68c-4.267,10.24-12.8,17.92-23.04,21.333c-10.24,4.267-22.187,3.413-32.427-1.707
		c-21.333-9.387-30.72-34.987-21.333-55.467l3.413-7.68c2.56-5.973,2.56-12.8,0-19.627c-2.56-6.827-8.533-11.947-15.36-14.507
		c-11.947-4.267-25.6,1.707-31.573,13.653L199.616,487.272c-4.267,10.24-12.8,17.92-23.04,21.333
		C171.456,510.312,166.336,511.165,161.216,511.165z M400.149,16.232c-35.84,0-69.973,20.48-85.333,54.613l-176.64,388.267
		c-5.973,11.947,0,27.307,12.8,33.28c5.973,2.56,13.653,3.413,19.627,0.853c5.973-2.56,11.093-6.827,13.653-12.8L361.749,90.472l0,0
		c9.387-19.627,32.427-29.867,52.907-23.04c11.093,4.267,20.48,12.8,25.6,23.893c4.267,11.093,4.267,23.04,0,33.28l-3.413,7.68
		c-5.973,11.947,0,27.307,12.8,33.28c5.973,2.56,13.653,3.413,19.627,0.853c5.973-2.56,11.093-6.827,13.653-12.8l3.413-7.68
		c10.24-23.04,10.24-48.64,0.853-72.533c-10.24-24.747-30.72-43.52-56.32-52.053C420.629,17.938,410.389,16.232,400.149,16.232z"/>
	<path d="M78.443,136.552c-3.413,0-5.973-1.707-7.68-5.12c-0.853-2.56-4.267-5.12-7.68-5.973c-11.947-4.267-31.573-1.707-51.2,7.68
		c-4.267,1.707-9.387,0-10.24-4.267c-0.853-4.267,0-9.387,4.267-11.093c23.04-11.093,47.787-14.507,64-7.68
		c8.533,3.413,13.653,8.533,17.067,15.36c1.707,4.267,0,9.387-4.267,11.093C80.149,136.552,79.296,136.552,78.443,136.552z"/>
	<path d="M88.683,89.618c-3.413,0-6.827-1.707-7.68-5.12c-4.267-9.387-11.947-16.213-21.333-19.627
		c-11.093-4.267-23.04-3.413-34.987,1.707c-4.267,1.707-9.387,0-11.093-4.267s0-9.387,4.267-11.093
		c15.36-7.68,32.427-8.533,47.787-2.56c13.653,5.12,24.747,15.36,30.72,29.013c1.707,4.267,0,9.387-4.267,11.093
		C91.243,89.618,89.536,89.618,88.683,89.618z"/>
	<path d="M113.429,82.792c-3.413,0-5.973-1.707-7.68-5.12c-1.707-4.267,0-9.387,4.267-11.093
		c14.507-6.827,18.773-31.573,8.533-53.76c-1.707-4.267,0-9.387,4.267-11.093c4.267-1.707,9.387,0,11.093,4.267
		c14.507,31.573,7.68,65.707-17.067,76.8C115.989,82.792,115.136,82.792,113.429,82.792z"/>
	<path d="M157.803,140.818c-3.413,0-5.973-1.707-7.68-5.12c-1.707-4.267,0-9.387,4.267-11.093c28.16-12.8,40.96-46.08,28.16-73.387
		c-1.707-4.267,0-9.387,4.267-11.093c4.267-1.707,9.387,0,11.093,4.267c16.213,35.84,0,79.36-36.693,96.427
		C160.363,140.818,158.656,140.818,157.803,140.818z"/>
	<path d="M192.789,218.472c-3.413,0-5.973-1.707-7.68-5.12c-1.707-4.267,0-9.387,4.267-11.093
		c28.16-12.8,41.813-50.347,29.013-78.507c-1.707-4.267,0-9.387,4.267-11.093c4.267-1.707,9.387,0,11.093,4.267
		c17.067,36.693-0.853,83.627-37.547,100.693C195.349,218.472,194.496,218.472,192.789,218.472z"/>
	<path d="M278.123,403.645c-3.413,0-5.973-1.707-7.68-5.12c-1.707-4.267,0-9.387,4.267-11.093
		c26.453-11.947,46.933-40.107,33.28-69.973c-1.707-4.267,0-9.387,4.267-11.093s9.387,0,11.093,4.267
		c15.36,34.133-2.56,74.24-41.813,92.16C280.683,402.792,278.976,403.645,278.123,403.645z"/>
	<path d="M317.376,489.832c-3.413,0-5.973-1.707-7.68-5.12c-1.707-4.267,0-9.387,4.267-11.093
		c29.013-13.653,43.52-46.933,31.573-73.387c-1.707-4.267,0-9.387,4.267-11.093c4.267-1.707,9.387,0,11.093,4.267
		c16.213,35.84-1.707,78.507-40.107,96.427C319.936,488.978,318.229,489.832,317.376,489.832z"/>
	<path d="M217.536,272.232c-3.413,0-5.973-1.707-7.68-5.12l-77.653-168.96l0,0c-5.12-11.947-19.627-17.92-31.573-13.653
		c-6.827,2.56-12.8,7.68-15.36,14.507c-2.56,6.827-2.56,13.653,0,19.627l3.413,7.68c9.387,20.48,0,46.08-21.333,55.467
		c-10.24,5.12-22.187,5.12-32.427,1.707c-10.24-5.12-17.92-12.8-23.04-22.187l-3.413-7.68c-11.947-27.307-12.8-58.88-0.853-86.187
		c11.947-29.013,35.84-51.2,65.707-62.293c53.76-18.773,113.493,6.827,136.533,58.88l52.907,114.347c0.853,2.56,0.853,5.12,0,6.827
		l-37.547,81.067C224.363,270.525,220.949,272.232,217.536,272.232z M148.416,90.472l69.973,151.893l28.16-60.587l-51.2-110.933
		c-19.627-43.52-70.827-64.853-115.2-49.493c-25.6,9.387-46.08,28.16-56.32,52.053c-10.24,23.04-9.387,49.493,0.853,72.533
		l3.413,7.68c2.56,5.973,7.68,10.24,13.653,12.8c5.973,2.56,13.653,1.707,19.627-0.853c12.8-5.973,18.773-20.48,12.8-33.28
		l-3.413-7.68c-5.12-10.24-5.12-23.04,0-33.28c5.12-11.093,13.653-19.627,25.6-23.893C115.989,60.605,139.029,70.845,148.416,90.472
		L148.416,90.472z"/>
	<path d="M348.949,511.165c-5.12,0-10.24-0.853-14.507-2.56c-10.24-3.413-18.773-11.093-23.04-21.333l-64-138.24
		c-0.853-2.56-0.853-5.12,0-6.827l37.547-81.067c1.707-3.413,4.267-5.12,7.68-5.12c3.413,0,5.973,1.707,7.68,5.12l87.893,190.293
		c9.387,20.48,0,46.08-21.333,55.467C360.896,509.458,354.923,511.165,348.949,511.165z M264.469,344.765l61.44,134.827
		c2.56,5.973,7.68,10.24,13.653,12.8c6.827,2.56,13.653,1.707,19.627-0.853c12.8-5.973,18.773-20.48,12.8-33.28l-80.213-174.933
		L264.469,344.765z"/>
</g>
<g>
</g>
<g>
</g>
<g>
</g>
<g>
</g>
<g>
</g>
<g>
</g>
<g>
</g>
<g>
</g>
<g>
</g>
<g>
</g>
<g>
</g>
<g>
</g>
<g>
</g>
<g>
</g>
<g>
</g>
</svg>
