<svg width="22" height="18" fill="none" xmlns="http://www.w3.org/2000/svg"><path fill-rule="evenodd" clip-rule="evenodd" d="M18.452 16.667c0 .736-.591 1.333-1.322 1.333a1.328 1.328 0 01-1.323-1.333c0-.736.591-1.333 1.323-1.333.73 0 1.322.597 1.322 1.333zm-6.496 0c0 .736-.593 1.333-1.324 1.333-.73 0-1.323-.597-1.323-1.333s.593-1.333 1.323-1.333c.731 0 1.324.597 1.324 1.333zM20.733 5.75l-1.778 5.335a2.289 2.289 0 01-2.17 1.573h-6.273a2.29 2.29 0 01-2.163-1.55L6.302 5.173h14.017a.43.43 0 01.354.181.441.441 0 01.06.398zm.95-1.13a1.68 1.68 0 00-1.364-.704H5.87L5 1.405A2.081 2.081 0 003.038 0H.622A.625.625 0 000 .627c0 .347.278.628.622.628h2.416c.354 0 .67.227.786.563l1.01 2.919.008.027 2.331 6.757a3.537 3.537 0 003.339 2.393h6.273c1.519 0 2.866-.976 3.35-2.428l1.778-5.337a1.71 1.71 0 00-.23-1.528z" fill="#7C7C7C"/></svg>