<svg width="22" height="20" fill="none" xmlns="http://www.w3.org/2000/svg"><path fill-rule="evenodd" clip-rule="evenodd" d="M16.948 8.177c0 .718-.59 1.3-1.316 1.3a1.309 1.309 0 01-1.317-1.3c0-.718.59-1.3 1.317-1.3.726 0 1.316.582 1.316 1.3zm-4.63 0c0 .718-.59 1.3-1.318 1.3a1.309 1.309 0 01-1.316-1.3c0-.718.59-1.3 1.316-1.3.728 0 1.317.582 1.317 1.3zm-4.632 0c0 .718-.59 1.3-1.316 1.3a1.309 1.309 0 01-1.317-1.3c0-.718.59-1.3 1.317-1.3.726 0 1.316.582 1.316 1.3zm10.97 5.124a6.93 6.93 0 01-1.472 1.11c-.577.324-.921.889-.921 1.512v2.461l-3.417-2.517a1.732 1.732 0 00-1.227-.504H8.403c-3.947 0-7.158-3.167-7.158-7.06a6.97 6.97 0 012.086-4.997A7.21 7.21 0 018.403 1.23h4.87c2.032 0 4.02.835 5.455 2.291 1.355 1.373 2.073 3.14 2.025 4.973a6.952 6.952 0 01-2.096 4.807zm.965-10.638A8.966 8.966 0 0013.274 0H8.403a8.455 8.455 0 00-5.95 2.434A8.185 8.185 0 000 8.302c0 4.573 3.77 8.292 8.403 8.292h3.216c.13 0 .254.05.414.2l4.012 2.957a.86.86 0 00.934.184.844.844 0 00.529-.782v-3.23c0-.174.109-.34.293-.443a8.158 8.158 0 001.735-1.307 8.172 8.172 0 002.461-5.647c.057-2.168-.786-4.251-2.376-5.863z" fill="#B6B6B6"/></svg>