<svg xmlns="http://www.w3.org/2000/svg" viewBox="0 0 416.991 416.991"><path d="M344.649 204.32c-7.807 3.62-16.314 5.501-25.067 5.503-10.392.001-20.665-2.759-29.711-7.982-16.886-9.749-27.772-27.175-29.52-46.218-19.143-1.749-36.518-12.726-46.216-29.523-9.747-16.882-10.465-37.41-2.462-54.773a59.301 59.301 0 01-23.926-36.143c-41.698 1.338-79.982 16.399-110.502 40.79 7.997 7.752 12.731 18.522 12.731 30.139 0 14.868-7.772 27.946-19.461 35.412a41.738 41.738 0 01-22.539 6.588 41.92 41.92 0 01-16.78-3.498l-.078.08A188.165 188.165 0 0020 208.496c0 103.937 84.559 188.496 188.495 188.496 41.112 0 79.18-13.243 110.192-35.67.654-.587 1.493-1.204 2.467-1.842 11.615-8.688 22.217-18.658 31.549-29.74-10.812-7.738-17.66-20.402-17.66-34.193 0-9.15 2.95-17.619 7.937-24.526 7.339-10.164 19.105-16.916 32.449-17.425a28.959 28.959 0 011.615-.049c.404 0 .807.014 1.21.026a187.108 187.108 0 002.548-25.333 59.309 59.309 0 01-36.153-23.92zM132.435 334.871c-13.093 0-24.803-6.025-32.512-15.445-6.215-7.325-9.976-16.795-9.976-27.131 0-23.159 18.841-42 42-42 13.093 0 24.804 6.025 32.512 15.445 6.215 7.325 9.976 16.795 9.976 27.131 0 23.159-18.84 42-42 42zm27.759-151.183c-13.093 0-24.803-6.025-32.512-15.445-6.215-7.325-9.976-16.795-9.976-27.131 0-23.159 18.841-42 42-42 13.093 0 24.803 6.025 32.512 15.445 6.215 7.325 9.976 16.795 9.976 27.131 0 23.158-18.84 42-42 42zm86.769 131.147c-16.814 0-31.855-7.727-41.767-19.815-7.929-9.401-12.721-21.53-12.721-34.762 0-29.776 24.225-54 54-54 16.814 0 31.855 7.727 41.767 19.815 7.929 9.401 12.721 21.53 12.721 34.762 0 29.776-24.225 54-54 54z" fill="#d4b783"/><path d="M159.706 163.111c12.131 0 22-9.869 22-22s-9.869-22-22-22-22 9.869-22 22 9.87 22 22 22zM131.948 314.295c12.131 0 22-9.869 22-22s-9.869-22-22-22-22 9.869-22 22 9.869 22 22 22zM69.977 106.111a21.93 21.93 0 00-7.563-16.596 189.01 189.01 0 00-23.448 36.643 21.92 21.92 0 009.011 1.954c12.131-.001 22-9.87 22-22.001zM355.043 295.546c0 7.423 3.79 14.218 9.724 18.234a188.135 188.135 0 0020.101-38.79 21.858 21.858 0 00-7.825-1.444c-12.13 0-22 9.869-22 22zM246.475 294.259c18.748 0 34-15.253 34-34 0-18.748-15.252-34-34-34-18.748 0-34 15.252-34 34 0 18.747 15.252 34 34 34z" fill="#89634a"/><path d="M192.218 114.556c5.926 7.242 9.488 16.489 9.488 26.555 0 23.159-18.841 42-42 42-12.822 0-24.314-5.782-32.024-14.869 7.708 9.42 19.419 15.445 32.512 15.445 23.159 0 42-18.841 42-42 0-10.336-3.76-19.806-9.976-27.131zM173.948 292.295c0 23.159-18.841 42-42 42-12.822 0-24.314-5.782-32.024-14.869 7.709 9.42 19.419 15.445 32.512 15.445 23.159 0 42-18.841 42-42 0-10.337-3.761-19.806-9.976-27.131 5.925 7.242 9.488 16.489 9.488 26.555zM300.475 260.259c0 29.776-24.225 54-54 54-16.543 0-31.365-7.485-41.279-19.238 9.911 12.087 24.952 19.815 41.767 19.815 29.775 0 54-24.224 54-54 0-13.232-4.792-25.361-12.721-34.762 7.64 9.317 12.233 21.223 12.233 34.185z" fill="#89634a"/><path d="M159.706 183.111c23.159 0 42-18.841 42-42 0-10.066-3.562-19.313-9.488-26.555-7.708-9.42-19.418-15.445-32.512-15.445-23.159 0-42 18.841-42 42 0 10.337 3.761 19.806 9.976 27.131 7.711 9.087 19.202 14.869 32.024 14.869zm0-64c12.131 0 22 9.869 22 22s-9.869 22-22 22-22-9.869-22-22 9.87-22 22-22zM131.948 334.295c23.159 0 42-18.841 42-42 0-10.066-3.562-19.313-9.488-26.555-7.708-9.42-19.419-15.445-32.512-15.445-23.159 0-42 18.841-42 42 0 10.337 3.761 19.806 9.976 27.131 7.71 9.087 19.201 14.869 32.024 14.869zm0-64c12.131 0 22 9.869 22 22s-9.869 22-22 22-22-9.869-22-22 9.869-22 22-22z"/><path d="M416.97 206.596l-.013-.831a9.999 9.999 0 00-9.494-9.864c-14.875-.751-28.007-9.639-34.27-23.193a9.998 9.998 0 00-14.842-3.978c-6.706 4.73-14.927 7.335-23.146 7.336a39.934 39.934 0 01-19.935-5.363c-13.458-7.77-21.242-22.803-19.83-38.299a9.998 9.998 0 00-2.888-7.977 10.026 10.026 0 00-7.977-2.889 39.953 39.953 0 01-3.614.164c-14.272 0-27.562-7.662-34.683-19.996-7.77-13.458-6.994-30.369 1.976-43.084a10 10 0 00-3.976-14.842c-13.548-6.262-22.434-19.387-23.189-34.254a10 10 0 00-9.858-9.492l-.816-.013C209.777.01 209.137 0 208.496 0 93.531 0 .001 93.531.001 208.496s93.53 208.496 208.495 208.496 208.495-93.531 208.495-208.496c0-.635-.01-1.267-.021-1.9zM62.414 89.515a21.93 21.93 0 017.563 16.596c0 12.131-9.869 22-22 22a21.92 21.92 0 01-9.011-1.954 189.033 189.033 0 0123.448-36.642zm302.354 224.266c-5.935-4.016-9.724-10.811-9.724-18.234 0-12.131 9.869-22 22-22 2.725 0 5.356.501 7.825 1.444a188.135 188.135 0 01-20.101 38.79zm26.18-57.855a42.056 42.056 0 00-12.695-2.354c-.403-.012-.806-.026-1.21-.026-.542 0-1.077.029-1.615.049-13.344.509-25.11 7.26-32.449 17.425-4.987 6.906-7.937 15.376-7.937 24.526 0 13.791 6.848 26.454 17.66 34.193-9.332 11.082-19.935 21.052-31.549 29.74-.822.615-1.635 1.24-2.467 1.842-31.012 22.428-69.08 35.67-110.192 35.67C104.559 396.991 20 312.433 20 208.496c0-16.276 2.085-32.073 5.983-47.148a187.338 187.338 0 015.136-16.655l.034-.098.044.018a41.916 41.916 0 0016.78 3.498 41.738 41.738 0 0022.539-6.588c11.688-7.466 19.461-20.544 19.461-35.412 0-11.617-4.733-22.387-12.731-30.139a41.866 41.866 0 00-1.377-1.286c32.732-32.446 77.26-53.009 126.502-54.589a59.752 59.752 0 0024.107 36.418c-8.064 17.495-7.341 38.179 2.48 55.19 9.771 16.925 27.278 27.985 46.567 29.748 1.761 19.188 12.729 36.747 29.744 46.57 9.114 5.262 19.466 8.043 29.936 8.042 8.82-.001 17.392-1.897 25.258-5.544a59.76 59.76 0 0036.427 24.102 187.7 187.7 0 01-5.942 41.303z"/><path d="M246.475 314.259c29.775 0 54-24.224 54-54 0-12.961-4.593-24.868-12.233-34.185-9.911-12.087-24.952-19.815-41.767-19.815-29.775 0-54 24.224-54 54 0 13.232 4.792 25.361 12.721 34.762 9.914 11.753 24.736 19.238 41.279 19.238zm0-88c18.748 0 34 15.252 34 34 0 18.747-15.252 34-34 34-18.748 0-34-15.253-34-34 0-18.748 15.252-34 34-34z"/></svg>