<svg xmlns="http://www.w3.org/2000/svg" viewBox="0 0 417.007 417.007"><path d="M208.503 109.134a17.39 17.39 0 005.834-1.021 17.406 17.406 0 003.872-10.953c0-9.65-7.851-17.5-17.5-17.5a17.39 17.39 0 00-5.834 1.021 17.406 17.406 0 00-3.872 10.953c0 9.65 7.851 17.5 17.5 17.5z" fill="#f24646"/><path d="M167.387 154.567a10 10 0 018.964 9.946v51.393c0 .971.237 1.885.648 2.697a6.001 6.001 0 005.352 3.303c3.309 0 6-2.691 6-6v-49.382a10 10 0 0110.242-9.997c3.758.091 6.908.133 9.911.133 9.045 0 18.167-.32 27.158-.925.305-.334.629-.403.989-.066l.005.005c.324-.023.652-.038.976-.062a9.998 9.998 0 0110.721 9.973v111.478c0 .896.203 1.744.557 2.508a6.002 6.002 0 005.443 3.492c3.309 0 6-2.691 6-6v-115.14a10 10 0 018.422-9.875 304.056 304.056 0 0020.985-4.104l-1.005-18.811H119.671l-1.435 16.494c.2.073.399.141.599.216 14.848 3.971 31.123 6.91 48.552 8.724z" fill="#efa348"/><path d="M290.545 168.283a320.311 320.311 0 01-10.194 2.063v106.719c0 10.361-6.094 19.323-14.885 23.499-1.126 1.759-2.521 2.068-4.119 1.539a25.89 25.89 0 01-6.996.963c-14.337 0-26-11.664-26-26V176.197c-6.658.311-13.368.453-20 .463v39.246c0 .401-.017.782-.042 1.154-.435 9.868-6.381 18.326-14.842 22.345a25.836 25.836 0 01-11.115 2.501c-14.337 0-26-11.663-26-26v-42.484c-14.065-1.797-27.408-4.31-39.879-7.504l-1.031 11.846-14.03 161.301h199.355l-10.222-170.782zM136.503 295.064c-5.79 0-10.5-4.71-10.5-10.5s4.71-10.5 10.5-10.5 10.5 4.71 10.5 10.5-4.71 10.5-10.5 10.5zm32.5 24.5c-5.79 0-10.5-4.71-10.5-10.5s4.71-10.5 10.5-10.5 10.5 4.71 10.5 10.5-4.71 10.5-10.5 10.5z" fill="#d4b783"/><path fill="#89634a" d="M55.417 359.064l1.634 8.193 5.109 25.615h281.866l6.442-33.808z"/><path d="M407.007 339.064H335.671l-16.259-186.923-.007-.079-2.939-33.794a10 10 0 00-9.962-9.134h-64.848a37.26 37.26 0 004.348-17.5c0-16.891-11.227-31.204-26.609-35.882 3.864-18.044 19.928-31.618 39.109-31.618 5.523 0 10-4.478 10-10 0-5.523-4.477-10-10-10-30.087 0-55.067 22.263-59.346 51.179-16.171 4.163-28.154 18.869-28.154 36.321a37.26 37.26 0 004.348 17.5h-64.848a10 10 0 00-9.962 9.134L97.6 152.076l-.005.058-16.26 186.929H10c-5.523 0-10 4.478-10 10s4.477 10 10 10h25.023l9.128 45.765a10 10 0 009.807 8.044H363.05a10 10 0 009.807-8.044l9.128-45.765h25.023c5.523 0 10-4.478 10-10-.001-5.521-4.478-9.999-10.001-9.999zM194.876 80.682c3.21-3.987 8.123-6.547 13.628-6.547 9.649 0 17.5 7.851 17.5 17.5 0 7.602-4.881 14.068-11.666 16.479a17.39 17.39 0 01-5.834 1.021c-9.649 0-17.5-7.851-17.5-17.5a17.394 17.394 0 013.872-10.953zm-76.639 64.946l1.435-16.494h177.664l1.44 16.553a268.654 268.654 0 01-9.018 2.257 304.056 304.056 0 01-20.985 4.104 10 10 0 00-8.422 9.875v115.14c0 3.309-2.691 6-6 6a6.001 6.001 0 01-5.443-3.492 5.948 5.948 0 01-.557-2.508V165.586a9.997 9.997 0 00-10.721-9.973c-.324.023-.651.039-.976.062-.33.023-.663.038-.994.061-8.991.604-18.113.925-27.158.925-3.003 0-6.153-.042-9.911-.133a10 10 0 00-10.242 9.997v49.382c0 3.309-2.691 6-6 6a6 6 0 01-5.352-3.303 5.955 5.955 0 01-.648-2.697v-51.393a10 10 0 00-8.964-9.946c-17.429-1.814-33.704-4.753-48.551-8.723-.2-.053-.405-.102-.604-.156l.007-.061zm-2.796 32.135l1.031-11.846c12.471 3.194 25.814 5.707 39.879 7.504v42.484c0 14.337 11.663 26 26 26 3.975 0 7.743-.9 11.115-2.501 8.461-4.018 14.407-12.476 14.842-22.345.017-.384.042-.766.042-1.154v-39.246c6.632-.01 13.342-.152 20-.463v100.867c0 14.336 11.663 26 26 26a25.89 25.89 0 006.996-.963c1.425-.4 2.803-.914 4.119-1.539 8.791-4.175 14.885-13.138 14.885-23.499V170.343c3.451-.64 6.85-1.329 10.194-2.063a296.662 296.662 0 009.989-2.372l15.061 173.153H101.411l14.03-161.298zm239.406 215.109H62.16l-5.109-25.616-1.634-8.193H361.59l-6.743 33.809z"/><path d="M136.503 274.064c-5.79 0-10.5 4.71-10.5 10.5s4.71 10.5 10.5 10.5 10.5-4.71 10.5-10.5-4.71-10.5-10.5-10.5zM169.003 298.564c-5.79 0-10.5 4.71-10.5 10.5s4.71 10.5 10.5 10.5 10.5-4.71 10.5-10.5-4.71-10.5-10.5-10.5z"/></svg>