<svg xmlns="http://www.w3.org/2000/svg" viewBox="0 0 440.585 440.585"><path d="M220.293 112.115c2.55 0 4.98-.508 7.212-1.408a19.242 19.242 0 003.268-10.747c0-10.677-8.686-19.363-19.363-19.363-2.55 0-4.98.508-7.212 1.408a19.243 19.243 0 00-3.268 10.748c-.001 10.676 8.686 19.362 19.363 19.362z" fill="#f24646"/><path fill="#00d0c2" d="M90.164 319.501l1.558 7.208 20.282 93.875h29.309L130.2 319.501zM230.293 319.501v101.083h29.689l10.91-101.083zM160.171 319.501l.779 7.208 10.141 93.875h30.319l-.354-101.083zM300.53 319.501l-.778 7.208-10.141 93.875h31.046l20.556-101.083z"/><path d="M353.929 253.573h-12.466a10 10 0 01-8.266-15.628c3.003-4.41 4.139-9.591 4.59-14.929 1.216-14.404-6.166-24.841-18.073-33.776H186.337c-5.523 0-10-4.478-10-10 0-.957.143-1.879.393-2.755 1.198-4.181 5.041-7.245 9.607-7.245h97.841c.141-1.105.222-2.222.222-3.35 0-14.649-11.919-26.567-26.568-26.567h-92.843a26.39 26.39 0 00-11.883 2.816 26.43 26.43 0 00-5.802 16.543 26.42 26.42 0 004.589 14.929 10 10 0 01.575 10.304c-1.62 3.065-4.706 5.032-8.13 5.276-.237.017-.47.049-.71.049h-23.144c-8.398 0-15.894 3.921-20.766 10.024a26.432 26.432 0 00-5.802 16.544c0 3.672.763 7.247 2.2 10.557h211.521c5.522 0 10 4.478 10 10 0 5.278-4.093 9.591-9.276 9.963-.24.017-.479.037-.724.037H77.773c-8.398 0-15.894 3.921-20.766 10.024a26.433 26.433 0 00-5.803 16.544c0 14.649 11.918 26.567 26.568 26.567h285.039c4.27 0 8.305-1.019 11.884-2.816a26.435 26.435 0 005.802-16.543c.001-14.649-11.918-26.568-26.568-26.568z" fill="#fdffd0"/><path d="M365.451 226.439a46.684 46.684 0 001.22-10.631c0-25.678-20.891-46.568-46.568-46.568h-8.022a46.679 46.679 0 001.203-10.558c0-25.678-20.891-46.567-46.568-46.567h-12.171a39.103 39.103 0 005.112-19.363c0-17.947-12.077-33.115-28.527-37.834C235.08 35.035 252.655 20 273.68 20c5.522 0 10-4.477 10-10s-4.478-10-10-10c-31.943 0-58.428 23.755-62.755 54.524-17.196 4.215-29.996 19.751-29.996 38.228a39.114 39.114 0 005.112 19.363h-12.17c-25.678 0-46.568 20.89-46.568 46.567 0 3.586.407 7.124 1.203 10.558h-8.022c-25.678 0-46.568 20.891-46.568 46.568 0 3.611.413 7.174 1.22 10.631-24.455 1.372-43.93 21.702-43.93 46.494 0 22.868 16.574 41.925 38.338 45.824l24.617 113.938a10 10 0 009.774 7.888h58.146l.021.001.018-.001h116.348l.018.001.021-.001h58.145a9.999 9.999 0 009.774-7.888l24.617-113.938c21.764-3.899 38.338-22.956 38.338-45.824-.001-24.791-19.475-45.122-43.93-46.494zM204.198 82.004c3.477-5.19 9.392-8.616 16.095-8.616 10.677 0 19.363 8.687 19.363 19.363 0 8.127-5.039 15.088-12.151 17.955a19.234 19.234 0 01-7.212 1.408c-10.677 0-19.363-8.686-19.363-19.363a19.24 19.24 0 013.268-10.747zm-62.885 338.58h-29.309l-20.282-93.875-1.557-7.208H140.054l10.92 101.083h-9.661zm68.98 0h-39.202l-10.141-93.875-.779-7.208h50.121v101.083zm59.201 0h-39.202V319.501h50.121l-10.919 101.083zm59.087 0h-38.97l10.141-93.875.779-7.208h49.89l-21.84 101.083zm46.115-123.899a26.395 26.395 0 01-11.884 2.816H77.773c-14.65 0-26.568-11.918-26.568-26.567a26.433 26.433 0 015.803-16.544c4.872-6.103 12.367-10.024 20.766-10.024h229.862c.244 0 .484-.02.724-.037 5.183-.372 9.276-4.685 9.276-9.963 0-5.522-4.478-10-10-10H96.115a26.454 26.454 0 01-2.2-10.557 26.438 26.438 0 015.802-16.544c4.872-6.103 12.368-10.024 20.766-10.024h23.144c.24 0 .473-.032.71-.049 3.424-.245 6.51-2.212 8.13-5.276a10.001 10.001 0 00-.575-10.304 26.417 26.417 0 01-4.589-14.929 26.427 26.427 0 015.802-16.543c4.872-6.103 12.368-10.024 20.766-10.024h92.843c14.649 0 26.568 11.918 26.568 26.567 0 3.673-.763 7.248-2.2 10.558H186.336c-4.566 0-8.409 3.063-9.607 7.245a9.979 9.979 0 00-.393 2.755c0 5.522 4.477 10 10 10H320.101c14.649 0 26.568 11.919 26.568 26.568a26.417 26.417 0 01-4.59 14.929 9.999 9.999 0 008.266 15.628h12.466c14.649 0 26.568 11.919 26.568 26.568.001 10.379-5.985 19.381-14.683 23.751z"/></svg>