<svg xmlns="http://www.w3.org/2000/svg" viewBox="0 0 1000 1000"><path d="M464.5 11.35c-67.61 5.17-130.04 23.17-190.18 54.2-44.24 22.98-78.91 48.07-116.06 84.08C29.56 274.87-19.85 457.39 27.84 631.1 58.67 743.9 129.92 841.77 229.7 908.41c27.58 18.58 72.2 41.37 102.46 52.48 25.09 9.19 71.05 20.68 99.78 25.09 28.34 4.21 101.89 4.98 128.32 1.15 79.86-11.49 146.32-36.39 210.09-78.91 73.35-48.65 130.81-114.14 169.11-192.47 17.05-34.66 25.47-57.07 34.47-91.54 43.47-165.09-2.68-340.9-121.61-463.66-83.5-86.18-190.18-137.51-309.3-148.62-19.34-1.73-60.14-2.12-78.52-.58zm100.55 39.83c177.54 26.43 321.56 153.41 372.12 327.5l2.87 9.77-18.58-.19c-14.94 0-20.11.77-27.39 4.21-12.07 5.55-25.66 18.39-31.79 30.26l-5.17 9.58-.96 118.74c-.77 85.22-1.53 119.89-3.26 122.57-1.15 2.11-4.79 6.32-8.04 9.39-4.79 4.59-7.85 5.75-16.85 6.32-13.02.96-21.26-3.06-27.39-13.21-3.64-6.13-3.83-9.96-3.83-145.55 0-144.21-.38-151.68-8.04-166.81-5.17-10.15-18-22.6-28.73-27.77-42.32-20.68-91.54 7.09-95.18 53.63l-1.15 13.21-8.43-11.68c-23.36-31.98-65.31-59.75-107.44-71.05-22.02-5.94-70.1-6.51-91.93-.96-72.39 18-126.21 70.67-145.94 143.06-3.83 13.98-4.4 20.3-4.21 48.65 0 27.2.77 35.05 4.21 47.5 5.55 20.49 15.7 42.9 26.43 59.37 8.43 12.64 31.98 38.11 45.39 48.84l5.36 4.41-.58 58.79c-.57 55.35-.77 59.18-4.6 65.5-11.3 19.34-38.11 20.68-49.99 2.49-3.06-4.79-3.45-12.26-4.4-85.8l-.96-80.44-4.98-10.72c-7.09-15.13-17.24-25.47-31.98-32.75-10.92-5.36-14.56-6.32-27.2-6.32-23.94.19-45.01 12.64-56.31 33.71-4.6 8.43-5.75 13.21-6.9 31.22-1.72 23.56-3.26 28.92-9.77 34.86-7.09 6.32-12.26 8.43-21.26 8.43-9.58 0-18.77-4.98-23.94-12.83-3.26-4.79-3.45-13.02-4.4-107.82l-.96-102.46-5.17-10.92c-2.68-5.94-8.62-14.55-12.83-19.34-13.76-14.99-40.77-23.8-58.39-18.82-4.21 1.15-7.85 1.72-8.24 1.34-1.15-.96 4.98-27.77 10.92-48.07C99.08 254.77 184.5 152.3 294.24 96c50.18-25.66 104.57-41.56 163.56-47.69 22.59-2.3 83.11-.77 107.25 2.87zm-20.5 298.58c57.07 16.85 98.82 58.6 115.29 115.49 25.85 89.25-27.39 181.17-119.7 206.65-19.15 5.36-63.01 4.98-82.74-.58-77.36-22.22-127.73-91.36-123.52-169.11 1.34-24.32 5.17-40.03 14.75-60.71 9.58-20.3 16.85-31.22 32.37-47.11 24.51-25.47 54.2-41.56 89.25-48.45 20.3-4.03 53.43-2.31 74.3 3.82zm202.44 18.96c3.64 2.3 8.23 7.28 10.34 10.92 4.02 6.51 4.02 9.77 4.98 153.21l.96 146.51 4.6 9.58c10.72 21.45 29.88 33.9 54.2 35.05 32.94 1.72 58.41-17.43 65.88-49.22 2.11-8.24 2.68-36.2 2.68-122V441.5l4.4-6.32c8.81-13.02 24.13-16.66 38.88-9.38 12.07 5.75 15.51 12.64 17.81 36 10.15 98.44-19.73 211.82-77.95 295.13-30.45 43.67-73.73 87.33-114.34 115.29-59.36 40.98-123.33 66.26-196.3 77.37-30.45 4.79-95.76 4.79-126.4.19-98.44-15.13-182.13-56.49-252.23-124.68-61.29-59.37-103.42-131.76-124.1-212.77-9.77-38.5-13.22-65.69-13.22-107.25-.19-32.17.19-36.96 3.26-41.56 4.02-5.94 17.43-13.02 24.51-13.02 8.43.19 20.11 6.9 24.9 14.56l4.6 7.47.38 100.74c.38 97.29.57 101.12 4.4 111.65 4.98 13.02 18.19 27.2 31.6 33.71 7.09 3.45 13.6 4.98 24.9 5.36 20.88.96 33.9-4.02 47.88-17.81 13.41-13.6 18.19-26.05 19.54-51.71.77-15.13 1.92-20.49 4.98-25.28 11.87-17.81 38.88-17.04 50.18 1.72 3.64 5.94 3.83 10.72 4.79 87.71l.96 81.4 4.79 9.58c5.75 11.68 18 23.94 30.07 29.88 7.66 3.83 12.26 4.6 27.39 4.6 15.51 0 19.54-.77 27.77-4.79 13.21-6.32 26.62-20.49 31.98-33.9 4.21-10.72 4.4-13.02 4.4-63.39 0-28.54.38-52.09.77-52.09.38 0 6.51 2.11 13.6 4.6 34.47 12.45 86.57 14.17 119.12 4.02 3.25-1.15 3.45.38 3.45 22.98 0 24.32 0 24.32 5.55 29.88 3.45 3.25 7.66 5.55 10.73 5.55 6.32 0 15.51-4.6 17.04-8.62.58-1.72 1.15-17.24 1.15-34.66v-31.41l7.28-3.64c9.39-4.79 25.28-17.04 38.3-29.68 28.34-27.39 49.41-68.18 55.92-108.4.96-6.89 1.92-43.28 1.92-80.82 0-79.1.19-80.44 15.13-89.82 11.29-7.3 26.99-7.87 36.57-1.17z"/><path d="M367.21 87.38c-35.81 12.83-45.01 58.6-16.85 84.08 10.34 9.38 19.34 12.83 33.52 12.83 28.15 0 48.84-21.07 49.03-49.41 0-20.68-8.81-35.24-27.39-44.43-12.84-6.52-25.67-7.48-38.31-3.07zm25.47 28.92c7.66 4.02 11.49 10.15 11.49 18.77 0 5.94-1.34 8.81-6.7 14.17-6.32 6.32-7.47 6.7-15.51 5.75-10.34-1.15-15.32-5.17-18.19-14.75-2.87-9.19 1.72-19.34 10.34-23.75 7.65-3.83 11.68-3.83 18.57-.19zM752.92 168.39c-12.25 4.4-25.66 18.58-29.88 31.03-5.94 18.19-1.15 37.92 12.83 51.9 9.19 9.38 19.53 13.41 34.09 13.41 29.5 0 49.79-20.3 49.79-49.79-.19-19.92-9.77-35.24-27.58-44.43-10.33-5.18-28.33-6.33-39.25-2.12zm25.48 28.15c8.43 3.45 12.64 9.96 12.64 18.96 0 16.28-20.49 26.62-33.13 16.66-5.75-4.6-9.77-15.32-8.04-21.45 2.49-8.23 12.26-16.28 19.73-16.66 1.33-.19 5.35.96 8.8 2.49zM188.52 206.12c-18.96 8.81-31.41 31.03-28.54 50.56 2.87 19.54 15.9 35.62 33.32 41.56 23.94 8.04 48.07-1.53 60.52-24.13 4.6-8.43 5.55-12.64 5.55-22.79-.19-14.36-3.45-23.17-12.45-33.52-13.97-15.89-38.67-20.87-58.4-11.68zm30.45 26.24c12.26 6.32 14.75 22.22 5.36 32.75-4.79 5.36-6.89 6.32-14.56 6.32-7.66 0-9.77-.96-14.56-6.32-15.31-17.24 3.46-43.09 23.76-32.75zM576.54 214.93c-18.58 6.32-32.56 25.47-32.56 45.01 0 6.89-.19 7.09-5.17 5.94-3.06-.58-16.66-1.72-30.45-2.3-67.6-3.45-128.51 18.19-170.83 60.52-14.56 14.56-17.43 20.3-14.56 28.54 2.11 5.75 10.73 10.53 15.9 8.81 1.92-.57 10.34-7.85 18.58-15.9 36-35.81 81.2-53.05 138.66-52.86 34.66 0 57.84 4.02 73.35 12.45 40.79 22.02 85.99-16.66 70.86-60.52-4.4-13.21-18.19-26.62-31.41-30.45-13.03-3.84-19.35-3.84-32.37.76zm31.6 32.75c4.79 4.6 5.75 7.09 5.75 14.36 0 7.47-.96 9.58-6.32 14.36-18.58 16.66-44.05-4.98-31.03-26.43 6.7-11.1 21.25-12.06 31.6-2.29zM224.91 375.61c-30.64 13.98-39.07 54.2-16.47 79.1 10.73 11.87 19.92 15.9 36.77 15.9 17.24 0 26.43-4.21 37.73-17.04 9.38-10.53 13.02-22.22 11.49-37.35-1.15-13.02-4.6-20.68-14.17-30.07-9.96-9.96-20.11-14.17-35.05-14.17-8.04-.01-15.13 1.34-20.3 3.63zm33.52 30.07c10.92 9 9.58 26.24-2.49 33.52-7.28 4.4-12.83 4.6-20.3.77-14.94-7.66-14.36-31.22.96-37.54 7.46-3.07 15.89-1.92 21.83 3.25zM723.05 681.27c-4.79 4.6-4.79 4.98-4.79 40.99 0 19.92.57 37.73 1.15 39.45 1.92 4.98 11.87 9.19 18.96 7.85 12.64-2.49 13.41-4.79 13.41-46.54v-37.35l-5.36-4.59c-7.28-6.12-17.24-6.12-23.37.19zM238.32 705.21c-9.38 3.83-10.34 8.04-10.34 44.43 0 20.68.77 35.62 2.11 38.49 4.4 9.77 19.34 11.88 27.39 4.02l4.98-5.17v-36c0-34.67-.19-36.2-4.21-40.79-4.8-5.55-13.8-7.66-19.93-4.98zM453.01 826.06c-8.23 4.79-8.62 6.7-8.62 45.01 0 41.94.77 44.24 14.56 46.16 6.32.76 8.62.19 13.41-3.83l5.55-4.79v-37.54c0-35.24-.19-37.73-4.02-41.37-4.6-4.79-15.52-6.7-20.88-3.64z"/></svg>