<svg xmlns="http://www.w3.org/2000/svg" width="32" height="32" viewBox="0 0 32 32"><path d="M14.863.363c-2.164.164-4.16.742-6.086 1.735-1.414.734-2.523 1.539-3.714 2.691C.944 8.797-.638 14.637.89 20.195c.988 3.61 3.265 6.742 6.46 8.875.883.594 2.31 1.325 3.278 1.68.805.293 2.273.66 3.191.8.91.137 3.262.16 4.11.04 2.554-.371 4.68-1.168 6.722-2.527a15.504 15.504 0 005.41-6.16c.547-1.11.817-1.825 1.102-2.926a15.609 15.609 0 00-3.89-14.84C24.601 2.379 21.186.738 17.374.383c-.617-.055-1.922-.07-2.512-.02zm3.219 1.274c5.68.847 10.29 4.91 11.906 10.48l.094.313-.594-.004c-.48 0-.644.023-.879.133-.386.18-.82.59-1.015.968l-.168.305-.028 3.8c-.027 2.727-.05 3.837-.105 3.923-.04.07-.152.203-.258.3-.152.149-.25.184-.539.204-.418.03-.68-.098-.875-.422-.117-.196-.125-.32-.125-4.66 0-4.614-.012-4.852-.258-5.336-.164-.325-.574-.723-.918-.891-1.355-.66-2.93.23-3.047 1.719l-.035.422-.27-.375c-.75-1.024-2.09-1.91-3.437-2.274-.707-.187-2.246-.207-2.941-.031-2.317.578-4.04 2.262-4.672 4.578-.121.45-.14.652-.133 1.559 0 .87.024 1.12.133 1.52.176.655.504 1.37.848 1.898.27.406 1.023 1.222 1.449 1.562l.172.145-.016 1.879c-.02 1.773-.027 1.894-.148 2.097-.364.617-1.22.66-1.602.078-.098-.152-.11-.39-.14-2.746l-.032-2.574-.156-.34a2.127 2.127 0 00-1.023-1.05c-.352-.172-.47-.204-.872-.204a2.028 2.028 0 00-1.8 1.082c-.149.27-.188.422-.223.996-.055.754-.105.926-.313 1.118-.226.203-.39.27-.68.27a.925.925 0 01-.765-.411c-.105-.152-.113-.418-.14-3.45l-.032-3.28-.168-.348a3.002 3.002 0 00-.41-.621c-.437-.477-1.304-.762-1.867-.602-.133.04-.25.055-.266.043-.035-.031.16-.887.352-1.539 1.086-3.719 3.816-6.996 7.328-8.8 1.606-.821 3.348-1.329 5.234-1.524.723-.074 2.66-.027 3.434.09zm-.656 9.554c1.824.54 3.16 1.875 3.687 3.696.828 2.855-.875 5.797-3.828 6.613-.613.172-2.015.16-2.648-.02-2.477-.71-4.086-2.921-3.953-5.41.043-.777.164-1.28.472-1.941.305-.652.54-1 1.035-1.508a5.263 5.263 0 012.856-1.55c.652-.13 1.71-.075 2.379.12zm6.476.61c.118.07.266.23.332.347.13.207.13.313.16 4.903l.032 4.687.144.309c.344.687.957 1.086 1.735 1.121 1.054.055 1.87-.559 2.11-1.574.065-.266.085-1.16.085-3.907V14.13l.14-.203c.282-.418.774-.531 1.247-.301.383.184.496.406.566 1.152.328 3.149-.629 6.778-2.492 9.446-.977 1.398-2.36 2.793-3.66 3.687-1.899 1.313-3.946 2.121-6.281 2.477-.973.152-3.063.152-4.043.008-3.153-.485-5.829-1.81-8.075-3.993-1.96-1.898-3.308-4.215-3.968-6.808-.313-1.23-.426-2.102-.426-3.43-.004-1.031.008-1.184.105-1.332.13-.191.559-.418.785-.418.27.008.645.223.797.469l.149.238.011 3.223c.012 3.113.016 3.238.141 3.574.16.418.582.871 1.012 1.078.226.11.433.16.797.172.668.031 1.082-.129 1.53-.57.43-.434.583-.832.626-1.657.023-.484.062-.652.16-.808.379-.57 1.242-.543 1.606.055.117.19.12.343.152 2.808l.031 2.606.152.304c.184.375.579.766.965.957.243.121.391.149.875.149.496 0 .625-.028.887-.157.426-.199.852-.652 1.024-1.082.136-.343.14-.418.14-2.03 0-.911.016-1.665.027-1.665.012 0 .207.067.434.145 1.106.398 2.77.457 3.813.129.105-.036.109.011.109.738 0 .777 0 .777.18.953.109.105.242.18.343.18.2 0 .496-.149.543-.278.02-.054.04-.55.04-1.11v-1.003l.23-.117c.3-.152.808-.543 1.226-.95.907-.874 1.582-2.18 1.79-3.468.03-.219.062-1.387.062-2.586 0-2.531.004-2.574.484-2.875.36-.234.864-.25 1.168-.035zm0 0"/><path d="M11.75 2.797a1.595 1.595 0 00-.54 2.691c.333.297.622.41 1.075.41.899 0 1.563-.675 1.567-1.582 0-.66-.282-1.128-.875-1.421-.41-.208-.82-.239-1.227-.098zm.816.926a.628.628 0 01.368.597c0 .192-.043.285-.215.457-.203.2-.239.211-.496.184-.332-.04-.489-.168-.582-.473a.649.649 0 01.332-.761c.242-.122.37-.122.593-.004zm0 0M24.094 5.387c-.39.14-.82.597-.957.996a1.621 1.621 0 00.41 1.66c.297.3.625.43 1.094.43.941 0 1.59-.653 1.59-1.594-.004-.637-.313-1.129-.883-1.422-.328-.168-.907-.203-1.254-.07zm.816.902c.27.11.402.32.402.606 0 .523-.656.851-1.058.535-.184-.149-.313-.492-.258-.688.078-.262.39-.52.633-.531.039-.008.168.031.281.078zm0 0M6.031 6.598c-.605.28-1.004.992-.91 1.617.09.625.508 1.14 1.066 1.328.766.258 1.536-.047 1.934-.77.149-.273.18-.406.18-.73-.008-.461-.114-.742-.399-1.074-.449-.508-1.238-.668-1.87-.371zm.977.836c.39.203.472.714.172 1.05-.157.172-.223.204-.47.204-.241 0-.312-.032-.464-.204-.488-.55.113-1.379.762-1.05zm0 0M18.45 6.879c-.595.2-1.044.812-1.044 1.437 0 .223-.004.23-.164.192-.097-.02-.535-.055-.976-.074-2.16-.11-4.11.582-5.465 1.937-.465.465-.559.649-.465.914.066.184.344.336.508.281.062-.02.332-.25.594-.507 1.152-1.149 2.597-1.7 4.437-1.692 1.11 0 1.852.13 2.348.399 1.304.703 2.75-.536 2.27-1.938-.145-.422-.587-.851-1.009-.976-.418-.122-.617-.122-1.035.027zm1.01 1.047c.153.148.185.226.185.46 0 .239-.032.305-.204.458-.593.535-1.41-.16-.992-.844.215-.355.68-.387 1.012-.074zm0 0M7.195 12.02c-.98.449-1.25 1.734-.523 2.53.34.38.637.509 1.176.509.55 0 .843-.133 1.207-.543.3-.34.418-.711.367-1.196-.035-.418-.149-.664-.453-.965-.32-.316-.645-.453-1.121-.453-.258 0-.485.043-.653.118zm1.075.96c.351.29.308.84-.079 1.075-.234.14-.41.148-.652.023-.476-.246-.457-1 .031-1.2a.676.676 0 01.7.102zm0 0M23.137 21.8c-.153.15-.153.16-.153 1.313 0 .637.02 1.207.036 1.262.062.16.382.293.609.25.402-.078.43-.152.43-1.488V21.94l-.172-.148c-.235-.195-.555-.195-.75.008zm0 0M7.625 22.566c-.3.122-.328.258-.328 1.422 0 .66.023 1.14.066 1.23.14.313.617.384.875.13l.16-.164V24.03c0-1.11-.003-1.16-.132-1.304-.157-.18-.442-.247-.641-.16zm0 0M14.496 26.434c-.262.152-.277.214-.277 1.441 0 1.34.027 1.414.469 1.477.199.023.273.007.43-.122l.175-.156v-1.199c0-1.129-.008-1.207-.129-1.324-.148-.153-.496-.215-.668-.117zm0 0"/></svg>