<svg xmlns="http://www.w3.org/2000/svg" width="40pt" height="40pt" viewBox="0 0 40 40"><path d="M18.578.453c-2.703.207-5.2.926-7.605 2.168-1.77.922-3.157 1.922-4.641 3.363-5.148 5.012-7.125 12.313-5.219 19.258 1.235 4.516 4.082 8.43 8.074 11.094 1.106.742 2.887 1.656 4.098 2.102 1.004.367 2.844.824 3.992 1 1.133.171 4.075.199 5.133.046 3.195-.457 5.852-1.453 8.402-3.156a19.404 19.404 0 006.766-7.7c.684-1.386 1.02-2.28 1.379-3.66a19.512 19.512 0 00-4.863-18.546c-3.34-3.445-7.61-5.5-12.371-5.945-.778-.07-2.407-.086-3.145-.024zm4.024 1.594c7.101 1.058 12.863 6.137 14.886 13.101l.114.391-.743-.008c-.597 0-.804.031-1.097.168-.48.223-1.024.735-1.27 1.211l-.207.383-.039 4.75c-.031 3.406-.062 4.793-.129 4.902a2.049 2.049 0 01-.324.375c-.191.184-.313.23-.672.254-.523.04-.851-.125-1.098-.531-.144-.242-.152-.398-.152-5.82 0-5.77-.016-6.067-.32-6.672-.207-.406-.723-.906-1.149-1.11-1.695-.828-3.664.282-3.808 2.145l-.047.527-.336-.468c-.934-1.278-2.613-2.387-4.297-2.84-.883-.239-2.805-.262-3.68-.04-2.894.72-5.047 2.829-5.836 5.723-.152.559-.175.813-.168 1.946 0 1.09.032 1.402.168 1.902a8.999 8.999 0 001.055 2.371c.34.508 1.281 1.527 1.817 1.957l.214.176-.023 2.351c-.024 2.215-.031 2.368-.184 2.618-.453.777-1.523.828-2 .101-.12-.191-.136-.492-.175-3.433l-.04-3.215-.199-.43a2.606 2.606 0 00-1.277-1.309c-.438-.214-.582-.253-1.09-.253-.957.007-1.8.503-2.25 1.347-.184.336-.23.528-.277 1.25-.07.942-.13 1.156-.39 1.395-.286.25-.493.336-.852.336-.383 0-.75-.2-.957-.512-.13-.191-.137-.523-.176-4.313l-.04-4.101-.206-.434a3.821 3.821 0 00-.512-.777c-.55-.598-1.633-.95-2.336-.75-.168.047-.313.066-.328.05-.047-.034.2-1.109.433-1.921 1.36-4.649 4.774-8.746 9.165-11 2.007-1.027 4.183-1.664 6.543-1.906.902-.094 3.324-.032 4.289.113zm-.82 11.945c2.284.672 3.952 2.344 4.613 4.617 1.03 3.57-1.098 7.246-4.79 8.266-.765.215-2.52.2-3.308-.023-3.094-.887-5.11-3.653-4.942-6.762.055-.973.207-1.602.59-2.43.383-.812.676-1.25 1.293-1.883a6.61 6.61 0 013.57-1.941c.813-.16 2.137-.09 2.973.156zm8.097.758c.144.09.328.29.414.438.16.257.16.39.2 6.124l.038 5.864.184.383c.43.855 1.195 1.355 2.168 1.402 1.316.066 2.336-.7 2.637-1.969.082-.332.105-1.449.105-4.883V17.66l.176-.254c.351-.52.965-.664 1.554-.375.485.23.622.508.715 1.442.407 3.937-.789 8.472-3.12 11.804-1.216 1.746-2.95 3.493-4.571 4.614-2.375 1.636-4.934 2.648-7.856 3.093-1.214.192-3.828.192-5.054.008-3.938-.605-7.285-2.262-10.09-4.988-2.45-2.375-4.137-5.27-4.965-8.512-.39-1.539-.527-2.625-.527-4.289-.008-1.285.008-1.476.133-1.664.16-.234.695-.52.976-.52.34.008.805.278.996.583l.188.3.011 4.028c.016 3.894.024 4.047.18 4.468.2.52.727 1.086 1.262 1.348.285.137.543.2.996.215.836.035 1.355-.164 1.914-.715.539-.543.73-1.039.781-2.066.031-.606.078-.82.2-1.012.476-.711 1.558-.684 2.007.07.149.235.156.426.192 3.508L11.762 32l.191.383c.23.469.723.957 1.203 1.195.309.152.492.184 1.098.184.617 0 .781-.032 1.11-.192.527-.25 1.066-.816 1.277-1.355.172-.43.18-.52.18-2.535 0-1.14.011-2.082.027-2.082.015 0 .261.082.547.183 1.378.496 3.46.567 4.761.16.133-.046.14.016.14.918 0 .973 0 .973.224 1.196.136.133.304.222.425.222.254 0 .621-.183.684-.343.023-.07.047-.692.047-1.387v-1.258l.289-.144c.375-.192 1.012-.684 1.531-1.188 1.137-1.094 1.977-2.727 2.238-4.336.04-.277.078-1.73.078-3.234 0-3.164.008-3.215.606-3.59.45-.293 1.078-.317 1.46-.047zm0 0"/><path d="M14.688 3.496c-1.43.512-1.801 2.344-.672 3.363.414.375.773.512 1.34.512 1.124 0 1.953-.844 1.96-1.976 0-.829-.351-1.41-1.093-1.778-.516-.262-1.028-.297-1.535-.12zm1.019 1.156c.305.16.461.407.461.75 0 .239-.055.352-.27.567-.253.254-.296.27-.62.23-.415-.047-.614-.207-.727-.59a.814.814 0 01.414-.949c.305-.152.465-.152.742-.008zm0 0M30.117 6.734c-.492.176-1.027.746-1.195 1.243-.238.726-.047 1.515.512 2.078.367.375.78.535 1.363.535 1.18 0 1.992-.813 1.992-1.992-.008-.797-.39-1.41-1.102-1.778-.414-.207-1.132-.254-1.57-.086zm1.02 1.13c.336.136.504.398.504.757 0 .649-.82 1.063-1.325.664-.23-.183-.39-.613-.32-.855.098-.332.488-.653.79-.668.05-.008.21.039.35.101zm0 0M7.54 8.246c-.759.352-1.255 1.238-1.142 2.02.118.78.637 1.425 1.332 1.664.961.32 1.926-.063 2.422-.965.184-.336.223-.508.223-.91-.008-.578-.137-.93-.5-1.344-.559-.633-1.547-.832-2.336-.465zm1.218 1.047c.492.254.59.89.215 1.312-.192.215-.274.25-.582.25-.305 0-.391-.035-.582-.25-.614-.69.136-1.726.949-1.312zm0 0M23.063 8.598c-.743.254-1.305 1.02-1.305 1.8 0 .274-.008.282-.207.239-.121-.024-.664-.07-1.215-.094-2.707-.137-5.14.727-6.836 2.422-.582.582-.695.812-.582 1.14.086.23.43.422.637.352.078-.023.414-.312.742-.637 1.441-1.43 3.25-2.12 5.547-2.113 1.386 0 2.312.16 2.933.5 1.633.879 3.442-.668 2.836-2.422-.175-.527-.726-1.066-1.258-1.219-.52-.152-.773-.152-1.293.032zm1.261 1.308c.192.184.23.285.23.574 0 .301-.038.383-.25.575-.745.668-1.765-.2-1.241-1.055.265-.445.847-.484 1.261-.094zm0 0M8.996 15.023c-1.226.559-1.562 2.168-.66 3.165.43.476.797.636 1.473.636.687 0 1.058-.168 1.507-.68.375-.421.524-.89.461-1.496-.047-.52-.183-.828-.566-1.203-.399-.398-.805-.566-1.402-.566-.32 0-.606.055-.813.144zm1.34 1.204a.826.826 0 01-.098 1.34c-.293.175-.515.187-.812.03-.598-.304-.574-1.245.039-1.5a.83.83 0 01.87.13zm0 0M28.922 27.25c-.192.184-.192.2-.192 1.64 0 .797.024 1.508.047 1.579.075.199.473.367.758.312.504-.097.535-.191.535-1.86v-1.495l-.215-.184c-.289-.242-.687-.242-.933.008zm0 0M9.531 28.207c-.375.156-.41.324-.41 1.777 0 .828.027 1.426.082 1.54.176.39.774.476 1.098.163l.199-.207v-1.44c0-1.388-.008-1.45-.172-1.634-.191-.218-.55-.304-.797-.199zm0 0M18.121 33.043c-.328.191-.344.266-.344 1.8 0 1.677.028 1.77.582 1.844.25.032.344.008.536-.152l.222-.191v-1.5c0-1.41-.008-1.512-.16-1.657-.184-.19-.621-.265-.836-.144zm0 0"/></svg>