<?xml version="1.0" encoding="UTF-8"?>
<svg xmlns="http://www.w3.org/2000/svg" xmlns:xlink="http://www.w3.org/1999/xlink" width="32pt" height="32pt" viewBox="0 0 32 32" version="1.1">
<g id="surface1">
<path style=" stroke:none;fill-rule:nonzero;fill:rgb(0%,0%,0%);fill-opacity:1;" d="M 14.863281 0.363281 C 12.699219 0.527344 10.703125 1.105469 8.777344 2.097656 C 7.363281 2.832031 6.253906 3.636719 5.0625 4.789062 C 0.945312 8.796875 -0.636719 14.636719 0.890625 20.195312 C 1.878906 23.804688 4.15625 26.9375 7.351562 29.070312 C 8.234375 29.664062 9.660156 30.394531 10.628906 30.75 C 11.433594 31.042969 12.902344 31.410156 13.820312 31.550781 C 14.730469 31.6875 17.082031 31.710938 17.929688 31.589844 C 20.484375 31.21875 22.609375 30.421875 24.652344 29.0625 C 27 27.507812 28.835938 25.410156 30.0625 22.902344 C 30.609375 21.792969 30.878906 21.078125 31.164062 19.976562 C 32.558594 14.691406 31.078125 9.066406 27.273438 5.136719 C 24.601562 2.378906 21.1875 0.738281 17.375 0.382812 C 16.757812 0.328125 15.453125 0.3125 14.863281 0.363281 Z M 18.082031 1.636719 C 23.761719 2.484375 28.371094 6.546875 29.988281 12.117188 L 30.082031 12.429688 L 29.488281 12.425781 C 29.007812 12.425781 28.84375 12.449219 28.609375 12.558594 C 28.222656 12.738281 27.789062 13.148438 27.59375 13.527344 L 27.425781 13.832031 L 27.398438 17.632812 C 27.371094 20.359375 27.347656 21.46875 27.292969 21.554688 C 27.253906 21.625 27.140625 21.757812 27.035156 21.855469 C 26.882812 22.003906 26.785156 22.039062 26.496094 22.058594 C 26.078125 22.089844 25.816406 21.960938 25.621094 21.636719 C 25.503906 21.441406 25.496094 21.316406 25.496094 16.976562 C 25.496094 12.363281 25.484375 12.125 25.238281 11.640625 C 25.074219 11.316406 24.664062 10.917969 24.320312 10.75 C 22.964844 10.089844 21.390625 10.980469 21.273438 12.46875 L 21.238281 12.890625 L 20.96875 12.515625 C 20.21875 11.492188 18.878906 10.605469 17.53125 10.242188 C 16.824219 10.054688 15.285156 10.035156 14.589844 10.210938 C 12.273438 10.789062 10.550781 12.472656 9.917969 14.789062 C 9.796875 15.238281 9.777344 15.441406 9.785156 16.347656 C 9.785156 17.21875 9.808594 17.46875 9.917969 17.867188 C 10.09375 18.523438 10.421875 19.238281 10.765625 19.765625 C 11.035156 20.171875 11.789062 20.988281 12.214844 21.328125 L 12.386719 21.472656 L 12.371094 23.351562 C 12.351562 25.125 12.34375 25.246094 12.222656 25.449219 C 11.859375 26.066406 11.003906 26.109375 10.621094 25.527344 C 10.523438 25.375 10.511719 25.136719 10.480469 22.78125 L 10.449219 20.207031 L 10.292969 19.867188 C 10.066406 19.382812 9.738281 19.050781 9.269531 18.816406 C 8.917969 18.644531 8.800781 18.613281 8.398438 18.613281 C 7.632812 18.621094 6.957031 19.019531 6.597656 19.695312 C 6.449219 19.964844 6.410156 20.117188 6.375 20.691406 C 6.320312 21.445312 6.269531 21.617188 6.0625 21.808594 C 5.835938 22.011719 5.671875 22.078125 5.382812 22.078125 C 5.074219 22.078125 4.78125 21.917969 4.617188 21.667969 C 4.511719 21.515625 4.503906 21.25 4.476562 18.21875 L 4.445312 14.9375 L 4.277344 14.589844 C 4.191406 14.398438 4.003906 14.125 3.867188 13.96875 C 3.429688 13.492188 2.5625 13.207031 2 13.367188 C 1.867188 13.40625 1.75 13.421875 1.734375 13.410156 C 1.699219 13.378906 1.894531 12.523438 2.085938 11.871094 C 3.171875 8.152344 5.902344 4.875 9.414062 3.070312 C 11.019531 2.25 12.761719 1.742188 14.648438 1.546875 C 15.371094 1.472656 17.308594 1.519531 18.082031 1.636719 Z M 17.425781 11.191406 C 19.25 11.730469 20.585938 13.066406 21.113281 14.886719 C 21.941406 17.742188 20.238281 20.683594 17.285156 21.5 C 16.671875 21.671875 15.269531 21.660156 14.636719 21.480469 C 12.160156 20.769531 10.550781 18.558594 10.683594 16.070312 C 10.726562 15.292969 10.847656 14.789062 11.15625 14.128906 C 11.460938 13.476562 11.695312 13.128906 12.191406 12.621094 C 12.976562 11.804688 13.925781 11.289062 15.046875 11.070312 C 15.699219 10.941406 16.757812 10.996094 17.425781 11.191406 Z M 23.902344 11.800781 C 24.019531 11.871094 24.167969 12.03125 24.234375 12.148438 C 24.363281 12.355469 24.363281 12.460938 24.394531 17.050781 L 24.425781 21.738281 L 24.570312 22.046875 C 24.914062 22.734375 25.527344 23.132812 26.304688 23.167969 C 27.359375 23.222656 28.175781 22.609375 28.414062 21.59375 C 28.480469 21.328125 28.5 20.433594 28.5 17.6875 L 28.5 14.128906 L 28.640625 13.925781 C 28.921875 13.507812 29.414062 13.394531 29.886719 13.625 C 30.269531 13.808594 30.382812 14.03125 30.453125 14.777344 C 30.78125 17.925781 29.824219 21.554688 27.960938 24.222656 C 26.984375 25.621094 25.601562 27.015625 24.300781 27.910156 C 22.402344 29.222656 20.355469 30.03125 18.019531 30.386719 C 17.046875 30.539062 14.957031 30.539062 13.976562 30.394531 C 10.824219 29.910156 8.148438 28.585938 5.902344 26.402344 C 3.941406 24.503906 2.59375 22.1875 1.933594 19.59375 C 1.621094 18.363281 1.507812 17.492188 1.507812 16.164062 C 1.503906 15.132812 1.515625 14.980469 1.613281 14.832031 C 1.742188 14.640625 2.171875 14.414062 2.398438 14.414062 C 2.667969 14.421875 3.042969 14.636719 3.195312 14.882812 L 3.34375 15.121094 L 3.355469 18.34375 C 3.367188 21.457031 3.371094 21.582031 3.496094 21.917969 C 3.65625 22.335938 4.078125 22.789062 4.507812 22.996094 C 4.734375 23.105469 4.941406 23.15625 5.304688 23.167969 C 5.972656 23.199219 6.386719 23.039062 6.835938 22.597656 C 7.265625 22.164062 7.417969 21.765625 7.460938 20.941406 C 7.484375 20.457031 7.523438 20.289062 7.621094 20.132812 C 8 19.5625 8.863281 19.589844 9.226562 20.1875 C 9.34375 20.378906 9.347656 20.53125 9.378906 22.996094 L 9.410156 25.601562 L 9.5625 25.90625 C 9.746094 26.28125 10.140625 26.671875 10.527344 26.863281 C 10.769531 26.984375 10.917969 27.011719 11.402344 27.011719 C 11.898438 27.011719 12.027344 26.984375 12.289062 26.855469 C 12.714844 26.65625 13.140625 26.203125 13.3125 25.773438 C 13.449219 25.429688 13.453125 25.355469 13.453125 23.742188 C 13.453125 22.832031 13.46875 22.078125 13.480469 22.078125 C 13.492188 22.078125 13.6875 22.144531 13.914062 22.222656 C 15.019531 22.621094 16.683594 22.679688 17.726562 22.351562 C 17.832031 22.316406 17.835938 22.363281 17.835938 23.089844 C 17.835938 23.867188 17.835938 23.867188 18.015625 24.042969 C 18.125 24.148438 18.257812 24.222656 18.359375 24.222656 C 18.558594 24.222656 18.855469 24.074219 18.902344 23.945312 C 18.921875 23.890625 18.941406 23.394531 18.941406 22.835938 L 18.941406 21.832031 L 19.171875 21.714844 C 19.472656 21.5625 19.980469 21.171875 20.398438 20.765625 C 21.304688 19.890625 21.980469 18.585938 22.1875 17.296875 C 22.21875 17.078125 22.25 15.910156 22.25 14.710938 C 22.25 12.179688 22.253906 12.136719 22.734375 11.835938 C 23.09375 11.601562 23.597656 11.585938 23.902344 11.800781 Z M 23.902344 11.800781 "/>
<path style=" stroke:none;fill-rule:nonzero;fill:rgb(0%,0%,0%);fill-opacity:1;" d="M 11.75 2.796875 C 10.605469 3.207031 10.308594 4.671875 11.210938 5.488281 C 11.542969 5.785156 11.832031 5.898438 12.285156 5.898438 C 13.183594 5.898438 13.847656 5.222656 13.851562 4.316406 C 13.851562 3.65625 13.570312 3.1875 12.976562 2.894531 C 12.566406 2.6875 12.15625 2.65625 11.75 2.796875 Z M 12.566406 3.722656 C 12.8125 3.851562 12.933594 4.046875 12.933594 4.320312 C 12.933594 4.511719 12.890625 4.605469 12.71875 4.777344 C 12.515625 4.976562 12.480469 4.988281 12.222656 4.960938 C 11.890625 4.921875 11.734375 4.792969 11.640625 4.488281 C 11.546875 4.195312 11.695312 3.867188 11.972656 3.726562 C 12.214844 3.605469 12.34375 3.605469 12.566406 3.722656 Z M 12.566406 3.722656 "/>
<path style=" stroke:none;fill-rule:nonzero;fill:rgb(0%,0%,0%);fill-opacity:1;" d="M 24.09375 5.386719 C 23.703125 5.527344 23.273438 5.984375 23.136719 6.382812 C 22.945312 6.964844 23.101562 7.59375 23.546875 8.042969 C 23.84375 8.34375 24.171875 8.472656 24.640625 8.472656 C 25.582031 8.472656 26.230469 7.820312 26.230469 6.878906 C 26.226562 6.242188 25.917969 5.75 25.347656 5.457031 C 25.019531 5.289062 24.441406 5.253906 24.09375 5.386719 Z M 24.910156 6.289062 C 25.179688 6.398438 25.3125 6.609375 25.3125 6.894531 C 25.3125 7.417969 24.65625 7.746094 24.253906 7.429688 C 24.070312 7.28125 23.941406 6.9375 23.996094 6.742188 C 24.074219 6.480469 24.386719 6.222656 24.628906 6.210938 C 24.667969 6.203125 24.796875 6.242188 24.910156 6.289062 Z M 24.910156 6.289062 "/>
<path style=" stroke:none;fill-rule:nonzero;fill:rgb(0%,0%,0%);fill-opacity:1;" d="M 6.03125 6.597656 C 5.425781 6.878906 5.027344 7.589844 5.121094 8.214844 C 5.210938 8.839844 5.628906 9.355469 6.1875 9.542969 C 6.953125 9.800781 7.722656 9.496094 8.121094 8.773438 C 8.269531 8.5 8.300781 8.367188 8.300781 8.042969 C 8.292969 7.582031 8.1875 7.300781 7.902344 6.96875 C 7.453125 6.460938 6.664062 6.300781 6.03125 6.597656 Z M 7.007812 7.433594 C 7.398438 7.636719 7.480469 8.148438 7.179688 8.484375 C 7.023438 8.65625 6.957031 8.6875 6.710938 8.6875 C 6.46875 8.6875 6.398438 8.65625 6.246094 8.484375 C 5.757812 7.933594 6.359375 7.105469 7.007812 7.433594 Z M 7.007812 7.433594 "/>
<path style=" stroke:none;fill-rule:nonzero;fill:rgb(0%,0%,0%);fill-opacity:1;" d="M 18.449219 6.878906 C 17.855469 7.078125 17.40625 7.691406 17.40625 8.316406 C 17.40625 8.539062 17.402344 8.546875 17.242188 8.507812 C 17.144531 8.488281 16.707031 8.453125 16.265625 8.433594 C 14.105469 8.324219 12.15625 9.015625 10.800781 10.371094 C 10.335938 10.835938 10.242188 11.019531 10.335938 11.285156 C 10.402344 11.46875 10.679688 11.621094 10.84375 11.566406 C 10.90625 11.546875 11.175781 11.316406 11.4375 11.058594 C 12.589844 9.910156 14.035156 9.359375 15.875 9.367188 C 16.984375 9.367188 17.726562 9.496094 18.222656 9.765625 C 19.527344 10.46875 20.972656 9.230469 20.492188 7.828125 C 20.347656 7.40625 19.90625 6.976562 19.484375 6.851562 C 19.066406 6.730469 18.867188 6.730469 18.449219 6.878906 Z M 19.460938 7.925781 C 19.613281 8.074219 19.644531 8.152344 19.644531 8.386719 C 19.644531 8.625 19.613281 8.691406 19.441406 8.84375 C 18.847656 9.378906 18.03125 8.683594 18.449219 8 C 18.664062 7.644531 19.128906 7.613281 19.460938 7.925781 Z M 19.460938 7.925781 "/>
<path style=" stroke:none;fill-rule:nonzero;fill:rgb(0%,0%,0%);fill-opacity:1;" d="M 7.195312 12.019531 C 6.214844 12.46875 5.945312 13.753906 6.671875 14.550781 C 7.011719 14.929688 7.308594 15.058594 7.847656 15.058594 C 8.398438 15.058594 8.691406 14.925781 9.054688 14.515625 C 9.355469 14.175781 9.472656 13.804688 9.421875 13.320312 C 9.386719 12.902344 9.273438 12.65625 8.96875 12.355469 C 8.648438 12.039062 8.324219 11.902344 7.847656 11.902344 C 7.589844 11.902344 7.363281 11.945312 7.195312 12.019531 Z M 8.269531 12.980469 C 8.621094 13.269531 8.578125 13.820312 8.191406 14.054688 C 7.957031 14.195312 7.78125 14.203125 7.539062 14.078125 C 7.0625 13.832031 7.082031 13.078125 7.570312 12.878906 C 7.808594 12.78125 8.078125 12.816406 8.269531 12.980469 Z M 8.269531 12.980469 "/>
<path style=" stroke:none;fill-rule:nonzero;fill:rgb(0%,0%,0%);fill-opacity:1;" d="M 23.136719 21.800781 C 22.984375 21.949219 22.984375 21.960938 22.984375 23.113281 C 22.984375 23.75 23.003906 24.320312 23.019531 24.375 C 23.082031 24.535156 23.402344 24.667969 23.628906 24.625 C 24.03125 24.546875 24.058594 24.472656 24.058594 23.136719 L 24.058594 21.941406 L 23.886719 21.792969 C 23.652344 21.597656 23.332031 21.597656 23.136719 21.800781 Z M 23.136719 21.800781 "/>
<path style=" stroke:none;fill-rule:nonzero;fill:rgb(0%,0%,0%);fill-opacity:1;" d="M 7.625 22.566406 C 7.324219 22.6875 7.296875 22.824219 7.296875 23.988281 C 7.296875 24.648438 7.320312 25.128906 7.363281 25.21875 C 7.503906 25.53125 7.980469 25.601562 8.238281 25.347656 L 8.398438 25.183594 L 8.398438 24.03125 C 8.398438 22.921875 8.394531 22.871094 8.265625 22.726562 C 8.109375 22.546875 7.824219 22.480469 7.625 22.566406 Z M 7.625 22.566406 "/>
<path style=" stroke:none;fill-rule:nonzero;fill:rgb(0%,0%,0%);fill-opacity:1;" d="M 14.496094 26.433594 C 14.234375 26.585938 14.21875 26.648438 14.21875 27.875 C 14.21875 29.214844 14.246094 29.289062 14.6875 29.351562 C 14.886719 29.375 14.960938 29.359375 15.117188 29.230469 L 15.292969 29.074219 L 15.292969 27.875 C 15.292969 26.746094 15.285156 26.667969 15.164062 26.550781 C 15.015625 26.398438 14.667969 26.335938 14.496094 26.433594 Z M 14.496094 26.433594 "/>
</g>
</svg>
