<?xml version="1.0" encoding="UTF-8"?>
<svg xmlns="http://www.w3.org/2000/svg" xmlns:xlink="http://www.w3.org/1999/xlink" width="40pt" height="40pt" viewBox="0 0 40 40" version="1.1">
<g id="surface1">
<path style=" stroke:none;fill-rule:nonzero;fill:rgb(0%,0%,0%);fill-opacity:1;" d="M 18.578125 0.453125 C 15.875 0.660156 13.378906 1.378906 10.972656 2.621094 C 9.203125 3.542969 7.816406 4.542969 6.332031 5.984375 C 1.183594 10.996094 -0.792969 18.296875 1.113281 25.242188 C 2.347656 29.757812 5.195312 33.671875 9.1875 36.335938 C 10.292969 37.078125 12.074219 37.992188 13.285156 38.4375 C 14.289062 38.804688 16.128906 39.261719 17.277344 39.4375 C 18.410156 39.609375 21.351562 39.636719 22.410156 39.484375 C 25.605469 39.027344 28.261719 38.03125 30.8125 36.328125 C 33.746094 34.382812 36.046875 31.761719 37.578125 28.628906 C 38.261719 27.242188 38.597656 26.347656 38.957031 24.96875 C 40.695312 18.363281 38.851562 11.332031 34.09375 6.421875 C 30.753906 2.976562 26.484375 0.921875 21.722656 0.476562 C 20.945312 0.40625 19.316406 0.390625 18.578125 0.453125 Z M 22.601562 2.046875 C 29.703125 3.105469 35.464844 8.183594 37.488281 15.148438 L 37.601562 15.539062 L 36.859375 15.53125 C 36.261719 15.53125 36.054688 15.5625 35.761719 15.699219 C 35.28125 15.921875 34.738281 16.433594 34.492188 16.910156 L 34.285156 17.292969 L 34.246094 22.042969 C 34.214844 25.449219 34.183594 26.835938 34.117188 26.945312 C 34.070312 27.027344 33.925781 27.199219 33.792969 27.320312 C 33.601562 27.503906 33.480469 27.550781 33.121094 27.574219 C 32.597656 27.613281 32.269531 27.449219 32.023438 27.042969 C 31.878906 26.800781 31.871094 26.644531 31.871094 21.222656 C 31.871094 15.453125 31.855469 15.15625 31.550781 14.550781 C 31.34375 14.144531 30.828125 13.644531 30.402344 13.441406 C 28.707031 12.613281 26.738281 13.722656 26.59375 15.585938 L 26.546875 16.113281 L 26.210938 15.644531 C 25.277344 14.367188 23.597656 13.257812 21.914062 12.804688 C 21.03125 12.566406 19.109375 12.542969 18.234375 12.765625 C 15.339844 13.484375 13.1875 15.59375 12.398438 18.488281 C 12.246094 19.046875 12.222656 19.300781 12.230469 20.433594 C 12.230469 21.523438 12.261719 21.835938 12.398438 22.335938 C 12.621094 23.152344 13.027344 24.050781 13.453125 24.707031 C 13.792969 25.214844 14.734375 26.234375 15.269531 26.664062 L 15.484375 26.839844 L 15.460938 29.191406 C 15.4375 31.40625 15.429688 31.558594 15.277344 31.808594 C 14.824219 32.585938 13.753906 32.636719 13.277344 31.910156 C 13.15625 31.71875 13.140625 31.417969 13.101562 28.476562 L 13.0625 25.261719 L 12.863281 24.832031 C 12.582031 24.226562 12.175781 23.8125 11.585938 23.523438 C 11.148438 23.308594 11.003906 23.269531 10.496094 23.269531 C 9.539062 23.277344 8.695312 23.773438 8.246094 24.617188 C 8.0625 24.953125 8.015625 25.144531 7.96875 25.867188 C 7.898438 26.808594 7.839844 27.023438 7.578125 27.261719 C 7.292969 27.511719 7.085938 27.597656 6.726562 27.597656 C 6.34375 27.597656 5.976562 27.398438 5.769531 27.085938 C 5.640625 26.894531 5.632812 26.5625 5.59375 22.773438 L 5.554688 18.671875 L 5.347656 18.238281 C 5.242188 18 5.003906 17.65625 4.835938 17.460938 C 4.285156 16.863281 3.203125 16.511719 2.5 16.710938 C 2.332031 16.757812 2.1875 16.777344 2.171875 16.761719 C 2.125 16.726562 2.371094 15.652344 2.605469 14.839844 C 3.964844 10.191406 7.378906 6.09375 11.769531 3.839844 C 13.777344 2.8125 15.953125 2.175781 18.3125 1.933594 C 19.214844 1.839844 21.636719 1.902344 22.601562 2.046875 Z M 21.78125 13.992188 C 24.066406 14.664062 25.734375 16.335938 26.394531 18.609375 C 27.425781 22.179688 25.296875 25.855469 21.605469 26.875 C 20.839844 27.089844 19.085938 27.074219 18.296875 26.851562 C 15.203125 25.964844 13.1875 23.199219 13.355469 20.089844 C 13.410156 19.117188 13.5625 18.488281 13.945312 17.660156 C 14.328125 16.847656 14.621094 16.410156 15.238281 15.777344 C 16.21875 14.757812 17.40625 14.113281 18.808594 13.835938 C 19.621094 13.675781 20.945312 13.746094 21.78125 13.992188 Z M 29.878906 14.75 C 30.023438 14.839844 30.207031 15.039062 30.292969 15.1875 C 30.453125 15.445312 30.453125 15.578125 30.492188 21.3125 L 30.53125 27.175781 L 30.714844 27.558594 C 31.144531 28.414062 31.910156 28.914062 32.882812 28.960938 C 34.199219 29.027344 35.21875 28.261719 35.519531 26.992188 C 35.601562 26.660156 35.625 25.542969 35.625 22.109375 L 35.625 17.660156 L 35.800781 17.40625 C 36.152344 16.886719 36.765625 16.742188 37.355469 17.03125 C 37.839844 17.261719 37.976562 17.539062 38.070312 18.472656 C 38.476562 22.410156 37.28125 26.945312 34.949219 30.277344 C 33.734375 32.023438 32 33.769531 30.378906 34.890625 C 28.003906 36.527344 25.445312 37.539062 22.523438 37.984375 C 21.308594 38.175781 18.695312 38.175781 17.46875 37.992188 C 13.53125 37.386719 10.183594 35.730469 7.378906 33.003906 C 4.929688 30.628906 3.242188 27.734375 2.414062 24.492188 C 2.023438 22.953125 1.886719 21.867188 1.886719 20.203125 C 1.878906 18.917969 1.894531 18.726562 2.019531 18.539062 C 2.179688 18.304688 2.714844 18.019531 2.996094 18.019531 C 3.335938 18.027344 3.800781 18.296875 3.992188 18.601562 L 4.179688 18.902344 L 4.191406 22.929688 C 4.207031 26.824219 4.214844 26.976562 4.371094 27.398438 C 4.570312 27.917969 5.097656 28.484375 5.632812 28.746094 C 5.917969 28.882812 6.175781 28.945312 6.628906 28.960938 C 7.464844 28.996094 7.984375 28.796875 8.542969 28.246094 C 9.082031 27.703125 9.273438 27.207031 9.324219 26.179688 C 9.355469 25.574219 9.402344 25.359375 9.523438 25.167969 C 10 24.457031 11.082031 24.484375 11.53125 25.238281 C 11.679688 25.472656 11.6875 25.664062 11.722656 28.746094 L 11.761719 32 L 11.953125 32.382812 C 12.183594 32.851562 12.675781 33.339844 13.15625 33.578125 C 13.464844 33.730469 13.648438 33.761719 14.253906 33.761719 C 14.871094 33.761719 15.035156 33.730469 15.363281 33.570312 C 15.890625 33.320312 16.429688 32.753906 16.640625 32.214844 C 16.8125 31.785156 16.820312 31.695312 16.820312 29.679688 C 16.820312 28.539062 16.832031 27.597656 16.847656 27.597656 C 16.863281 27.597656 17.109375 27.679688 17.394531 27.78125 C 18.773438 28.277344 20.855469 28.347656 22.15625 27.941406 C 22.289062 27.894531 22.296875 27.957031 22.296875 28.859375 C 22.296875 29.832031 22.296875 29.832031 22.519531 30.054688 C 22.65625 30.1875 22.824219 30.277344 22.945312 30.277344 C 23.199219 30.277344 23.566406 30.09375 23.628906 29.933594 C 23.652344 29.863281 23.675781 29.242188 23.675781 28.546875 L 23.675781 27.289062 L 23.964844 27.144531 C 24.339844 26.953125 24.976562 26.460938 25.496094 25.957031 C 26.632812 24.863281 27.472656 23.230469 27.734375 21.621094 C 27.773438 21.34375 27.8125 19.890625 27.8125 18.386719 C 27.8125 15.222656 27.820312 15.171875 28.417969 14.796875 C 28.867188 14.503906 29.496094 14.480469 29.878906 14.75 Z M 29.878906 14.75 "/>
<path style=" stroke:none;fill-rule:nonzero;fill:rgb(0%,0%,0%);fill-opacity:1;" d="M 14.6875 3.496094 C 13.257812 4.007812 12.886719 5.839844 14.015625 6.859375 C 14.429688 7.234375 14.789062 7.371094 15.355469 7.371094 C 16.480469 7.371094 17.308594 6.527344 17.316406 5.394531 C 17.316406 4.566406 16.964844 3.984375 16.222656 3.617188 C 15.707031 3.355469 15.195312 3.320312 14.6875 3.496094 Z M 15.707031 4.652344 C 16.011719 4.8125 16.167969 5.058594 16.167969 5.402344 C 16.167969 5.640625 16.113281 5.753906 15.898438 5.96875 C 15.644531 6.222656 15.601562 6.238281 15.277344 6.199219 C 14.863281 6.152344 14.664062 5.992188 14.550781 5.609375 C 14.4375 5.242188 14.621094 4.835938 14.964844 4.660156 C 15.269531 4.507812 15.429688 4.507812 15.707031 4.652344 Z M 15.707031 4.652344 "/>
<path style=" stroke:none;fill-rule:nonzero;fill:rgb(0%,0%,0%);fill-opacity:1;" d="M 30.117188 6.734375 C 29.625 6.910156 29.089844 7.480469 28.921875 7.976562 C 28.683594 8.703125 28.875 9.492188 29.433594 10.054688 C 29.800781 10.429688 30.214844 10.589844 30.796875 10.589844 C 31.976562 10.589844 32.789062 9.777344 32.789062 8.597656 C 32.78125 7.800781 32.398438 7.1875 31.6875 6.820312 C 31.273438 6.613281 30.554688 6.566406 30.117188 6.734375 Z M 31.136719 7.863281 C 31.472656 8 31.640625 8.261719 31.640625 8.621094 C 31.640625 9.269531 30.820312 9.683594 30.316406 9.285156 C 30.085938 9.101562 29.925781 8.671875 29.996094 8.429688 C 30.09375 8.097656 30.484375 7.777344 30.785156 7.761719 C 30.835938 7.753906 30.996094 7.800781 31.136719 7.863281 Z M 31.136719 7.863281 "/>
<path style=" stroke:none;fill-rule:nonzero;fill:rgb(0%,0%,0%);fill-opacity:1;" d="M 7.539062 8.246094 C 6.78125 8.597656 6.285156 9.484375 6.398438 10.265625 C 6.515625 11.046875 7.035156 11.691406 7.730469 11.929688 C 8.691406 12.25 9.65625 11.867188 10.152344 10.964844 C 10.335938 10.628906 10.375 10.457031 10.375 10.054688 C 10.367188 9.476562 10.238281 9.125 9.875 8.710938 C 9.316406 8.078125 8.328125 7.878906 7.539062 8.246094 Z M 8.757812 9.292969 C 9.25 9.546875 9.347656 10.183594 8.972656 10.605469 C 8.78125 10.820312 8.699219 10.855469 8.390625 10.855469 C 8.085938 10.855469 8 10.820312 7.808594 10.605469 C 7.195312 9.914062 7.945312 8.878906 8.757812 9.292969 Z M 8.757812 9.292969 "/>
<path style=" stroke:none;fill-rule:nonzero;fill:rgb(0%,0%,0%);fill-opacity:1;" d="M 23.0625 8.597656 C 22.320312 8.851562 21.757812 9.617188 21.757812 10.398438 C 21.757812 10.671875 21.75 10.679688 21.550781 10.636719 C 21.429688 10.613281 20.886719 10.566406 20.335938 10.542969 C 17.628906 10.40625 15.195312 11.269531 13.5 12.964844 C 12.917969 13.546875 12.804688 13.777344 12.917969 14.105469 C 13.003906 14.335938 13.347656 14.527344 13.554688 14.457031 C 13.632812 14.433594 13.96875 14.144531 14.296875 13.820312 C 15.738281 12.390625 17.546875 11.699219 19.84375 11.707031 C 21.230469 11.707031 22.15625 11.867188 22.777344 12.207031 C 24.410156 13.085938 26.21875 11.539062 25.613281 9.785156 C 25.4375 9.257812 24.886719 8.71875 24.355469 8.566406 C 23.835938 8.414062 23.582031 8.414062 23.0625 8.597656 Z M 24.324219 9.90625 C 24.515625 10.089844 24.554688 10.191406 24.554688 10.480469 C 24.554688 10.78125 24.515625 10.863281 24.304688 11.054688 C 23.558594 11.722656 22.539062 10.855469 23.0625 10 C 23.328125 9.554688 23.910156 9.515625 24.324219 9.90625 Z M 24.324219 9.90625 "/>
<path style=" stroke:none;fill-rule:nonzero;fill:rgb(0%,0%,0%);fill-opacity:1;" d="M 8.996094 15.023438 C 7.769531 15.582031 7.433594 17.191406 8.335938 18.1875 C 8.765625 18.664062 9.132812 18.824219 9.808594 18.824219 C 10.496094 18.824219 10.867188 18.65625 11.316406 18.144531 C 11.691406 17.722656 11.839844 17.253906 11.777344 16.648438 C 11.730469 16.128906 11.59375 15.820312 11.210938 15.445312 C 10.8125 15.046875 10.40625 14.878906 9.808594 14.878906 C 9.488281 14.878906 9.203125 14.933594 8.996094 15.023438 Z M 10.335938 16.226562 C 10.773438 16.585938 10.71875 17.277344 10.238281 17.566406 C 9.945312 17.742188 9.722656 17.753906 9.425781 17.597656 C 8.828125 17.292969 8.851562 16.351562 9.464844 16.097656 C 9.761719 15.972656 10.097656 16.019531 10.335938 16.226562 Z M 10.335938 16.226562 "/>
<path style=" stroke:none;fill-rule:nonzero;fill:rgb(0%,0%,0%);fill-opacity:1;" d="M 28.921875 27.25 C 28.730469 27.433594 28.730469 27.449219 28.730469 28.890625 C 28.730469 29.6875 28.753906 30.398438 28.777344 30.46875 C 28.851562 30.667969 29.25 30.835938 29.535156 30.78125 C 30.039062 30.683594 30.070312 30.589844 30.070312 28.921875 L 30.070312 27.425781 L 29.855469 27.242188 C 29.566406 27 29.167969 27 28.921875 27.25 Z M 28.921875 27.25 "/>
<path style=" stroke:none;fill-rule:nonzero;fill:rgb(0%,0%,0%);fill-opacity:1;" d="M 9.53125 28.207031 C 9.15625 28.363281 9.121094 28.53125 9.121094 29.984375 C 9.121094 30.8125 9.148438 31.410156 9.203125 31.523438 C 9.378906 31.914062 9.976562 32 10.300781 31.6875 L 10.5 31.480469 L 10.5 30.039062 C 10.5 28.652344 10.492188 28.589844 10.328125 28.40625 C 10.136719 28.1875 9.777344 28.101562 9.53125 28.207031 Z M 9.53125 28.207031 "/>
<path style=" stroke:none;fill-rule:nonzero;fill:rgb(0%,0%,0%);fill-opacity:1;" d="M 18.121094 33.042969 C 17.792969 33.234375 17.777344 33.308594 17.777344 34.84375 C 17.777344 36.519531 17.804688 36.613281 18.359375 36.6875 C 18.609375 36.71875 18.703125 36.695312 18.894531 36.535156 L 19.117188 36.34375 L 19.117188 34.84375 C 19.117188 33.433594 19.109375 33.332031 18.957031 33.1875 C 18.773438 32.996094 18.335938 32.921875 18.121094 33.042969 Z M 18.121094 33.042969 "/>
</g>
</svg>
