<?xml version="1.0" encoding="utf-8"?>
<!-- Svg Vector Icons : http://www.onlinewebfonts.com/icon -->
<!DOCTYPE svg PUBLIC "-//W3C//DTD SVG 1.1//EN" "http://www.w3.org/Graphics/SVG/1.1/DTD/svg11.dtd">
<svg version="1.1" xmlns="http://www.w3.org/2000/svg" xmlns:xlink="http://www.w3.org/1999/xlink" x="0px" y="0px" viewBox="0 0 1000 1000" enable-background="new 0 0 1000 1000" xml:space="preserve">
<metadata> Svg Vector Icons : http://www.onlinewebfonts.com/icon </metadata>
<g><g transform="translate(0.000000,512.000000) scale(0.100000,-0.100000)"><path d="M4645,5006.5c-676.1-51.7-1300.4-231.7-1901.8-542c-442.4-229.8-789.1-480.7-1160.6-840.8C295.6,2371.3-198.5,546.1,278.4-1191C586.7-2319,1299.2-3297.7,2297-3964.1c275.8-185.8,722-413.7,1024.6-524.8c250.9-91.9,710.5-206.8,997.8-250.9c283.4-42.1,1018.9-49.8,1283.2-11.5c798.6,114.9,1463.2,363.9,2100.9,789.1c733.5,486.5,1308.1,1141.4,1691.1,1924.7c170.5,346.6,254.7,570.7,344.7,915.4c434.7,1650.9-26.8,3409-1216.1,4636.6c-835,861.8-1901.8,1375.1-3093,1486.2C5236.8,5018,4828.8,5021.9,4645,5006.5z M5650.5,4608.2c1775.4-264.3,3215.6-1534.1,3721.2-3275l28.7-97.7l-185.8,1.9c-149.4,0-201.1-7.7-273.9-42.1c-120.7-55.5-256.6-183.9-317.9-302.6l-51.7-95.8l-9.6-1187.4c-7.7-852.2-15.3-1198.9-32.6-1225.7c-11.5-21.1-47.9-63.2-80.4-93.9c-47.9-45.9-78.5-57.5-168.5-63.2c-130.2-9.6-212.6,30.6-273.9,132.1c-36.4,61.3-38.3,99.6-38.3,1455.5c0,1442.1-3.8,1516.8-80.4,1668.1c-51.7,101.5-180,226-287.3,277.7c-423.2,206.8-915.4-70.9-951.8-536.3l-11.5-132.1l-84.3,116.8c-233.6,319.8-653.1,597.5-1074.4,710.5c-220.2,59.4-701,65.1-919.3,9.6c-723.9-180-1262.1-706.7-1459.4-1430.6c-38.3-139.8-44-203-42.1-486.5c0-272,7.7-350.5,42.1-475c55.5-204.9,157-429,264.3-593.7c84.3-126.4,319.8-381.1,453.9-488.4l53.6-44.1l-5.8-587.9c-5.7-553.5-7.7-591.8-46-655c-113-193.4-381.1-206.8-499.9-24.9c-30.6,47.9-34.5,122.6-44,858l-9.6,804.4l-49.8,107.2c-70.9,151.3-172.4,254.7-319.8,327.5c-109.2,53.6-145.6,63.2-272,63.2c-239.4-1.9-450.1-126.4-563.1-337.1c-46-84.3-57.5-132.1-69-312.2c-17.2-235.6-32.6-289.2-97.7-348.6c-70.9-63.2-122.6-84.3-212.6-84.3c-95.8,0-187.7,49.8-239.4,128.3c-32.6,47.9-34.5,130.2-44,1078.2l-9.6,1024.6l-51.7,109.2c-26.8,59.4-86.2,145.5-128.3,193.4C1071.3,904.2,801.2,992.3,625,942.5c-42.1-11.5-78.5-17.2-82.4-13.4c-11.5,9.6,49.8,277.7,109.2,480.7C990.8,2572.3,1845,3597,2942.4,4160c501.8,256.6,1045.7,415.6,1635.6,476.9C4803.9,4659.9,5409.1,4644.6,5650.5,4608.2z M5445.5,1622.4c570.7-168.5,988.2-586,1152.9-1154.9c258.5-892.5-273.9-1811.7-1197-2066.5c-191.5-53.6-630.1-49.8-827.4,5.8C3800.4-1371,3296.7-679.6,3338.8,97.9c13.4,243.2,51.7,400.3,147.5,607.1c95.8,203,168.5,312.2,323.7,471.1c245.1,254.7,542,415.6,892.5,484.5C4905.5,1700.9,5236.8,1683.7,5445.5,1622.4z M7469.9,1432.8c36.4-23,82.3-72.8,103.4-109.2c40.2-65.1,40.2-97.7,49.8-1532.1l9.6-1465.1l46-95.8c107.2-214.5,298.8-339,542-350.5c329.4-17.2,584.1,174.3,658.8,492.2c21.1,82.4,26.8,362,26.8,1220V705l44,63.2c88.1,130.2,241.3,166.6,388.8,93.8c120.7-57.5,155.1-126.4,178.1-360c101.5-984.4-197.3-2118.2-779.5-2951.3c-304.5-436.7-737.3-873.3-1143.4-1152.9C7000.7-4012,6361-4264.8,5631.3-4375.9c-304.5-47.9-957.6-47.9-1264-1.9C3382.9-4226.5,2546-3812.9,1845-3131C1232.1-2537.3,810.8-1813.4,604-1003.3C506.3-618.3,471.8-346.4,471.8,69.2c-1.9,321.7,1.9,369.6,32.6,415.6C544.6,544.2,678.7,615,749.5,615c84.3-1.9,201.1-69,249-145.6l46-74.7l3.8-1007.4c3.8-972.9,5.7-1011.2,44-1116.5c49.8-130.2,181.9-272,316-337.1c70.9-34.5,136-49.8,249-53.6c208.8-9.6,339,40.2,478.8,178.1c134.1,136,181.9,260.5,195.4,517.1c7.7,151.3,19.2,204.9,49.8,252.8c118.7,178.1,388.8,170.4,501.8-17.2c36.4-59.4,38.3-107.2,47.9-877.1l9.6-814l47.9-95.8c57.5-116.8,180-239.4,300.7-298.8c76.6-38.3,122.6-46,273.9-46c155.1,0,195.4,7.7,277.7,47.9c132.1,63.2,266.2,204.9,319.8,339c42.1,107.2,44,130.2,44,633.9c0,285.4,3.8,520.9,7.7,520.9c3.8,0,65.1-21.1,136-46c344.7-124.5,865.7-141.7,1191.2-40.2c32.5,11.5,34.5-3.8,34.5-229.8c0-243.2,0-243.2,55.5-298.8c34.5-32.5,76.6-55.5,107.3-55.5c63.2,0,155.1,46,170.4,86.2c5.8,17.2,11.5,172.4,11.5,346.6v314.1l72.8,36.4c93.9,47.9,252.8,170.4,383,296.8c283.4,273.9,494.1,681.8,559.2,1084c9.6,68.9,19.2,432.8,19.2,808.2c0,791,1.9,804.4,151.3,898.2C7217.1,1494.1,7374.1,1499.8,7469.9,1432.8z"/><path d="M3672.1,4246.2c-358.1-128.3-450.1-586-168.5-840.8c103.4-93.8,193.4-128.3,335.2-128.3c281.5,0,488.4,210.7,490.3,494.1c0,206.8-88.1,352.4-273.9,444.3C3926.8,4280.7,3798.5,4290.3,3672.1,4246.2z M3926.8,3957c76.6-40.2,114.9-101.5,114.9-187.7c0-59.4-13.4-88.1-67-141.7c-63.2-63.2-74.7-67-155.1-57.5c-103.4,11.5-153.2,51.7-181.9,147.5c-28.7,91.9,17.2,193.4,103.4,237.5C3817.6,3993.4,3857.9,3993.4,3926.8,3957z"/><path d="M7529.2,3436.1c-122.5-44-256.6-185.8-298.8-310.3c-59.4-181.9-11.5-379.2,128.3-519c91.9-93.8,195.3-134.1,340.9-134.1c295,0,497.9,203,497.9,497.9c-1.9,199.2-97.7,352.4-275.8,444.3C7818.4,3466.7,7638.4,3478.2,7529.2,3436.1z M7784,3154.6c84.3-34.5,126.4-99.6,126.4-189.6c0-162.8-204.9-266.2-331.3-166.6c-57.5,46-97.7,153.2-80.4,214.5c24.9,82.3,122.6,162.8,197.3,166.6C7709.3,3181.4,7749.5,3169.9,7784,3154.6z"/><path d="M1885.2,3058.8c-189.6-88.1-314.1-310.3-285.4-505.6c28.7-195.4,159-356.2,333.2-415.6c239.4-80.4,480.7,15.3,605.2,241.3c46,84.3,55.5,126.4,55.5,227.9c-1.9,143.6-34.5,231.7-124.5,335.2C2329.5,3100.9,2082.5,3150.7,1885.2,3058.8z M2189.7,2796.4c122.6-63.2,147.5-222.2,53.6-327.5c-47.9-53.6-68.9-63.2-145.6-63.2c-76.6,0-97.7,9.6-145.6,63.2C1799,2641.3,1986.7,2899.8,2189.7,2796.4z"/><path d="M5765.4,2970.7c-185.8-63.2-325.6-254.7-325.6-450.1c0-68.9-1.9-70.9-51.7-59.4c-30.6,5.8-166.6,17.2-304.5,23c-676,34.5-1285.1-181.9-1708.3-605.2c-145.6-145.6-174.3-203-145.6-285.4c21.1-57.5,107.3-105.3,159-88.1c19.2,5.7,103.4,78.5,185.8,159c360,358.1,812,530.5,1386.6,528.6c346.6,0,578.4-40.2,733.5-124.5c407.9-220.2,859.9,166.6,708.6,605.2c-44,132.1-181.9,266.2-314.1,304.5C5958.8,3016.7,5895.6,3016.7,5765.4,2970.7z M6081.4,2643.2c47.9-46,57.5-70.9,57.5-143.6c0-74.7-9.6-95.8-63.2-143.6c-185.8-166.6-440.5,49.8-310.3,264.3C5832.4,2731.3,5977.9,2740.9,6081.4,2643.2z"/><path d="M2249.1,1363.9c-306.4-139.8-390.7-542-164.7-791c107.3-118.7,199.2-159,367.7-159c172.4,0,264.3,42.1,377.3,170.4c93.8,105.3,130.2,222.2,114.9,373.5c-11.5,130.2-46,206.8-141.7,300.7c-99.6,99.6-201.1,141.7-350.5,141.7C2371.7,1400.3,2300.8,1386.8,2249.1,1363.9z M2584.3,1063.2c109.2-90,95.8-262.4-24.9-335.2c-72.8-44-128.3-46-203-7.7c-149.4,76.6-143.6,312.2,9.6,375.4C2440.6,1126.4,2524.9,1114.9,2584.3,1063.2z"/><path d="M7230.5-1692.7c-47.9-46-47.9-49.8-47.9-409.9c0-199.2,5.7-377.3,11.5-394.5c19.2-49.8,118.7-91.9,189.6-78.5c126.4,24.9,134.1,47.9,134.1,465.4v373.5l-53.6,45.9C7391.4-1629.6,7291.8-1629.6,7230.5-1692.7z"/><path d="M2383.2-1932.1c-93.8-38.3-103.4-80.4-103.4-444.3c0-206.8,7.7-356.2,21.1-384.9c44-97.7,193.4-118.8,273.9-40.2l49.8,51.7v360c0,346.7-1.9,362-42.1,407.9C2534.5-1926.4,2444.5-1905.3,2383.2-1932.1z"/><path d="M4530.1-3140.6c-82.3-47.9-86.2-67-86.2-450.1c0-419.4,7.7-442.4,145.6-461.6c63.2-7.6,86.2-1.9,134.1,38.3l55.5,47.9v375.4c0,352.4-1.9,377.3-40.2,413.7C4692.9-3129.1,4583.7-3110,4530.1-3140.6z"/></g></g>
</svg>