<svg width="19" height="22" fill="none" xmlns="http://www.w3.org/2000/svg"><path fill-rule="evenodd" clip-rule="evenodd" d="M8.775 20.804v-7.367c0-.615-.508-1.116-1.132-1.116l-6.39.083 8.972-11.208v7.366c0 .616.508 1.117 1.132 1.117l6.39-.083-8.972 11.208zM18.88 9.11a1.203 1.203 0 00-1.091-.676h-6.3V1.196c0-.515-.318-.957-.81-1.127a1.212 1.212 0 00-1.347.38L.266 11.628a1.171 1.171 0 00-.145 1.262c.203.417.622.677 1.091.677h6.3v7.238c0 .514.318.956.81 1.127a1.205 1.205 0 001.347-.38l9.065-11.177c.293-.362.348-.846.145-1.264z" fill="#FF7643"/></svg>