<svg width="16" height="17" fill="none" xmlns="http://www.w3.org/2000/svg"><path d="M15.999 8.344c0-.671-.055-1.16-.173-1.669H8.163v3.03h4.498c-.09.752-.58 1.886-1.669 2.648l-.015.101 2.423 1.877.168.017c1.542-1.424 2.43-3.519 2.43-6.004z" fill="#4285F4"/><path d="M8.163 16.325c2.204 0 4.054-.725 5.405-1.977l-2.576-1.995c-.689.48-1.614.816-2.83.816-2.158 0-3.99-1.424-4.643-3.392l-.096.008-2.52 1.95-.032.092a8.157 8.157 0 007.292 4.498z" fill="#34A853"/><path d="M3.519 9.777a5.025 5.025 0 01-.272-1.614c0-.563.1-1.107.263-1.615l-.005-.108L.955 4.46l-.084.04A8.17 8.17 0 000 8.163a8.17 8.17 0 00.87 3.664l2.649-2.05z" fill="#FBBC05"/><path d="M8.163 3.156c1.532 0 2.566.662 3.156 1.216l2.304-2.25C12.208.807 10.367 0 8.163 0A8.157 8.157 0 00.87 4.499l2.639 2.05c.662-1.969 2.494-3.393 4.653-3.393z" fill="#EB4335"/></svg>