<svg width="22" height="20" fill="none" xmlns="http://www.w3.org/2000/svg"><path fill-rule="evenodd" clip-rule="evenodd" d="M19.159 10.67l-7.865 7.949a.414.414 0 01-.588 0L2.84 10.67a5.512 5.512 0 01-1.597-3.9c0-1.473.568-2.858 1.597-3.9a5.414 5.414 0 013.86-1.613c1.398 0 2.795.539 3.86 1.614a.618.618 0 00.88 0 5.424 5.424 0 017.717 0 5.508 5.508 0 011.598 3.9 5.51 5.51 0 01-1.598 3.9zm.88-8.69A6.66 6.66 0 0011 1.573a6.66 6.66 0 00-9.038.407A6.764 6.764 0 000 6.77c0 1.81.696 3.511 1.962 4.79l7.865 7.95c.322.326.748.49 1.174.49.425 0 .85-.164 1.173-.49l7.865-7.95A6.766 6.766 0 0022 6.77c0-1.81-.696-3.511-1.961-4.79z" fill="#B6B6B6"/></svg>