<?xml version="1.0" encoding="iso-8859-1"?>
<!-- Generator: Adobe Illustrator 19.1.0, SVG Export Plug-In . SVG Version: 6.00 Build 0)  -->
<svg version="1.1" id="Capa_1" xmlns="http://www.w3.org/2000/svg" xmlns:xlink="http://www.w3.org/1999/xlink" x="0px" y="0px"
	 viewBox="0 0 409 409" style="enable-background:new 0 0 409 409;" xml:space="preserve">
<g>
	<g>
		<path style="fill:#EFCA60;" d="M321.442,31.438c0-3.872-0.829-10.054-5.878-11.438H80.055c-7.034,0-8.084,7.348-8.084,11.728
			c0,3.872,0.829,10.053,5.878,11.437h235.509C320.391,43.165,321.442,35.818,321.442,31.438z"/>
		<path style="fill:#EFCA60;" d="M300.011,371.096c0.724-1.186,72.322-119.496,54.594-186.792
			c-11.451-43.469-49.125-65.44-49.504-65.657c-3.114-1.78-5.058-5.106-5.058-8.693V98.78c-0.142,5.399-4.553,9.735-9.987,9.735
			H254.5c-5.523,0-10-4.478-10-10c0-5.522,4.477-10,10-10h35.556c5.434,0,9.845,4.336,9.987,9.735V74.892H93.37v23.624
			c0,3.605-1.941,6.933-5.08,8.706c-0.357,0.204-38.031,22.176-49.482,65.644C21.08,240.162,92.678,358.473,93.403,359.66
			c9.726,15.903,33.693,29.34,52.336,29.34h117.523c9.176,0,19.639-3.259,29.061-8.461
			C295.376,377.56,298.001,374.382,300.011,371.096z M118.944,88.516h99.556c5.523,0,10,4.478,10,10c0,5.522-4.477,10-10,10h-99.556
			c-5.523,0-10-4.478-10-10C108.944,92.993,113.421,88.516,118.944,88.516z M261.059,280.697l-22.493,38.958
			c-1.786,3.094-5.087,5-8.66,5h-50.758c-3.573,0-6.874-1.906-8.66-5l-22.493-38.958h-45.039c-3.573,0-6.874-1.906-8.66-5
			l-25.379-43.958c-1.787-3.094-1.787-6.906,0-10l25.379-43.959c1.786-3.094,5.087-5,8.66-5h50.758c3.573,0,6.874,1.906,8.66,5
			l22.493,38.959h39.266l22.493-38.959c1.786-3.094,5.087-5,8.66-5h50.758c3.573,0,6.874,1.906,8.66,5l25.379,43.959
			c1.787,3.094,1.787,6.906,0,10l-25.379,43.958c-1.786,3.094-5.087,5-8.66,5H261.059z"/>
		<polygon style="fill:#EFA348;" points="147.941,192.78 108.729,192.78 89.123,226.739 108.729,260.697 147.941,260.697 
			167.547,226.739 		"/>
		<polygon style="fill:#EFA348;" points="224.133,236.739 184.921,236.739 165.315,270.697 184.921,304.655 224.133,304.655 
			243.739,270.697 233.936,253.718 		"/>
		<polygon style="fill:#EFA348;" points="300.271,192.78 261.059,192.78 241.453,226.739 251.256,243.718 261.059,260.697 
			300.271,260.697 319.876,226.739 		"/>
	</g>
	<g>
		<path d="M389.532,167.77c-11.059-41.98-41.676-66.41-53.902-74.738V62.685c12.878-3.038,21.399-14.916,21.399-30.958
			C357.029,13.047,345.48,0,328.945,0H80.055C63.52,0,51.971,13.047,51.971,31.728c0,16.041,8.521,27.92,21.399,30.958v30.347
			c-12.226,8.328-42.843,32.758-53.902,74.738c-19.899,75.534,53.727,197.18,56.872,202.321C89.682,391.909,120.165,409,145.739,409
			h117.523c25.573,0,56.057-17.091,69.399-38.908C335.805,364.95,409.431,243.305,389.532,167.77z M337.029,31.728
			c0,4.38-1.05,11.727-8.084,11.727H80.055c-0.816,0-1.543-0.108-2.206-0.29c-5.05-1.384-5.878-7.565-5.878-11.437
			c0-4.38,1.05-11.728,8.084-11.728h235.508h13.382C335.979,20,337.029,27.348,337.029,31.728z M315.598,359.658
			c-4.939,8.077-13.553,15.513-23.275,20.88c-9.422,5.202-19.886,8.461-29.061,8.461H145.739c-18.643,0-42.61-13.436-52.336-29.34
			c-0.725-1.188-72.323-119.498-54.595-186.794c11.451-43.469,49.124-65.44,49.482-65.644c3.139-1.774,5.08-5.101,5.08-8.706V74.892
			V63.454H315.63v35.062c0,3.587,1.944,6.913,5.058,8.693c0.379,0.217,38.053,22.189,49.504,65.657
			C387.92,240.162,316.322,358.473,315.598,359.658z"/>
		<path d="M314.704,275.697l25.379-43.958c1.787-3.094,1.787-6.906,0-10l-25.379-43.959c-1.786-3.094-5.087-5-8.66-5h-50.758
			c-3.573,0-6.874,1.906-8.66,5l-22.493,38.959h-39.266l-22.493-38.959c-1.786-3.094-5.087-5-8.66-5h-50.758
			c-3.573,0-6.874,1.906-8.66,5l-25.379,43.959c-1.787,3.094-1.787,6.906,0,10l25.379,43.958c1.786,3.094,5.087,5,8.66,5h45.039
			l22.493,38.958c1.786,3.094,5.087,5,8.66,5h50.758c3.573,0,6.874-1.906,8.66-5l22.493-38.958h44.985
			C309.617,280.697,312.918,278.791,314.704,275.697z M147.941,260.697h-39.211l-19.606-33.958l19.606-33.959h39.211l19.606,33.959
			L147.941,260.697z M224.133,304.655h-39.211l-19.606-33.958l19.606-33.958h39.211l9.803,16.979l9.803,16.979L224.133,304.655z
			 M261.059,260.697l-9.803-16.979l-9.803-16.979l19.606-33.959h39.211l19.606,33.959l-19.606,33.958H261.059z"/>
		<path d="M290.056,88.516H254.5c-5.523,0-10,4.478-10,10c0,5.522,4.477,10,10,10h35.556c5.434,0,9.845-4.336,9.987-9.735
			c0.002-0.089,0.013-0.175,0.013-0.265c0-0.089-0.011-0.176-0.013-0.265C299.901,92.852,295.49,88.516,290.056,88.516z"/>
		<path d="M118.944,108.516h99.556c5.523,0,10-4.478,10-10c0-5.522-4.477-10-10-10h-99.556c-5.523,0-10,4.478-10,10
			C108.944,104.038,113.421,108.516,118.944,108.516z"/>
	</g>
</g>
<g>
</g>
<g>
</g>
<g>
</g>
<g>
</g>
<g>
</g>
<g>
</g>
<g>
</g>
<g>
</g>
<g>
</g>
<g>
</g>
<g>
</g>
<g>
</g>
<g>
</g>
<g>
</g>
<g>
</g>
</svg>
