<?xml version="1.0" encoding="iso-8859-1"?>
<!-- Generator: Adobe Illustrator 18.1.1, SVG Export Plug-In . SVG Version: 6.00 Build 0)  -->
<svg version="1.1" id="Capa_1" xmlns="http://www.w3.org/2000/svg" xmlns:xlink="http://www.w3.org/1999/xlink" x="0px" y="0px"
	 viewBox="0 0 462.309 462.309" style="enable-background:new 0 0 462.309 462.309;" xml:space="preserve">
<g>
	<g>
		<polygon style="fill:#010002;" points="306.031,334.292 231.159,293.113 156.286,334.292 162.838,350.793 231.159,388.364 
			299.471,350.793 		"/>
		<path style="fill:#010002;" d="M231.159,462.309c10.405,0,20.801-3.967,28.743-11.9l9.031-22.719l-37.765-20.768l-37.765,20.768
			l9.031,22.719C210.358,458.342,220.754,462.309,231.159,462.309z"/>
		<polygon style="fill:#010002;" points="290.042,374.529 248.026,397.638 274.972,412.457 		"/>
		<polygon style="fill:#010002;" points="187.338,412.457 214.292,397.638 172.275,374.529 		"/>
		<polygon style="fill:#010002;" points="150.239,319.059 214.292,283.838 114.424,228.913 		"/>
		<polygon style="fill:#010002;" points="347.893,228.913 248.026,283.838 312.079,319.059 		"/>
		<path style="fill:#010002;" d="M351.795,194.351c-1.219-0.463-2.577-0.845-4.056-1.146c-1.341-0.276-2.756-0.496-4.308-0.626
			c-1.374-0.114-2.812-0.187-4.349-0.187h-0.008h-38.448H161.692h-38.464c-1.52,0-2.943,0.073-4.3,0.187c-0.016,0-0.033,0-0.049,0
			c-1.553,0.13-2.967,0.358-4.308,0.626c-1.479,0.301-2.837,0.683-4.056,1.146c-5.088,1.926-7.893,5.178-8.242,9.332l24.394,13.42
			l1.756,0.967l13.599,7.478l49.869,27.426l13.437,7.389l25.824,14.201l25.824-14.201l13.437-7.389l49.869-27.426l13.599-7.478
			l1.756-0.967l24.402-13.42C359.688,199.529,356.883,196.277,351.795,194.351z"/>
		<path style="fill:#010002;" d="M233.085,38.185c-46.065-13.55-68.727-29.149-68.727-29.149s-23.394-26.393-35.587,11.039
			s-14.03,138.552-14.03,138.552l0.138-0.016c-0.114,2.113-0.317,4.202-0.317,6.348c0,5.747,0.561,10.884,1.382,15.761
			c0.634-0.081,1.276-0.228,1.91-0.276c1.699-0.146,3.487-0.236,5.389-0.236h38.464h138.934h38.464c1.057,0,2,0.081,2.983,0.13
			c0.772-4.763,1.309-9.787,1.309-15.379c0-9.827-1.374-19.313-3.699-28.409l0.138-0.016
			C327.84,78.689,279.15,51.727,233.085,38.185z M186.403,44.59c7.039,2.975,14.168,5.56,21.305,7.999
			c30.108,10.283,60.363,17.875,84.805,40.651c11.526,10.738-5.755,27.946-17.241,17.241
			c-27.71-25.816-67.313-30.515-101.168-44.837c-0.358-0.154-0.626-0.35-0.951-0.52C160.343,58.482,172.454,38.689,186.403,44.59z
			 M304.21,154.691c-8.437,0-12.307-7.015-11.689-13.526c0.536-5.617,4.398-10.86,11.689-10.86c6.292,0,10.023,3.918,11.282,8.608
			C317.37,145.929,313.639,154.691,304.21,154.691z"/>
	</g>
</g>
<g>
</g>
<g>
</g>
<g>
</g>
<g>
</g>
<g>
</g>
<g>
</g>
<g>
</g>
<g>
</g>
<g>
</g>
<g>
</g>
<g>
</g>
<g>
</g>
<g>
</g>
<g>
</g>
<g>
</g>
</svg>
