<?xml version="1.0" encoding="iso-8859-1"?>
<!-- Generator: Adobe Illustrator 16.0.0, SVG Export Plug-In . SVG Version: 6.00 Build 0)  -->
<!DOCTYPE svg PUBLIC "-//W3C//DTD SVG 1.1//EN" "http://www.w3.org/Graphics/SVG/1.1/DTD/svg11.dtd">
<svg version="1.1" id="Capa_1" xmlns="http://www.w3.org/2000/svg" xmlns:xlink="http://www.w3.org/1999/xlink" x="0px" y="0px"
	 width="45.756px" height="45.756px" viewBox="0 0 45.756 45.756" style="enable-background:new 0 0 45.756 45.756;"
	 xml:space="preserve">
<g>
	<g>
		<path d="M21.646,44.904c0.201,0.514,0.695,0.852,1.246,0.852c0.552-0.002,1.044-0.345,1.24-0.861l3.232-8.522l-6.734,5.912
			L21.646,44.904z"/>
		<path d="M24.778,23.366c-0.459-0.151-0.902-0.34-1.324-0.567l-7.74,6.797l1.164,3.006l9.872-8.668
			C26.071,23.811,25.413,23.62,24.778,23.366z"/>
		<path d="M16.17,24.104c-0.941,0-1.854-0.125-2.722-0.359l1.107,2.859l2.944-2.584C17.062,24.075,16.617,24.104,16.17,24.104z"/>
		<path d="M18.038,35.592l1.434,3.698l10.171-8.929l2.619-6.903c-0.213,0.077-0.428,0.148-0.646,0.214L18.038,35.592z"/>
		<path d="M31.669,6.691c-0.83-0.301-1.486-0.957-1.79-1.786C28.838,2.041,26.099,0,22.878,0c-3.222,0-5.961,2.043-7.002,4.905
			c-0.303,0.831-0.958,1.485-1.788,1.786c-2.861,1.042-4.905,3.78-4.905,7.005c0,4.119,3.341,7.46,7.462,7.46
			c1.667,0,3.204-0.547,4.446-1.471c0.53-0.396,1.16-0.593,1.789-0.593c0.628,0,1.256,0.197,1.786,0.591
			c1.241,0.926,2.778,1.473,4.446,1.473c4.121,0,7.461-3.341,7.461-7.46C36.573,10.471,34.53,7.733,31.669,6.691z"/>
	</g>
</g>
<g>
</g>
<g>
</g>
<g>
</g>
<g>
</g>
<g>
</g>
<g>
</g>
<g>
</g>
<g>
</g>
<g>
</g>
<g>
</g>
<g>
</g>
<g>
</g>
<g>
</g>
<g>
</g>
<g>
</g>
</svg>
