<?xml version="1.0" encoding="iso-8859-1"?>
<!-- Generator: Adobe Illustrator 16.0.0, SVG Export Plug-In . SVG Version: 6.00 Build 0)  -->
<!DOCTYPE svg PUBLIC "-//W3C//DTD SVG 1.1//EN" "http://www.w3.org/Graphics/SVG/1.1/DTD/svg11.dtd">
<svg version="1.1" id="Capa_1" xmlns="http://www.w3.org/2000/svg" xmlns:xlink="http://www.w3.org/1999/xlink" x="0px" y="0px"
	 width="596.711px" height="596.711px" viewBox="0 0 596.711 596.711" style="enable-background:new 0 0 596.711 596.711;"
	 xml:space="preserve">
<g>
	<g>
		<path d="M580.25,95.181c-7.999-18.955-19.527-35.885-34.264-50.321c-14.758-14.459-31.911-25.655-50.979-33.277
			C476.608,4.229,457.2,0.5,437.321,0.5c-20.405,0-40.288,3.92-59.1,11.651c-17.719,7.282-33.722,17.644-47.641,30.838
			c-20.518-9.649-42.952-14.674-65.989-14.675c-20.309-0.001-40.105,3.883-58.841,11.544c-19.414,7.939-36.779,19.574-51.612,34.584
			c-14.661,14.836-25.961,32.204-33.585,51.621c-7.295,18.579-10.915,38.213-10.757,58.357c0.159,20.413,4.182,40.297,11.956,59.101
			c3.46,8.371,7.599,16.347,12.38,23.897L10.313,513.721c-5.362,10.666-7.24,22.537-5.428,34.328
			c1.854,12.064,7.393,22.982,16.019,31.574l0.031,0.029l0.031,0.029c0.204,0.203,0.408,0.404,0.616,0.604
			c10.634,10.273,24.646,15.926,39.464,15.926c9.245,0,18.457-2.279,26.64-6.592L331.56,461.068
			c7.38,4.475,15.143,8.348,23.266,11.58c18.62,7.408,38.257,11.164,58.362,11.164c20.455,0,40.339-3.883,59.101-11.537
			c19.61-8.002,37.046-19.754,51.82-34.93c12.954-13.303,23.306-28.604,30.769-45.479c7.209-16.299,11.527-33.604,12.834-51.438
			c2.03-27.717-3.443-55.423-15.576-80.08c13.273-14.56,23.505-31.268,30.43-49.702c6.97-18.551,10.3-38.052,9.899-57.958
			C592.064,132.789,587.956,113.44,580.25,95.181z M413.188,440.973c-11.416,0-22.845-1.703-33.854-5.086
			c-15.948-4.902-31.014-13.34-43.873-25.303c-0.729-0.678-1.454-1.369-2.17-2.07L186.646,264.667
			c-0.716-0.702-1.419-1.413-2.113-2.129c-12.209-12.626-20.937-27.524-26.145-43.373c-12.808-38.981-4.302-83.723,26.221-114.611
			c21.984-22.248,50.968-33.402,79.98-33.4c21.977,0.001,43.973,6.406,62.935,19.241c2.654,1.797,5.676,2.669,8.665,2.669
			c4.559,0,9.041-2.029,12.029-5.9c2.702-3.501,5.641-6.881,8.814-10.118c22.021-22.449,51.143-33.706,80.287-33.706
			c28.393,0,56.806,10.687,78.687,32.122c43.597,42.708,45.022,113.047,3.15,157.448c-3.654,3.876-7.517,7.432-11.552,10.67
			c-6.271,5.032-7.546,14.002-2.899,20.565c30.74,43.422,27.102,103.883-11.292,143.315
			C471.623,429.844,442.452,440.973,413.188,440.973z M67.71,551.719c-2.101,1.107-4.392,1.652-6.667,1.652
			c-3.537,0-7.031-1.318-9.687-3.885c-0.074-0.072-0.148-0.145-0.222-0.217c-4.299-4.281-5.272-10.887-2.546-16.307l115.72-230.195
			L295.631,431.58L67.71,551.719z"/>
		<path d="M61.044,596.711c-14.948,0-29.087-5.706-39.811-16.066c-0.209-0.2-0.416-0.403-0.622-0.609
			c-8.763-8.726-14.351-19.74-16.221-31.91c-1.828-11.895,0.066-23.869,5.476-34.629l123.693-246.05
			c-4.733-7.505-8.86-15.489-12.269-23.734c-7.799-18.862-11.834-38.81-11.994-59.288c-0.158-20.209,3.473-39.906,10.792-58.544
			c7.648-19.479,18.985-36.903,33.695-51.79c14.878-15.057,32.299-26.73,51.778-34.696c18.793-7.685,38.65-11.581,59.019-11.581
			c23.055,0.001,45.221,4.905,65.905,14.578c13.9-13.12,29.896-23.449,47.546-30.703C396.903,3.933,416.851,0,437.321,0
			c19.943,0,39.414,3.741,57.871,11.119c19.132,7.647,36.339,18.879,51.144,33.384c14.784,14.482,26.35,31.467,34.375,50.483
			c7.729,18.314,11.852,37.726,12.254,57.694c0.401,19.972-2.939,39.534-9.932,58.144c-6.903,18.377-17.096,35.066-30.299,49.611
			c12.144,24.814,17.494,52.48,15.477,80.031c-1.311,17.889-5.643,35.251-12.876,51.604c-7.487,16.93-17.872,32.28-30.867,45.625
			c-14.822,15.225-32.314,27.016-51.99,35.044c-18.824,7.68-38.772,11.574-59.289,11.574c-20.171,0-39.869-3.768-58.547-11.199
			c-7.983-3.177-15.752-7.035-23.098-11.471L87.917,590.062C79.663,594.412,70.371,596.711,61.044,596.711z M264.592,28.814
			c-20.25,0-39.979,3.872-58.652,11.507c-19.354,7.914-36.662,19.512-51.446,34.473c-14.614,14.789-25.876,32.1-33.475,51.452
			c-7.271,18.519-10.879,38.09-10.723,58.171c0.159,20.349,4.168,40.17,11.918,58.914c3.423,8.28,7.575,16.294,12.341,23.82
			l0.151,0.239l-0.127,0.253L10.76,513.945c-5.316,10.573-7.176,22.34-5.381,34.027c1.838,11.958,7.328,22.78,15.877,31.296
			c0.263,0.26,0.465,0.459,0.67,0.656c10.538,10.18,24.43,15.786,39.118,15.786c9.165,0,18.295-2.26,26.407-6.534l244.126-128.683
			l0.241,0.146c7.37,4.469,15.173,8.353,23.191,11.543c18.561,7.385,38.135,11.129,58.178,11.129c20.387,0,40.207-3.869,58.912-11.5
			c19.547-7.977,36.925-19.69,51.65-34.815c12.912-13.26,23.23-28.512,30.67-45.332c7.187-16.248,11.49-33.498,12.792-51.271
			c2.014-27.487-3.355-55.089-15.525-79.823l-0.15-0.306l0.229-0.252c13.228-14.51,23.433-31.178,30.331-49.541
			c6.946-18.49,10.267-37.927,9.867-57.771c-0.399-19.841-4.495-39.128-12.176-57.326c-7.973-18.893-19.464-35.769-34.152-50.158
			c-14.71-14.412-31.807-25.572-50.815-33.169C476.483,4.717,457.136,1,437.321,1c-20.339,0-40.158,3.907-58.909,11.613
			c-17.642,7.25-33.618,17.592-47.487,30.738l-0.248,0.235l-0.309-0.145C309.731,33.736,287.601,28.815,264.592,28.814z
			 M61.044,553.871c-3.784,0-7.348-1.43-10.034-4.025l-0.225-0.22c-4.438-4.42-5.499-11.206-2.642-16.888L164.17,301.931
			l0.489,0.479L296.47,431.703l-0.606,0.319L67.944,552.161C65.822,553.279,63.436,553.871,61.044,553.871z M164.449,303.604
			L49.036,533.188c-2.663,5.295-1.677,11.615,2.453,15.728l0.217,0.213c2.498,2.413,5.814,3.743,9.338,3.743
			c2.23,0,4.455-0.552,6.434-1.595l227.314-119.819L164.449,303.604z M413.188,441.473c-11.531,0-22.971-1.719-34-5.108
			c-16.598-5.102-31.424-13.652-44.067-25.414c-0.732-0.681-1.46-1.375-2.179-2.079L186.296,265.024
			c-0.719-0.705-1.426-1.419-2.122-2.138c-12.006-12.417-20.842-27.074-26.26-43.564c-13.455-40.95-3.362-85.061,26.341-115.119
			c21.378-21.634,49.906-33.549,80.328-33.549v1c-30.152,0-58.427,11.809-79.617,33.252
			c-29.438,29.789-39.439,73.511-26.102,114.103c5.371,16.346,14.128,30.875,26.029,43.182c0.69,0.713,1.39,1.42,2.104,2.12
			l146.646,143.847c0.712,0.697,1.434,1.386,2.159,2.061c12.533,11.658,27.229,20.134,43.68,25.191
			c10.936,3.359,22.275,5.063,33.707,5.063c30.559,0,58.923-11.848,79.868-33.36c37.66-38.678,42.388-98.683,11.242-142.677
			c-4.77-6.738-3.454-16.069,2.995-21.244c4.049-3.249,7.918-6.823,11.5-10.624c20.159-21.376,30.934-49.434,30.34-79.006
			c-0.594-29.567-12.482-57.177-33.476-77.742c-21.051-20.622-48.871-31.979-78.337-31.979c-30.318,0-58.704,11.917-79.931,33.556
			c-3.119,3.182-6.072,6.571-8.775,10.073c-2.989,3.873-7.519,6.095-12.425,6.095c-3.19,0-6.284-0.953-8.945-2.755
			c-18.511-12.53-40.176-19.154-62.655-19.155l-0.008-0.5l0.003-0.5c22.684,0.001,44.543,6.685,63.22,19.327
			c2.495,1.69,5.395,2.583,8.385,2.583c4.595,0,8.835-2.08,11.634-5.706c2.727-3.533,5.705-6.953,8.853-10.162
			c21.416-21.833,50.056-33.856,80.645-33.856c29.729,0,57.798,11.458,79.036,32.265c21.182,20.75,33.177,48.605,33.776,78.436
			c0.6,29.835-10.272,58.144-30.612,79.712c-3.613,3.833-7.518,7.439-11.603,10.717c-6.037,4.844-7.269,13.579-2.804,19.886
			c31.424,44.388,26.654,104.929-11.342,143.953C472.638,429.518,444.019,441.473,413.188,441.473z"/>
	</g>
</g>
<g>
</g>
<g>
</g>
<g>
</g>
<g>
</g>
<g>
</g>
<g>
</g>
<g>
</g>
<g>
</g>
<g>
</g>
<g>
</g>
<g>
</g>
<g>
</g>
<g>
</g>
<g>
</g>
<g>
</g>
</svg>
