<?xml version="1.0" encoding="iso-8859-1"?>
<!-- Generator: Adobe Illustrator 16.0.0, SVG Export Plug-In . SVG Version: 6.00 Build 0)  -->
<!DOCTYPE svg PUBLIC "-//W3C//DTD SVG 1.1//EN" "http://www.w3.org/Graphics/SVG/1.1/DTD/svg11.dtd">
<svg version="1.1" id="Capa_1" xmlns="http://www.w3.org/2000/svg" xmlns:xlink="http://www.w3.org/1999/xlink" x="0px" y="0px"
	 width="209.711px" height="209.712px" viewBox="0 0 209.711 209.712" style="enable-background:new 0 0 209.711 209.712;"
	 xml:space="preserve">
<g>
	<path d="M146.62,46.028c0.154-1.458,0.236-2.937,0.236-4.435C146.856,18.658,128.197,0,105.262,0
		C82.328,0,63.67,18.659,63.67,41.593c0,0.762,0.022,1.518,0.063,2.269C50.063,49.913,41.02,63.644,41.02,78.714
		c0,17.885,12.679,33.558,30.148,37.267c2.617,0.557,5.293,0.84,7.952,0.84c9.36,0,18.424-3.498,25.371-9.694
		c7.036,6.604,16.357,10.337,26.078,10.337c2.309,0,4.598-0.215,6.852-0.627l-18.26,75.932c-0.011,0.045-0.021,0.092-0.029,0.139
		c-0.059,0.298-0.133,0.604-0.229,0.938c-0.017,0.057-0.03,0.115-0.045,0.174c-1.56,5.266-6.485,8.942-11.978,8.942
		c-5.496,0-10.419-3.677-11.976-8.94c-0.007-0.023-0.014-0.047-0.022-0.07c-0.006-0.023-0.012-0.047-0.018-0.071
		c-0.103-0.374-0.177-0.685-0.234-0.974c-0.013-0.068-0.029-0.137-0.047-0.203l-17.279-66.008c-0.472-1.803-2.316-2.883-4.12-2.41
		c-1.803,0.472-2.882,2.316-2.41,4.119l17.254,65.914c0.082,0.401,0.184,0.826,0.31,1.291l0.036,0.154
		c0.035,0.147,0.08,0.291,0.133,0.43c2.481,7.975,9.996,13.521,18.371,13.521c8.369,0,15.883-5.543,18.369-13.515
		c0.063-0.163,0.114-0.332,0.152-0.508l0.021-0.102c0.127-0.451,0.23-0.88,0.316-1.307l19.145-79.616
		c14.301-5.798,23.785-19.752,23.785-35.304c0-0.168,0.006-0.383,0.012-0.639C169.144,58.055,157.533,49.508,146.62,46.028z
		 M105.263,6.75c19.212,0,34.843,15.631,34.843,34.843c0,19.212-15.631,34.843-34.843,34.843c-19.213,0-34.843-15.631-34.843-34.843
		C70.42,22.381,86.05,6.75,105.263,6.75z M79.12,110.068c-2.189,0-4.392-0.231-6.55-0.69c-14.37-3.051-24.8-15.947-24.8-30.664
		c0-11.748,6.677-22.51,16.944-27.844c4.227,18.484,20.802,32.316,40.548,32.316c1.713,0,3.4-0.106,5.058-0.308
		c-0.635,6.333-3.295,11.857-8.24,17.175C96.163,106.419,87.794,110.068,79.12,110.068z M161.933,78.569
		c-0.007,0.317-0.013,0.583-0.013,0.791c0,13.313-8.444,25.208-21.015,29.598c-3.327,1.164-6.806,1.754-10.337,1.754
		c-7.99,0-15.652-3.069-21.441-8.498c5.08-6.285,7.732-13.12,8.06-20.772c13.627-4.086,24.336-14.984,28.153-28.724
		C156.649,56.631,162.23,65.31,161.933,78.569z"/>
</g>
<g>
</g>
<g>
</g>
<g>
</g>
<g>
</g>
<g>
</g>
<g>
</g>
<g>
</g>
<g>
</g>
<g>
</g>
<g>
</g>
<g>
</g>
<g>
</g>
<g>
</g>
<g>
</g>
<g>
</g>
</svg>
