<?xml version="1.0" encoding="UTF-8"?>
<svg xmlns="http://www.w3.org/2000/svg" xmlns:xlink="http://www.w3.org/1999/xlink" width="32" height="32" viewBox="0 0 32 32" version="1.1">
<g id="surface1">
<path style=" stroke:none;fill-rule:nonzero;fill:rgb(0%,0%,0%);fill-opacity:1;" d="M 30.789062 6.238281 C 30.753906 6.195312 30.710938 6.152344 30.664062 6.117188 C 26.414062 2.894531 21.34375 1.183594 15.996094 1.183594 C 10.683594 1.183594 5.640625 2.871094 1.414062 6.058594 C 1.367188 6.09375 1.328125 6.132812 1.289062 6.175781 C 0.679688 6.6875 0.320312 7.441406 0.320312 8.242188 C 0.320312 9.730469 1.53125 10.941406 3.019531 10.941406 C 3.441406 10.941406 3.863281 10.832031 4.238281 10.640625 L 10.175781 22.566406 L 13.371094 28.980469 C 13.371094 28.980469 13.371094 28.980469 13.371094 28.984375 C 13.933594 30.128906 14.914062 30.8125 15.996094 30.8125 C 17.050781 30.8125 18.015625 30.160156 18.585938 29.0625 C 18.585938 29.058594 18.589844 29.054688 18.589844 29.054688 C 18.589844 29.054688 18.59375 29.054688 18.59375 29.054688 L 27.757812 10.640625 C 28.132812 10.832031 28.554688 10.9375 28.980469 10.9375 C 30.46875 10.9375 31.675781 9.726562 31.675781 8.238281 C 31.679688 7.476562 31.347656 6.75 30.789062 6.238281 Z M 7.207031 13.09375 C 7.894531 12.453125 8.804688 12.097656 9.75 12.097656 C 11.8125 12.097656 13.496094 13.777344 13.496094 15.839844 C 13.496094 17.65625 12.164062 19.214844 10.40625 19.527344 Z M 16 29.25 C 15.527344 29.25 15.070312 28.894531 14.773438 28.296875 C 14.773438 28.296875 14.773438 28.296875 14.773438 28.292969 L 11.453125 21.625 L 11.125 20.964844 C 13.390625 20.355469 15.058594 18.261719 15.058594 15.84375 C 15.058594 12.914062 12.679688 10.535156 9.75 10.535156 C 8.558594 10.535156 7.414062 10.9375 6.488281 11.660156 L 5.539062 9.75 C 8.636719 7.675781 12.230469 6.582031 15.996094 6.582031 C 19.765625 6.582031 23.359375 7.675781 26.457031 9.75 L 17.203125 28.34375 C 16.910156 28.910156 16.457031 29.25 16 29.25 Z M 28.980469 9.378906 C 28.734375 9.378906 28.503906 9.300781 28.308594 9.15625 C 28.292969 9.140625 28.28125 9.125 28.265625 9.113281 C 24.703125 6.433594 20.464844 5.019531 15.996094 5.019531 C 11.539062 5.019531 7.304688 6.433594 3.75 9.101562 C 3.726562 9.117188 3.710938 9.136719 3.691406 9.152344 C 3.496094 9.300781 3.265625 9.378906 3.019531 9.378906 C 2.390625 9.378906 1.882812 8.871094 1.882812 8.242188 C 1.882812 7.875 2.050781 7.542969 2.347656 7.324219 C 2.378906 7.300781 2.402344 7.277344 2.429688 7.253906 C 6.371094 4.308594 11.058594 2.75 15.996094 2.75 C 20.953125 2.75 25.65625 4.320312 29.605469 7.285156 C 29.621094 7.300781 29.636719 7.316406 29.65625 7.328125 C 29.949219 7.546875 30.113281 7.878906 30.113281 8.242188 C 30.117188 8.871094 29.605469 9.378906 28.980469 9.378906 Z M 28.980469 9.378906 "/>
<path style=" stroke:none;fill-rule:nonzero;fill:rgb(0%,0%,0%);fill-opacity:1;" d="M 20.0625 15.789062 C 22.1875 15.789062 23.917969 14.0625 23.917969 11.9375 C 23.917969 9.8125 22.1875 8.082031 20.0625 8.082031 C 17.9375 8.082031 16.210938 9.8125 16.210938 11.9375 C 16.210938 14.0625 17.9375 15.789062 20.0625 15.789062 Z M 20.0625 9.644531 C 21.324219 9.644531 22.355469 10.671875 22.355469 11.9375 C 22.355469 13.199219 21.328125 14.226562 20.0625 14.226562 C 18.800781 14.226562 17.773438 13.199219 17.773438 11.9375 C 17.777344 10.671875 18.804688 9.644531 20.0625 9.644531 Z M 20.0625 9.644531 "/>
<path style=" stroke:none;fill-rule:nonzero;fill:rgb(0%,0%,0%);fill-opacity:1;" d="M 19.4375 20.648438 C 19.4375 19.300781 18.339844 18.207031 16.996094 18.207031 C 15.648438 18.207031 14.554688 19.304688 14.554688 20.648438 C 14.554688 21.996094 15.652344 23.089844 16.996094 23.089844 C 18.339844 23.089844 19.4375 21.996094 19.4375 20.648438 Z M 16.113281 20.648438 C 16.113281 20.164062 16.507812 19.769531 16.992188 19.769531 C 17.476562 19.769531 17.871094 20.164062 17.871094 20.648438 C 17.871094 21.136719 17.476562 21.53125 16.992188 21.53125 C 16.507812 21.53125 16.113281 21.132812 16.113281 20.648438 Z M 16.113281 20.648438 "/>
</g>
</svg>
