<?xml version="1.0" encoding="UTF-8"?>
<svg xmlns="http://www.w3.org/2000/svg" xmlns:xlink="http://www.w3.org/1999/xlink" width="32pt" height="32pt" viewBox="0 0 32 32" version="1.1">
<g id="surface1">
<path style=" stroke:none;fill-rule:nonzero;fill:rgb(0%,0%,0%);fill-opacity:1;" d="M 17.328125 2.445312 C 17.101562 2.65625 17.113281 2.949219 17.359375 3.257812 C 17.621094 3.582031 17.726562 3.839844 17.726562 4.164062 C 17.726562 4.578125 17.660156 4.640625 17.375 4.480469 C 16.449219 3.964844 15.394531 4.089844 14.636719 4.796875 C 14.285156 5.132812 14.066406 5.503906 13.867188 6.136719 C 13.75 6.519531 13.726562 6.738281 13.726562 7.390625 L 13.726562 8.183594 L 3.707031 8.183594 L 3.707031 9.585938 C 3.707031 10.976562 3.707031 10.980469 3.554688 11.1875 C 3.316406 11.496094 3.210938 11.804688 3.210938 12.214844 C 3.210938 12.636719 3.304688 12.898438 3.589844 13.300781 L 3.789062 13.578125 L 3.664062 13.722656 C 3.417969 13.984375 3.25 14.398438 3.222656 14.796875 C 3.191406 15.253906 3.273438 15.519531 3.558594 15.949219 L 3.769531 16.265625 L 3.613281 16.46875 C 3.085938 17.160156 3.074219 18.046875 3.585938 18.679688 C 3.691406 18.800781 3.769531 18.925781 3.769531 18.945312 C 3.769531 18.96875 3.695312 19.074219 3.601562 19.1875 C 3.328125 19.507812 3.210938 19.835938 3.210938 20.277344 C 3.210938 20.699219 3.367188 21.109375 3.660156 21.46875 L 3.796875 21.644531 L 3.664062 21.777344 C 3.269531 22.207031 3.09375 23.039062 3.292969 23.523438 L 3.390625 23.75 L 2.320312 23.75 C 1.722656 23.75 1.160156 23.769531 1.054688 23.789062 C 0.949219 23.8125 0.75 23.917969 0.621094 24.039062 C 0.328125 24.285156 0.253906 24.550781 0.378906 24.910156 C 0.488281 25.246094 2.546875 27.945312 2.777344 28.0625 C 2.902344 28.132812 3.148438 28.15625 3.617188 28.15625 L 4.265625 28.15625 L 4.265625 29.707031 L 27.402344 29.707031 L 27.402344 28.15625 L 28.023438 28.15625 C 28.359375 28.15625 28.703125 28.125 28.792969 28.082031 C 28.921875 28.027344 29.984375 26.910156 31.398438 25.339844 C 31.820312 24.867188 31.761719 24.234375 31.265625 23.925781 C 31.050781 23.796875 30.957031 23.78125 29.933594 23.765625 L 28.835938 23.738281 L 28.929688 23.492188 C 29.109375 22.96875 28.976562 22.332031 28.585938 21.839844 C 28.40625 21.605469 28.402344 21.59375 28.511719 21.492188 C 28.574219 21.4375 28.707031 21.246094 28.804688 21.066406 C 28.960938 20.792969 28.984375 20.675781 28.984375 20.277344 C 28.984375 19.882812 28.960938 19.761719 28.804688 19.492188 C 28.707031 19.308594 28.574219 19.117188 28.511719 19.0625 C 28.40625 18.964844 28.40625 18.949219 28.613281 18.683594 C 28.898438 18.304688 29.039062 17.867188 28.996094 17.457031 C 28.960938 17.101562 28.730469 16.59375 28.527344 16.40625 L 28.394531 16.289062 L 28.617188 15.984375 C 29.144531 15.273438 29.132812 14.460938 28.585938 13.777344 C 28.40625 13.542969 28.402344 13.53125 28.511719 13.429688 C 28.71875 13.246094 28.960938 12.71875 28.996094 12.382812 C 29.039062 11.964844 28.941406 11.621094 28.675781 11.222656 L 28.457031 10.898438 L 28.457031 8.183594 L 23.339844 8.183594 C 20.523438 8.183594 18.222656 8.171875 18.222656 8.152344 C 18.222656 8.132812 18.296875 8.007812 18.382812 7.878906 C 18.726562 7.359375 18.8125 6.574219 18.59375 5.949219 C 18.53125 5.765625 18.488281 5.597656 18.507812 5.570312 C 18.519531 5.546875 18.65625 5.496094 18.8125 5.460938 C 19.167969 5.375 19.527344 5.453125 19.835938 5.695312 C 20.308594 6.066406 20.503906 6.097656 20.773438 5.832031 C 21.132812 5.464844 20.941406 5.050781 20.25 4.710938 C 19.824219 4.503906 19.226562 4.367188 18.929688 4.417969 L 18.730469 4.449219 L 18.707031 3.972656 C 18.667969 3.300781 18.316406 2.570312 17.929688 2.359375 C 17.71875 2.246094 17.507812 2.277344 17.328125 2.445312 Z M 16.648438 5.269531 C 16.953125 5.417969 17.515625 6.007812 17.640625 6.296875 C 17.824219 6.738281 17.683594 7.171875 17.222656 7.589844 C 16.777344 7.996094 16.367188 8.148438 15.617188 8.171875 C 14.78125 8.203125 14.730469 8.171875 14.699219 7.582031 C 14.636719 6.535156 15.089844 5.609375 15.828125 5.242188 C 16.089844 5.113281 16.335938 5.121094 16.648438 5.269531 Z M 27.402344 9.796875 L 27.402344 10.355469 L 16.121094 10.355469 L 16.101562 11.824219 C 16.082031 13.265625 16.078125 13.308594 15.925781 13.578125 C 15.742188 13.914062 15.457031 14.074219 15.039062 14.074219 C 14.476562 14.074219 14.128906 13.816406 14 13.289062 L 13.929688 13.023438 L 12.859375 13.023438 L 12.859375 14.496094 C 12.859375 15.84375 12.84375 15.988281 12.734375 16.210938 C 12.503906 16.65625 12.058594 16.847656 11.511719 16.738281 C 11.171875 16.664062 10.886719 16.382812 10.785156 16.019531 C 10.742188 15.875 10.71875 14.933594 10.71875 13.59375 L 10.71875 11.410156 L 9.601562 11.410156 L 9.601562 11.621094 C 9.601562 11.886719 9.378906 12.214844 9.105469 12.359375 C 8.8125 12.507812 8.179688 12.476562 7.945312 12.300781 C 7.570312 12.023438 7.523438 11.894531 7.496094 11.09375 L 7.480469 10.355469 L 4.824219 10.355469 L 4.824219 9.238281 L 27.402344 9.238281 Z M 6.445312 11.726562 C 6.492188 12.066406 6.734375 12.550781 6.996094 12.816406 L 7.1875 13.019531 L 6.003906 13.019531 C 4.695312 13.019531 4.535156 12.984375 4.359375 12.648438 C 4.242188 12.414062 4.242188 12.011719 4.367188 11.773438 C 4.519531 11.472656 4.75 11.410156 5.632812 11.425781 L 6.40625 11.441406 Z M 27.726562 11.636719 C 27.898438 11.8125 27.925781 11.878906 27.925781 12.171875 C 27.929688 12.359375 27.894531 12.582031 27.84375 12.667969 C 27.652344 13.035156 27.824219 13.023438 22.261719 13.023438 L 17.167969 13.023438 L 17.167969 11.410156 L 22.347656 11.421875 L 27.527344 11.441406 Z M 9.664062 14.914062 L 9.664062 15.6875 L 4.699219 15.6875 L 4.503906 15.507812 C 4.308594 15.335938 4.296875 15.304688 4.296875 14.914062 C 4.296875 14.523438 4.308594 14.492188 4.503906 14.316406 L 4.699219 14.136719 L 9.664062 14.136719 Z M 27.667969 14.269531 C 28.015625 14.535156 28.042969 15.1875 27.714844 15.515625 L 27.539062 15.6875 L 13.941406 15.6875 L 13.941406 15.285156 C 13.941406 15.0625 13.957031 14.882812 13.96875 14.882812 C 13.980469 14.882812 14.074219 14.925781 14.167969 14.976562 C 14.933594 15.371094 15.859375 15.179688 16.554688 14.472656 L 16.882812 14.136719 L 22.199219 14.136719 C 27.464844 14.136719 27.515625 14.136719 27.667969 14.269531 Z M 10.195312 17.101562 C 10.34375 17.269531 10.625 17.492188 10.847656 17.613281 C 11.214844 17.808594 11.289062 17.828125 11.773438 17.828125 C 12.449219 17.828125 12.871094 17.640625 13.347656 17.144531 L 13.675781 16.804688 L 20.554688 16.804688 C 27.265625 16.804688 27.441406 16.8125 27.632812 16.929688 C 27.984375 17.140625 28.058594 17.765625 27.769531 18.132812 C 27.699219 18.21875 27.539062 18.320312 27.414062 18.355469 C 27.253906 18.40625 23.796875 18.417969 15.957031 18.40625 C 5.269531 18.386719 4.726562 18.378906 4.570312 18.273438 C 4.339844 18.121094 4.246094 17.859375 4.277344 17.476562 C 4.304688 17.214844 4.347656 17.121094 4.507812 16.980469 L 4.699219 16.804688 L 9.941406 16.804688 Z M 10.195312 19.671875 C 9.980469 19.9375 9.664062 20.582031 9.664062 20.757812 C 9.664062 21.101562 9.789062 21.085938 7.199219 21.085938 C 4.589844 21.085938 4.550781 21.078125 4.359375 20.710938 C 4.242188 20.476562 4.242188 20.074219 4.367188 19.839844 C 4.546875 19.484375 4.59375 19.476562 7.609375 19.472656 L 10.363281 19.472656 Z M 27.726562 19.703125 C 27.898438 19.875 27.925781 19.945312 27.925781 20.234375 C 27.929688 20.421875 27.894531 20.644531 27.84375 20.730469 C 27.644531 21.105469 27.980469 21.085938 20.648438 21.085938 L 13.941406 21.085938 L 13.941406 20.898438 C 13.941406 20.59375 13.707031 20.0625 13.441406 19.757812 L 13.1875 19.472656 L 20.355469 19.484375 L 27.527344 19.503906 Z M 12.3125 20.15625 C 12.679688 20.316406 12.828125 20.582031 12.828125 21.054688 C 12.828125 21.722656 12.441406 22.140625 11.820312 22.140625 C 11.269531 22.140625 10.972656 21.933594 10.804688 21.445312 C 10.488281 20.484375 11.367188 19.726562 12.3125 20.15625 Z M 10.238281 22.53125 C 10.417969 22.714844 10.730469 22.941406 10.933594 23.046875 C 11.25 23.199219 11.382812 23.226562 11.804688 23.226562 C 12.429688 23.226562 12.851562 23.03125 13.335938 22.542969 L 13.664062 22.203125 L 27.539062 22.203125 L 27.714844 22.375 C 28.042969 22.703125 28.015625 23.355469 27.667969 23.621094 L 27.507812 23.753906 L 4.699219 23.753906 L 4.503906 23.574219 C 4.335938 23.421875 4.304688 23.347656 4.277344 23.019531 C 4.253906 22.648438 4.261719 22.628906 4.472656 22.417969 L 4.6875 22.203125 L 9.917969 22.203125 Z M 1.351562 24.582031 C 1.351562 24.597656 1.277344 24.65625 1.183594 24.714844 L 1.011719 24.824219 L 1.128906 24.695312 C 1.234375 24.570312 1.351562 24.515625 1.351562 24.582031 Z M 30.304688 24.917969 C 30.300781 24.949219 29.851562 25.445312 29.324219 26.027344 L 28.363281 27.089844 L 15.824219 27.09375 L 3.28125 27.101562 L 2.492188 26.058594 C 2.058594 25.488281 1.679688 24.988281 1.644531 24.941406 C 1.601562 24.886719 4.464844 24.867188 15.960938 24.867188 C 23.859375 24.867188 30.316406 24.894531 30.304688 24.917969 Z M 26.347656 28.402344 L 26.347656 28.589844 L 5.320312 28.589844 L 5.320312 28.21875 L 26.347656 28.21875 Z M 26.347656 28.402344 "/>
</g>
</svg>
